<svg width="48" height="48" viewBox="0 0 48 48" fill="none" xmlns="http://www.w3.org/2000/svg">
  <path d="M43.4879 36.768C38.16 32.64 32.784 29.904 31.632 29.328C31.488 29.28 31.392 29.136 31.392 28.944C31.392 28.368 31.392 26.784 31.392 25.152C31.968 24 32.304 22.752 32.496 21.6C33.024 21.936 33.84 21.744 34.8 18.48C35.568 15.792 35.088 14.928 34.464 14.688C36.576 4.512 31.728 4.176 31.728 4.176C31.728 4.176 31.008 2.784 29.088 1.68C27.792 0.960003 25.968 0.336003 23.616 0.576003C22.848 0.576003 22.08 0.768003 21.408 0.960003C20.544 1.248 19.728 1.68 19.008 2.208C18.144 2.784 17.28 3.456 16.56 4.224C15.408 5.424 14.352 6.96 13.872 8.88C13.44 10.512 13.44 12.288 14.112 14.112C13.248 14.016 12.192 14.544 13.2 17.952C13.92 20.448 14.592 21.168 15.072 21.216C15.312 22.656 15.744 24.24 16.608 25.68V28.944C16.608 29.088 16.512 29.232 16.368 29.328C15.216 29.904 9.83996 32.64 4.51196 36.768C2.68796 38.16 1.63196 40.368 1.63196 42.672V45.312C1.63196 46.512 2.63996 47.52 3.83996 47.52H44.16C45.36 47.52 46.368 46.512 46.368 45.312V42.672C46.368 40.368 45.312 38.16 43.4879 36.768ZM24.96 22.704C24.624 22.992 24.288 23.136 23.856 23.136C23.424 23.136 23.04 22.992 22.704 22.704C22.368 22.416 22.224 22.032 22.224 21.552C22.224 21.12 22.368 20.736 22.704 20.448C22.992 20.16 23.376 19.968 23.856 19.968C24.288 19.968 24.672 20.112 24.96 20.448C25.248 20.736 25.44 21.12 25.44 21.552C25.44 22.032 25.296 22.416 24.96 22.704ZM28.944 12.864C28.704 13.296 28.416 13.728 28.08 14.016C27.744 14.352 27.12 14.88 26.256 15.696C26.016 15.936 25.824 16.128 25.68 16.272C25.536 16.416 25.44 16.608 25.344 16.752C25.296 16.896 25.2 17.04 25.2 17.184C25.152 17.328 25.104 17.568 25.008 17.904C24.864 18.624 24.432 19.008 23.76 19.008C23.376 19.008 23.088 18.864 22.848 18.624C22.608 18.384 22.464 18.048 22.464 17.568C22.464 16.992 22.56 16.464 22.752 16.032C22.944 15.6 23.184 15.216 23.472 14.88C23.76 14.544 24.192 14.16 24.72 13.728C25.152 13.344 25.488 13.056 25.68 12.816C25.872 12.624 26.064 12.384 26.208 12.144C26.352 11.904 26.4 11.616 26.4 11.328C26.4 10.752 26.208 10.272 25.776 9.888C25.344 9.504 24.816 9.312 24.144 9.312C23.376 9.312 22.8 9.504 22.416 9.888C22.032 10.272 21.744 10.848 21.504 11.616C21.264 12.432 20.784 12.816 20.112 12.816C19.728 12.816 19.392 12.672 19.104 12.384C18.816 12.096 18.672 11.808 18.672 11.472C18.672 10.8 18.864 10.128 19.296 9.408C19.728 8.736 20.352 8.16 21.168 7.68C21.984 7.248 22.944 7.008 24.048 7.008C25.056 7.008 25.968 7.2 26.784 7.584C27.552 7.968 28.176 8.496 28.608 9.12C29.04 9.792 29.232 10.464 29.232 11.232C29.328 11.904 29.184 12.432 28.944 12.864Z" fill="#E4EAF2"/>
</svg>
