<svg width="81" height="80" viewBox="0 0 81 80" fill="none" xmlns="http://www.w3.org/2000/svg">
	<path fill-rule="evenodd" clip-rule="evenodd" d="M16.5 2H64.5C72.232 2 78.5 8.26801 78.5 16V64C78.5 71.732 72.232 78 64.5 78H16.5C8.76801 78 2.5 71.732 2.5 64V16C2.5 8.26801 8.76801 2 16.5 2ZM0.5 16C0.5 7.16344 7.66344 0 16.5 0H64.5C73.3366 0 80.5 7.16344 80.5 16V64C80.5 72.8366 73.3366 80 64.5 80H16.5C7.66344 80 0.5 72.8366 0.5 64V16ZM37.2311 55.6823L65.2311 25.6823L63.7689 24.3177L36.5019 53.5324L24.2328 40.3195L22.7672 41.6805L35.7672 55.6805L36.4981 56.4676L37.2311 55.6823Z" fill="#6293FF" />
</svg>
