<svg xmlns="http://www.w3.org/2000/svg" width="24" height="24" fill="none">
  <path fill="currentColor" fill-rule="evenodd"
        d="M14.515 11.93l6-6.045a.67.67 0 000-.97l-.923-.969a.67.67 0 00-.969 0l-6.046 6.046a.446.446 0 01-.646 0L5.885 3.9a.67.67 0 00-.97 0l-.969.97a.67.67 0 000 .968l6.046 6.047a.446.446 0 010 .646L3.9 18.623a.67.67 0 000 .97l.97.969a.67.67 0 00.968 0l6.047-6.047a.446.446 0 01.646 0l6.046 6.047a.67.67 0 00.97 0l.968-.97a.67.67 0 000-.969l-6-6.046a.446.446 0 010-.646z"
        clip-rule="evenodd"/>
</svg>
