<svg width="173" height="48" viewBox="0 0 173 48" fill="none" xmlns="http://www.w3.org/2000/svg">
<path d="M30.2056 10.4916L37.8288 2.62552H0.0234375L7.64658 10.4916H30.2056Z" fill="#284895"/>
<path d="M36.1311 15.5169V39.9186H7.63332V24.2389L0 16.3623V47.7847H43.7644V7.64029L36.1311 15.5169Z" fill="#284895"/>
<path d="M0.03125 2.62552L9.47113 10.4969H7.65948L0.03125 2.62552Z" fill="#223C7E"/>
<path d="M40.3752 0L37.8308 2.62553L30.2076 10.4916L18.9306 22.128L7.64859 10.4916L0.0254444 2.62553H0V13.7368L7.63333 21.6134L13.5313 27.6994L18.9306 33.2708L24.3249 27.6994L36.1311 15.5169L43.7644 7.6403L51.1687 0H40.3752Z" fill="#3366CC"/>
<path d="M13.5 27.6836L18.1411 21.3141L18.9197 22.128L13.5 27.6836Z" fill="#2C58AF"/>
<path d="M29.3164 10.4916L35.8607 2.63605H37.8301L30.2019 10.4916H29.3164Z" fill="#223C7E"/>
<path d="M36.1094 15.5379L43.7529 7.66656V9.3259L36.1297 16.7509L36.1094 15.5379Z" fill="#223C7E"/>
</svg>
