<svg width="80" height="81" viewBox="0 0 80 81" fill="none" xmlns="http://www.w3.org/2000/svg">
<path fill-rule="evenodd" clip-rule="evenodd" d="M78 40.5C78 61.4868 60.9868 78.5 40 78.5C19.0132 78.5 2 61.4868 2 40.5C2 19.5132 19.0132 2.5 40 2.5C60.9868 2.5 78 19.5132 78 40.5ZM80 40.5C80 62.5914 62.0914 80.5 40 80.5C17.9086 80.5 0 62.5914 0 40.5C0 18.4086 17.9086 0.5 40 0.5C62.0914 0.5 80 18.4086 80 40.5ZM36.7311 56.1823L64.7311 26.1823L63.2689 24.8177L36.0019 54.0324L23.7328 40.8195L22.2672 42.1805L35.2672 56.1805L35.9981 56.9676L36.7311 56.1823Z" fill="#6293FF"/>
</svg>
