<svg xmlns="http://www.w3.org/2000/svg" width="38" height="29" fill="none">
  <g clip-path="url(#clip0)">
    <path fill="#66727F" fill-rule="evenodd"
          d="M7.28 28.44l2.8-7.76H20.4l1.493 4.023L20.5 28.44h1.968l.4-1.11.412 1.11h3.48l-1.742-4.656h5.322l1.728 4.656h2.088l-6.384-17.064h-.912l-3.236 8.682L16.12 0H14.6L4 28.44h3.28zm16.344-8.382l-1.731 4.645.975 2.628 1.28-3.547h.87l-1.394-3.726zM16.28 9.28l3.12 8.52h-8.24l3.08-8.44 1-4.32h.04l1 4.24zm13.46 12.776h-4.944l1.848-5.064.6-2.592h.024l.6 2.544 1.872 5.112z"
          clip-rule="evenodd"/>
  </g>
  <defs>
    <clipPath id="clip0">
      <path fill="#fff" d="M0 0h37.527v28.44H0z"/>
    </clipPath>
  </defs>
</svg>
