<svg version="1.1" xmlns="http://www.w3.org/2000/svg" xmlns:xlink="http://www.w3.org/1999/xlink">
  <defs>

    <symbol id="keyboard-arrow-top" viewBox="0 0 40 40" fill="none" xmlns="http://www.w3.org/2000/svg">
      <path fill-rule="evenodd" clip-rule="evenodd" d="M10.1704 23.7615L19.4832 14.2077C19.7558 13.9308 20.2101 13.9308 20.4827 14.2077L29.7956 23.7615C30.0681 24.0385 30.0681 24.5 29.7956 24.7769L28.7961 25.7923C28.5236 26.0692 28.0693 26.0692 27.7967 25.7923L20.4827 18.2692C20.2101 17.9923 19.7558 17.9923 19.4832 18.2692L12.1692 25.7462C11.8967 26.0231 11.4424 26.0231 11.1698 25.7462L10.1704 24.7308C9.94321 24.4538 9.94321 24.0385 10.1704 23.7615V23.7615Z" fill="currentColor"/>
    </symbol>

    <symbol id="keyboard-arrow-down" viewBox="0 0 40 40" fill="none" xmlns="http://www.w3.org/2000/svg">
      <path fill-rule="evenodd" clip-rule="evenodd" d="M29.8296 17.2385L20.5168 26.7923C20.2442 27.0692 19.7899 27.0692 19.5173 26.7923L10.2044 17.2385C9.93186 16.9615 9.93186 16.5 10.2044 16.2231L11.2039 15.2077C11.4764 14.9308 11.9307 14.9308 12.2033 15.2077L19.5173 22.7308C19.7899 23.0077 20.2442 23.0077 20.5168 22.7308L27.8308 15.2538C28.1033 14.9769 28.5576 14.9769 28.8302 15.2538L29.8296 16.2692C30.0568 16.5462 30.0568 16.9615 29.8296 17.2385Z" fill="currentColor"/>
    </symbol>

    <symbol id="keyboard-arrow-left" viewBox="0 0 40 40" fill="none" xmlns="http://www.w3.org/2000/svg">
      <path fill-rule="evenodd" clip-rule="evenodd" d="M23.7615 29.8296L14.2077 20.5168C13.9308 20.2442 13.9308 19.7899 14.2077 19.5173L23.7615 10.2044C24.0385 9.93186 24.5 9.93186 24.7769 10.2044L25.7923 11.2039C26.0692 11.4764 26.0692 11.9307 25.7923 12.2033L18.2692 19.5173C17.9923 19.7899 17.9923 20.2442 18.2692 20.5168L25.7462 27.8308C26.0231 28.1033 26.0231 28.5576 25.7462 28.8302L24.7308 29.8296C24.4538 30.0568 24.0385 30.0568 23.7615 29.8296Z" fill="currentColor"/>
    </symbol>

    <symbol id="keyboard-arrow-right" viewBox="0 0 40 40" fill="none" xmlns="http://www.w3.org/2000/svg">
      <path fill-rule="evenodd" clip-rule="evenodd" d="M16.2385 10.1704L25.7923 19.4832C26.0692 19.7558 26.0692 20.2101 25.7923 20.4827L16.2385 29.7956C15.9615 30.0681 15.5 30.0681 15.2231 29.7956L14.2077 28.7961C13.9308 28.5236 13.9308 28.0693 14.2077 27.7967L21.7308 20.4827C22.0077 20.2101 22.0077 19.7558 21.7308 19.4832L14.2538 12.1692C13.9769 11.8967 13.9769 11.4424 14.2538 11.1698L15.2692 10.1704C15.5462 9.94321 15.9615 9.94321 16.2385 10.1704Z" fill="currentColor"/>
    </symbol>

    <symbol id="classic-arrow-top" viewBox="0 0 40 40" fill="none" xmlns="http://www.w3.org/2000/svg">
      <path fill-rule="evenodd" clip-rule="evenodd" d="M21.3192 30.2115V14.8884C21.3192 14.4731 21.8269 14.2884 22.1038 14.5654L26.5346 18.9961C26.8115 19.2731 27.2269 19.2731 27.5038 18.9961L28.5192 17.9807C28.7961 17.7038 28.7961 17.2884 28.5192 17.0115L20.3961 8.93459C20.1192 8.65767 19.7038 8.65767 19.4269 8.93459L11.35 17.0115C11.073 17.2884 11.073 17.7038 11.35 17.9807L12.3192 18.95C12.5961 19.2269 13.0115 19.2269 13.2884 18.95L17.7192 14.5192C18.0423 14.2423 18.55 14.4269 18.55 14.8423V30.1654C18.55 30.5346 18.8269 30.8577 19.1961 30.8577H20.5807C20.95 30.8577 21.3192 30.5807 21.3192 30.2115Z" fill="currentColor"/>
    </symbol>

    <symbol id="classic-arrow-left" viewBox="0 0 40 40" fill="none" xmlns="http://www.w3.org/2000/svg">
      <path fill-rule="evenodd" clip-rule="evenodd" d="M30.3538 21.1769H15.0308C14.6154 21.1769 14.4308 21.6846 14.7077 21.9615L19.1385 26.3923C19.4154 26.6692 19.4154 27.0846 19.1385 27.3615L18.1231 28.3769C17.8462 28.6538 17.4308 28.6538 17.1538 28.3769L9.07692 20.2538C8.8 19.9769 8.8 19.5615 9.07692 19.2846L17.1538 11.2077C17.4308 10.9308 17.8462 10.9308 18.1231 11.2077L19.0923 12.1769C19.3692 12.4538 19.3692 12.8692 19.0923 13.1462L14.6615 17.5769C14.3846 17.9 14.5692 18.4077 14.9846 18.4077H30.3077C30.6769 18.4077 31 18.6846 31 19.0538V20.4385C31 20.8077 30.7231 21.1769 30.3538 21.1769Z" fill="currentColor"/>
    </symbol>

    <symbol id="classic-arrow-right" viewBox="0 0 40 40" fill="none" xmlns="http://www.w3.org/2000/svg">
      <path fill-rule="evenodd" clip-rule="evenodd" d="M9.51536 21.1769H24.8384C25.2538 21.1769 25.4384 21.6846 25.1615 21.9615L20.7307 26.3923C20.4538 26.6692 20.4538 27.0846 20.7307 27.3615L21.7461 28.3769C22.023 28.6538 22.4384 28.6538 22.7154 28.3769L30.7923 20.2538C31.0692 19.9769 31.0692 19.5615 30.7923 19.2846L22.7154 11.2077C22.4384 10.9308 22.023 10.9308 21.7461 11.2077L20.7769 12.1769C20.5 12.4538 20.5 12.8692 20.7769 13.1462L25.2077 17.5769C25.4846 17.9 25.3 18.4077 24.8846 18.4077H9.56151C9.19228 18.4077 8.8692 18.6846 8.8692 19.0538V20.4385C8.8692 20.8077 9.14612 21.1769 9.51536 21.1769Z" fill="currentColor"/>
    </symbol>

    <symbol id="base-add" viewBox="0 0 40 40" fill="none" xmlns="http://www.w3.org/2000/svg">
      <path fill-rule="evenodd" clip-rule="evenodd" d="M18.5 33C18.5 33.5523 18.9477 34 19.5 34H20.5C21.0523 34 21.5 33.5523 21.5 33V21.5H33C33.5523 21.5 34 21.0523 34 20.5V19.5C34 18.9477 33.5523 18.5 33 18.5H21.5V7C21.5 6.44772 21.0523 6 20.5 6H19.5C18.9477 6 18.5 6.44772 18.5 7V18.5H7C6.44772 18.5 6 18.9477 6 19.5V20.5C6 21.0523 6.44772 21.5 7 21.5H18.5V33Z" fill="currentColor"/>
    </symbol>

    <symbol id="base-close" viewBox="0 0 40 40" fill="none" xmlns="http://www.w3.org/2000/svg">
      <path d="M28.1317 30.253C28.5222 30.6436 29.1554 30.6436 29.5459 30.253L30.253 29.5459C30.6436 29.1554 30.6436 28.5222 30.253 28.1317L22.1213 20L30.253 11.8683C30.6436 11.4777 30.6436 10.8446 30.253 10.454L29.5459 9.74693C29.1554 9.35641 28.5222 9.35641 28.1317 9.74693L20 17.8787L11.8683 9.74693C11.4777 9.35641 10.8446 9.35641 10.4541 9.74693L9.74695 10.454C9.35642 10.8446 9.35642 11.4777 9.74695 11.8683L17.8787 20L9.74695 28.1317C9.35642 28.5222 9.35642 29.1554 9.74695 29.5459L10.4541 30.253C10.8446 30.6436 11.4777 30.6436 11.8683 30.253L20 22L28.1317 30.253Z" fill="currentColor"/>
    </symbol>

    <symbol id="full-close" viewBox="0 0 22 22" fill="none" xmlns="http://www.w3.org/2000/svg">
      <path fill="currentColor" d="M19.1317 21.253C19.5223 21.6436 20.1554 21.6436 20.546 21.253L21.2531 20.5459C21.6436 20.1554 21.6436 19.5222 21.2531 19.1317L13.1213 11L21.2531 2.86827C21.6436 2.47775 21.6436 1.84458 21.2531 1.45406L20.546 0.746949C20.1554 0.356425 19.5223 0.356425 19.1317 0.746949L11 8.87868L2.86828 0.746949C2.47776 0.356425 1.84459 0.356425 1.45407 0.746949L0.746964 1.45406C0.35644 1.84458 0.35644 2.47775 0.746964 2.86827L8.87869 11L0.746964 19.1317C0.35644 19.5222 0.35644 20.1554 0.746964 20.5459L1.45407 21.253C1.84459 21.6436 2.47776 21.6436 2.86828 21.253L11 13L19.1317 21.253Z"/>
    </symbol>


    <symbol id="base-remove" viewBox="0 0 40 40" fill="none" xmlns="http://www.w3.org/2000/svg">
      <path fill-rule="evenodd" clip-rule="evenodd" d="M7 20C7 19.4477 7.44772 19 8 19H34C34.5523 19 35 19.4477 35 20V21C35 21.5523 34.5523 22 34 22H8C7.44772 22 7 21.5523 7 21V20Z" fill="currentColor"/>
    </symbol>

    <symbol id="base-burger-menu" viewBox="0 0 40 40" fill="none" xmlns="http://www.w3.org/2000/svg">
      <path fill-rule="evenodd" clip-rule="evenodd" d="M7 12C7 11.4477 7.44772 11 8 11H34C34.5523 11 35 11.4477 35 12V13C35 13.5523 34.5523 14 34 14H8C7.44772 14 7 13.5523 7 13V12ZM7 20C7 19.4477 7.44772 19 8 19H27C27.5523 19 28 19.4477 28 20V21C28 21.5523 27.5523 22 27 22H8C7.44772 22 7 21.5523 7 21V20ZM8 27C7.44772 27 7 27.4477 7 28V29C7 29.5523 7.44771 30 8 30H31C31.5523 30 32 29.5523 32 29V28C32 27.4477 31.5523 27 31 27H8Z" fill="currentColor"/>
    </symbol>

    <symbol id="base-success" viewBox="0 0 40 40" fill="none" xmlns="http://www.w3.org/2000/svg">
      <path fill-rule="evenodd" clip-rule="evenodd" d="M16.8231 27.4385L9.20769 19.7769C8.93077 19.5 8.93077 19.0385 9.20769 18.7615L10.2231 17.7462C10.5 17.4692 10.9615 17.4692 11.2385 17.7462L16.9615 23.5154C17.1462 23.7 17.4692 23.7 17.6538 23.5154L28.8692 12.2077C29.1462 11.9308 29.6077 11.9308 29.8846 12.2077L30.9 13.2231C31.1769 13.5 31.1769 13.9615 30.9 14.2385L17.8385 27.4385C17.5615 27.7615 17.1 27.7615 16.8231 27.4385V27.4385Z" fill="currentColor"/>
    </symbol>

    <symbol id="base-ball" viewBox="0 0 28 28" fill="none" xmlns="http://www.w3.org/2000/svg">
      <circle cx="14" cy="14" r="14" fill="currentColor"/>
    </symbol>

    <symbol id="base-clock" viewBox="0 0 26 40" fill="none" xmlns="http://www.w3.org/2000/svg">
      <path fill-rule="evenodd" clip-rule="evenodd" d="M25.1905 39.8785H0.809514C0.598968 39.8816 0.395735 39.8013 0.244102 39.6552C0.0924693 39.5091 0.00472874 39.309 0 39.0985V35.5849C0.00386427 35.3722 0.090655 35.1695 0.241873 35.0198C0.393091 34.8702 0.596776 34.7855 0.809514 34.7839H3.16216V32.7109C3.16003 31.4042 3.42505 30.1108 3.94095 28.9103C4.45685 27.7097 5.21273 26.6273 6.16218 25.7295L11.8513 20.3696L5.90595 14.6145C4.98574 13.7203 4.25346 12.6513 3.75211 11.4702C3.25076 10.2892 2.99046 9.01982 2.98649 7.73675V5.09468H0.809514C0.596776 5.09304 0.393091 5.00838 0.241873 4.85874C0.090655 4.7091 0.00386427 4.50631 0 4.2936V0.780086C0.00472874 0.569571 0.0924693 0.369457 0.244102 0.223353C0.395735 0.0772483 0.598968 -0.00300336 0.809514 8.60012e-05H25.1905C25.401 -0.00300336 25.6043 0.0772483 25.7559 0.223353C25.9075 0.369457 25.9953 0.569571 26 0.780086V4.2936C25.9961 4.50631 25.9093 4.7091 25.7581 4.85874C25.6069 5.00838 25.4032 5.09304 25.1905 5.09468H23.0135V7.73675C23.0091 9.01996 22.7483 10.2894 22.2465 11.4704C21.7447 12.6514 21.012 13.7203 20.0914 14.6143L14.1484 20.3618L19.997 25.7126C20.976 26.6111 21.7574 27.7032 22.2919 28.9198C22.8263 30.1364 23.1019 31.4507 23.1014 32.7795V34.7839H25.1905C25.4032 34.7855 25.6069 34.8702 25.7581 35.0198C25.9093 35.1695 25.9961 35.3722 26 35.5849V39.0985C25.9953 39.309 25.9075 39.5091 25.7559 39.6552C25.6043 39.8013 25.401 39.8816 25.1905 39.8785ZM24.4189 1.58117H1.58108V3.5136H24.4189V1.58117ZM4.56757 5.09468V7.73675C4.57141 8.80811 4.78925 9.8679 5.20831 10.8539C5.62738 11.8399 6.2392 12.7322 7.00788 13.4785L13.0035 19.2779L18.9941 13.4785C19.7624 12.7321 20.374 11.8397 20.7927 10.8537C21.2114 9.86772 21.4289 8.80798 21.4324 7.73675V5.09468H4.56757ZM5.39216 29.5379C4.96184 30.5403 4.74101 31.6201 4.74324 32.7109V34.7839H21.5203V32.7795C21.522 31.6706 21.2931 30.5735 20.8482 29.5578C20.4032 28.5421 19.7518 27.63 18.9354 26.8796L13.0176 21.456L7.24557 26.882C6.45319 27.6317 5.82247 28.5355 5.39216 29.5379ZM24.4189 36.365H1.58108V38.2974H24.4189V36.365ZM12.8501 18.3959C9.18882 14.9898 7.49079 13.2322 6.17908 10.8952H19.5211C18.2094 13.2322 16.5113 14.9898 12.8501 18.3959Z" fill="currentColor"/>
    </symbol>

    <symbol id="logo-cik" viewBox="0 0 53 70" fill="none" xmlns="http://www.w3.org/2000/svg">
      <path opacity="0.6" d="M15.0414 65.965V68.335C15.0414 68.4517 15.0014 68.545 14.9214 68.615C14.8448 68.685 14.7431 68.72 14.6164 68.72H13.8064V67H8.16145V59.77H9.51145V65.965H12.6514V59.77H14.0064V65.965H15.0414ZM22.2057 59.77V67H20.8557V62.47C20.8557 62.3 20.859 62.1217 20.8657 61.935C20.8757 61.7483 20.8957 61.55 20.9257 61.34C20.859 61.5267 20.7857 61.7 20.7057 61.86C20.629 62.0167 20.554 62.155 20.4807 62.275L17.7157 66.585C17.6857 66.635 17.649 66.685 17.6057 66.735C17.5657 66.785 17.5207 66.83 17.4707 66.87C17.4207 66.9067 17.3657 66.9383 17.3057 66.965C17.2457 66.9883 17.184 67 17.1207 67H16.1107V59.77H17.4607V64.3C17.4607 64.47 17.4557 64.65 17.4457 64.84C17.439 65.0267 17.4207 65.225 17.3907 65.435C17.4573 65.2483 17.529 65.075 17.6057 64.915C17.6857 64.755 17.764 64.615 17.8407 64.495L20.6007 60.185C20.6307 60.135 20.6657 60.085 20.7057 60.035C20.749 59.985 20.7957 59.9417 20.8457 59.905C20.8957 59.865 20.949 59.8333 21.0057 59.81C21.0657 59.7833 21.129 59.77 21.1957 59.77H22.2057ZM29.9507 67H28.7307C28.6041 67 28.4974 66.9667 28.4107 66.9C28.3274 66.8333 28.2491 66.735 28.1757 66.605L26.6357 64.175C26.5957 64.105 26.5524 64.0483 26.5057 64.005C26.4624 63.9583 26.4141 63.9217 26.3607 63.895C26.3107 63.865 26.2524 63.845 26.1857 63.835C26.1224 63.825 26.0491 63.82 25.9657 63.82H25.1607V67H23.8157V59.77H25.1607V62.8H25.8407C25.9774 62.8 26.0957 62.7767 26.1957 62.73C26.2957 62.6833 26.3891 62.5967 26.4757 62.47L28.0607 60.13C28.1274 60.0233 28.2057 59.9367 28.2957 59.87C28.3857 59.8033 28.4941 59.77 28.6207 59.77H29.7707L27.8057 62.67C27.7224 62.7967 27.6257 62.9017 27.5157 62.985C27.4057 63.0683 27.2841 63.1333 27.1507 63.18C27.3507 63.2367 27.5191 63.3267 27.6557 63.45C27.7957 63.57 27.9291 63.7367 28.0557 63.95L29.9507 67ZM35.5603 63.405C35.8069 63.405 36.0219 63.375 36.2053 63.315C36.3886 63.2517 36.5403 63.1633 36.6603 63.05C36.7836 62.9333 36.8753 62.7933 36.9353 62.63C36.9953 62.4633 37.0253 62.2783 37.0253 62.075C37.0253 61.8817 36.9953 61.7067 36.9353 61.55C36.8753 61.3933 36.7853 61.26 36.6653 61.15C36.5453 61.04 36.3936 60.9567 36.2103 60.9C36.0269 60.84 35.8103 60.81 35.5603 60.81H34.5553V63.405H35.5603ZM35.5603 59.77C36.0436 59.77 36.4619 59.8267 36.8153 59.94C37.1686 60.0533 37.4603 60.2117 37.6903 60.415C37.9203 60.6183 38.0903 60.8617 38.2003 61.145C38.3136 61.4283 38.3703 61.7383 38.3703 62.075C38.3703 62.425 38.3119 62.7467 38.1953 63.04C38.0786 63.33 37.9036 63.58 37.6703 63.79C37.4369 64 37.1436 64.1633 36.7903 64.28C36.4403 64.3967 36.0303 64.455 35.5603 64.455H34.5553V67H33.2103V59.77H35.5603ZM43.2567 65.1C43.5133 65.0933 43.7483 65.04 43.9617 64.94C44.175 64.84 44.3583 64.7067 44.5117 64.54C44.665 64.37 44.7833 64.1733 44.8667 63.95C44.9533 63.7233 44.9967 63.48 44.9967 63.22C44.9967 62.9667 44.9533 62.7283 44.8667 62.505C44.7833 62.2783 44.665 62.08 44.5117 61.91C44.3583 61.74 44.175 61.605 43.9617 61.505C43.7483 61.405 43.5133 61.3517 43.2567 61.345V65.1ZM41.9817 61.345C41.7217 61.3517 41.485 61.405 41.2717 61.505C41.0617 61.605 40.88 61.74 40.7267 61.91C40.5733 62.08 40.455 62.2783 40.3717 62.505C40.2883 62.7283 40.2467 62.9667 40.2467 63.22C40.2467 63.48 40.2883 63.7233 40.3717 63.95C40.455 64.1733 40.5733 64.37 40.7267 64.54C40.88 64.7067 41.0617 64.84 41.2717 64.94C41.485 65.04 41.7217 65.0933 41.9817 65.1V61.345ZM43.2567 60.31C43.7067 60.3233 44.12 60.4083 44.4967 60.565C44.8733 60.7217 45.1967 60.9317 45.4667 61.195C45.74 61.4583 45.9533 61.7633 46.1067 62.11C46.26 62.4567 46.3367 62.8267 46.3367 63.22C46.3367 63.6167 46.26 63.99 46.1067 64.34C45.9533 64.6867 45.74 64.9917 45.4667 65.255C45.1967 65.5183 44.8733 65.7283 44.4967 65.885C44.12 66.0417 43.7067 66.1267 43.2567 66.14V67H41.9817V66.14C41.535 66.1267 41.1233 66.0417 40.7467 65.885C40.37 65.725 40.045 65.515 39.7717 65.255C39.4983 64.9917 39.285 64.6867 39.1317 64.34C38.9783 63.99 38.9017 63.6167 38.9017 63.22C38.9017 62.8267 38.9783 62.4567 39.1317 62.11C39.285 61.7633 39.4983 61.46 39.7717 61.2C40.045 60.9367 40.37 60.7267 40.7467 60.57C41.1233 60.4133 41.535 60.3267 41.9817 60.31V59.465H43.2567V60.31Z" fill="#66727F"/>
      <path opacity="0.6" fill-rule="evenodd" clip-rule="evenodd" d="M37.4349 13.5447C37.1425 13.7193 36.9254 13.9906 36.8399 14.3138C37.0628 14.2806 37.2866 14.258 37.5102 14.2354C37.8327 14.2029 38.1548 14.1704 38.4729 14.1061C38.6826 14.0641 38.8717 14.0113 39.0407 13.9469C38.9389 13.7308 38.7752 13.5664 38.5776 13.4661C38.2111 13.2811 37.78 13.3388 37.4349 13.5447ZM36.7328 16.1364C37.0671 16.0063 37.295 15.8426 37.4833 15.5716C37.4012 15.5833 37.3189 15.5938 37.2371 15.604C37.0426 15.6269 36.8467 15.6453 36.6515 15.6637C35.6815 15.755 34.7301 15.8447 34.0543 16.4606C34.2824 16.3609 34.5384 16.2937 34.8226 16.259C35.0998 16.2256 35.3846 16.2275 35.6625 16.2586C36.0186 16.2986 36.3966 16.2683 36.7328 16.1364ZM15.8372 15.6637C16.8073 15.755 17.7585 15.8446 18.4348 16.4606C18.2067 16.3609 17.9509 16.2937 17.6662 16.259C17.389 16.2256 17.1043 16.2275 16.8266 16.2586C16.4699 16.2986 16.0922 16.2683 15.7558 16.1364C15.4217 16.0063 15.1934 15.8426 15.0053 15.5716C15.0807 15.5827 15.1553 15.592 15.2297 15.6013L15.2517 15.604C15.4462 15.6269 15.6421 15.6453 15.8372 15.6637ZM14.9782 14.2354C14.656 14.2029 14.3341 14.1704 14.016 14.1062C13.8059 14.0642 13.6174 14.0113 13.4478 13.9469C13.5502 13.7308 13.7134 13.5664 13.9117 13.4661C14.2778 13.2811 14.7091 13.3388 15.0544 13.5447C15.3465 13.7193 15.5634 13.9906 15.6486 14.3138C15.4258 14.2805 15.202 14.258 14.9782 14.2354ZM26.2443 21.2311C26.1419 21.2311 26.0404 21.2321 25.9385 21.2348C25.5697 19.8964 24.6524 18.114 23.8321 17.0582C24.314 17.1186 24.6524 17.0267 25.0698 16.7148C24.4459 16.588 24.0128 16.3445 23.5192 15.9589C23.4891 15.9306 23.4597 15.902 23.4301 15.8732C23.8375 15.8803 24.2504 15.8412 24.565 15.627C25.234 15.1701 25.7984 14.4203 26.2443 13.5819C26.6911 14.4203 27.2552 15.1701 27.9242 15.627C28.2385 15.8412 28.6512 15.8803 29.0588 15.8732C29.0487 15.8829 29.0387 15.8927 29.0288 15.9024C29.0093 15.9213 28.99 15.9402 28.9704 15.9589C28.4764 16.3445 28.0433 16.588 27.4191 16.7148C27.8365 17.0266 28.175 17.1185 28.6571 17.0582C27.8364 18.114 26.9189 19.8964 26.5506 21.2348C26.4492 21.2321 26.3469 21.2311 26.2443 21.2311ZM34.328 36.2122C34.4496 35.8402 34.532 35.445 34.5681 35.0244L34.5909 34.7584L34.3239 34.7442C34.2429 34.7391 34.165 34.7203 34.092 34.6866C33.5754 34.449 33.4002 33.6237 33.4002 33.1152V32.8011L33.4038 32.8027C33.4196 32.8096 33.436 32.8167 33.453 32.8228C33.6191 32.8876 33.8111 32.9244 33.9752 32.8302C34.1453 32.732 34.1952 32.5466 34.1855 32.362C34.1842 32.1837 34.1847 32.0066 34.1901 31.8293C34.2675 31.8997 34.364 31.9448 34.4765 31.9424C34.5484 31.9406 34.6351 31.9158 34.6976 31.8826C34.6935 32.0479 34.6915 32.2135 34.6971 32.3796C34.7132 32.8673 34.7914 33.4149 35.1109 33.8041C35.4212 34.1832 35.8721 34.3095 36.3471 34.2997H36.3581L36.3686 34.2981C36.7252 34.2614 36.8422 33.9393 36.7454 33.6244C36.6785 33.4097 36.6148 33.1931 36.5579 32.976C36.7768 33.091 36.9555 33.0224 37.1064 32.8619C37.1089 32.8719 37.1116 32.8816 37.1142 32.8913C37.1164 32.8991 37.1185 32.9068 37.1206 32.9147C37.2063 33.2244 37.295 33.5329 37.4097 33.8335C37.6032 34.342 37.9023 34.9201 38.4125 35.1702C38.8065 35.3634 39.2239 35.3128 39.6144 35.1404C39.9568 34.9953 39.9854 34.6287 39.7727 34.3518C39.5321 34.0413 39.3333 33.748 39.1647 33.4576C39.3442 33.5033 39.5863 33.4576 39.7018 33.2952C39.908 33.6638 40.136 34.0145 40.393 34.3332C41.0725 35.1753 42.1534 35.6801 43.1924 35.1389C43.2923 35.0869 43.3706 35.0036 43.4086 34.896C43.494 34.6559 43.3518 34.4185 43.1619 34.2768C42.7543 33.9744 42.3904 33.6355 42.0572 33.2705C42.193 33.2806 42.3318 33.2493 42.4462 33.1714C42.5066 33.1297 42.5586 33.0776 42.5972 33.0151C42.6505 32.9299 42.672 32.8427 42.6715 32.757C42.8688 32.9387 43.0696 33.1172 43.272 33.2904C43.911 33.8377 44.8717 34.505 45.7575 34.3645C46.2146 34.2924 46.5624 34.0209 46.8163 33.6431C46.8889 33.5356 46.9257 33.4098 46.9079 33.2807C46.8761 33.0532 46.694 32.9058 46.491 32.8283C45.9596 32.6263 45.464 32.3896 44.9955 32.122C45.1101 32.1054 45.2215 32.0627 45.3236 31.9857C45.5048 31.8477 45.5624 31.6494 45.5233 31.4667C45.5996 31.4977 45.6765 31.5285 45.7537 31.5578C45.8497 31.5944 45.9454 31.6316 46.0411 31.6687C46.264 31.7552 46.4865 31.8416 46.7122 31.9205C47.0068 32.0235 47.3224 32.1239 47.6311 32.174C48.7039 32.3456 50.0214 31.8745 50.3113 30.7269C50.3434 30.5967 50.3371 30.4634 50.2746 30.3433C50.164 30.1306 49.9317 30.0509 49.7053 30.0421C48.9782 30.016 48.2197 29.9102 47.4586 29.7454C47.643 29.6677 47.794 29.5329 47.8702 29.3231C47.9522 29.0943 47.8834 28.8947 47.7419 28.7433C47.8607 28.7521 47.9793 28.759 48.0968 28.7628C48.7404 28.7865 49.4108 28.8024 50.0484 28.6954C50.84 28.5617 51.6276 28.0766 52.0133 27.3589C52.1986 27.0142 52.2797 26.6334 52.2485 26.2434C52.237 26.1011 52.1842 25.9672 52.08 25.8685C51.8936 25.6915 51.6296 25.6929 51.3998 25.7674C50.6712 26.0021 49.9146 26.1599 49.1545 26.2612C49.3035 26.1193 49.3973 25.9256 49.392 25.6707C49.3878 25.4536 49.2598 25.285 49.0859 25.182C49.7023 25.0171 50.3344 24.833 50.9044 24.5485C52.0252 23.9882 52.8348 22.7082 52.3412 21.456C52.2866 21.3185 52.1935 21.2023 52.0592 21.1361C51.8233 21.0186 51.5632 21.1009 51.3602 21.2447C50.7733 21.6616 50.1373 22.0302 49.4711 22.353C49.4909 22.32 49.5094 22.2859 49.5263 22.2507C49.6482 21.9921 49.6667 21.6702 49.4738 21.4394C49.3722 21.3171 49.2305 21.2489 49.0786 21.2287C49.5285 20.9256 49.9698 20.5996 50.353 20.2254C51.3439 19.2572 51.7924 17.5768 50.8459 16.4222C50.7484 16.3035 50.6214 16.2171 50.4683 16.1919C50.1906 16.1472 49.951 16.3185 49.7834 16.5221C49.3394 17.0614 48.839 17.5758 48.303 18.064C48.3134 18.0207 48.3207 17.9772 48.3249 17.9328C48.353 17.6624 48.2646 17.3854 48.0438 17.2164C47.8823 17.0929 47.6803 17.054 47.4828 17.0885C47.793 16.7214 48.0863 16.3375 48.3288 15.9306C49.086 14.6606 49.0212 12.8027 47.7439 11.881C47.6127 11.786 47.4586 11.7327 47.2957 11.7494C47.0012 11.7801 46.807 12.0187 46.6983 12.2742C46.4427 12.8733 46.1366 13.4592 45.792 14.0299C45.7722 13.8157 45.6806 13.617 45.4828 13.4889C45.2591 13.3446 44.9801 13.3524 44.741 13.454C44.7051 13.4689 44.6697 13.4863 44.6353 13.5056C45.0903 12.457 45.459 11.2513 45.2544 10.1293C45.187 9.75782 45.0581 9.40614 44.8634 9.08305C44.5293 8.52841 44.0555 8.03241 43.4337 7.81181C43.0644 7.68089 42.7012 7.83547 42.6768 8.25479C42.6505 8.71105 42.5918 9.16559 42.5066 9.61521C42.0838 11.8404 41.0283 14.2775 39.7082 16.1278C39.5343 15.9852 39.3209 15.8628 39.0637 15.7612C39.2137 16.3298 39.1001 16.8278 38.8202 17.3282C38.4436 18.0016 37.8294 18.4659 37.2118 18.9328C36.6582 19.3513 36.1017 19.7719 35.7114 20.3471C35.1171 21.2242 34.912 22.4346 35.4779 23.3077C35.9708 24.0699 37.0932 24.3468 37.8875 23.9158C38.0186 23.8447 38.2031 23.8154 38.303 23.9595C38.4028 24.1026 38.2643 24.2926 38.1559 24.3869C37.5802 24.8896 37.5021 25.8095 37.9644 26.4143C38.0592 26.5388 38.1549 26.7601 38.0269 26.8932C37.941 26.9829 37.7651 26.8602 37.6958 26.7987C37.2369 26.3964 36.7 26.0567 36.0795 25.9946C35.464 25.9321 34.8781 26.1615 34.3645 26.4834C34.1364 26.6263 33.8639 26.6912 33.5962 26.6585C33.5298 26.6507 33.4641 26.637 33.4003 26.6172C33.4131 25.7663 33.9804 24.5363 34.7414 24.1407L34.9102 24.0528L34.8767 23.8655C34.8007 23.4359 34.4525 22.9664 34.0658 22.7645L33.921 22.6883L33.7899 22.7872C33.5488 22.9694 33.2142 23.048 32.9165 23.034C32.4324 23.0121 31.8108 22.7212 31.3754 22.5156C31.2898 22.4751 31.2044 22.4343 31.1191 22.3936C31.0672 22.3687 31.0153 22.3439 30.9634 22.3192C30.9822 21.6899 31.0655 21.0607 31.2608 20.4606C31.5007 19.7225 31.8909 19.0875 32.4429 18.5471C32.4678 18.6132 32.4973 18.6777 32.5301 18.7403C32.8249 19.304 33.3131 19.6202 33.9505 19.6464C33.6274 19.2956 33.4672 18.9107 33.5808 18.3868C33.7195 17.7423 34.3146 17.2553 34.9626 17.1901C35.6106 17.1245 36.0646 17.4656 36.2705 18.0354C36.8454 17.8757 37.3085 17.4363 37.5678 16.9053C37.7693 16.4919 37.8448 15.9925 37.6667 15.5433C38.4355 15.4146 39.212 15.1674 39.7353 14.6487C40.309 14.0801 40.3892 13.3147 40.3496 12.5465C40.1287 13.1295 39.8362 13.5252 39.3793 13.7875C39.4438 13.6285 39.4813 13.4595 39.4973 13.256C39.54 12.7261 39.3839 12.2063 38.9863 11.8109C38.546 11.3744 37.927 11.2096 37.3199 11.267C37.0791 10.974 36.6539 10.8381 36.2676 10.9486L36.13 10.9871C35.9242 10.8269 35.668 10.7524 35.4025 10.7295C35.9136 9.62429 36.6715 8.41931 37.6338 7.77646C37.6501 8.39117 37.4736 9.02327 37.2035 9.60845L37.0847 9.86631L37.3522 9.9614C37.7146 10.0891 38.08 10.2273 38.4314 10.3834L38.4282 10.3927L38.6442 10.4947C38.9597 10.644 39.2717 10.8078 39.5762 10.9771L39.6272 11.0061L39.7457 11.0748C40.0248 11.2367 40.2986 11.4069 40.567 11.5855L40.8955 11.8036L40.9648 11.4155C41.1912 10.1521 40.9949 8.90648 40.3174 7.81063C39.5583 6.58362 38.3193 5.71517 36.9995 5.18175L36.9089 5.14562L36.8173 5.17735C35.5824 5.6033 34.6134 6.74675 33.867 7.77374C33.2705 8.5953 32.7877 9.51905 32.3039 10.4449C31.9424 11.1365 31.5803 11.8293 31.1697 12.4816C30.8884 12.5975 30.5824 12.6872 30.2846 12.6945C29.9161 12.7038 29.5404 12.5995 29.202 12.4315C29.4477 13.0601 29.7945 13.4643 30.3386 13.637C30.1647 13.846 29.9798 14.0463 29.783 14.2366L29.7807 14.2351C29.0759 13.7784 28.6275 13.1078 28.3696 12.3497C28.6304 12.3013 28.8864 12.241 29.1311 12.1682C29.6132 12.0236 30.4808 11.6961 30.4808 11.0777C30.4808 10.9705 30.4571 10.8712 30.4153 10.7812C30.3752 10.6943 30.3848 10.6638 30.4788 10.6223C30.6436 10.5492 30.7846 10.4078 30.873 10.2467C30.8941 10.2079 30.9152 10.169 30.9364 10.1298C31.1451 9.74432 31.3622 9.34335 31.6579 9.02209C31.7046 8.97098 31.8648 8.81176 31.9349 8.80789C32.058 8.81106 32.1884 8.75193 32.259 8.64964C32.2959 8.59593 32.32 8.53435 32.3271 8.47009C32.3501 8.27279 32.2253 8.09793 32.0597 8.00362C32.0404 7.99238 32.0211 7.98285 32.0003 7.97385C32.1544 7.70516 32.1845 7.33344 32.1554 6.98494C32.085 6.16458 31.7036 5.48195 31.1211 4.90943C30.988 4.77884 30.7801 4.59611 30.619 4.47061L30.6338 4.37947C30.7244 3.83122 30.2679 3.50222 29.7944 3.3823C29.3551 3.271 28.8968 3.31246 28.5627 3.64878C28.4565 3.75605 28.3598 3.88009 28.2733 4.0117L28.1629 3.97729C28.1109 3.96237 28.0603 3.94708 28.0104 3.93197C27.9067 3.90058 27.8055 3.86994 27.6977 3.8449C27.7295 3.7218 27.7466 3.59458 27.7466 3.46512C27.7466 2.95593 27.4925 2.50627 27.1057 2.2342L27.0605 2.09131C27.0937 2.09082 27.1276 2.08618 27.1616 2.07673C27.4705 1.98637 27.5353 1.56261 27.5353 1.28977C27.5353 1.01697 27.4705 0.593002 27.1616 0.503087C27.1223 0.491888 27.084 0.487734 27.0458 0.488712C27.0471 0.450147 27.0421 0.412031 27.0312 0.373711C26.9408 0.0632829 26.5178 0 26.2443 0C25.9717 0 25.548 0.0632829 25.4579 0.373711C25.4467 0.41199 25.4422 0.450107 25.4432 0.488712C25.4052 0.487734 25.3665 0.491888 25.3283 0.503087C25.018 0.593002 24.9541 1.01697 24.9541 1.28977C24.9541 1.56261 25.018 1.98637 25.3277 2.07673C25.3612 2.08618 25.3954 2.09082 25.4283 2.09131L25.3831 2.2342C24.996 2.50627 24.7423 2.95593 24.7423 3.46512C24.7423 3.59458 24.7591 3.7218 24.7916 3.8449C24.6829 3.87009 24.5808 3.90096 24.4763 3.93254C24.4269 3.94747 24.377 3.96256 24.3256 3.97729L24.216 4.00881C24.2111 4.00173 24.2062 3.99488 24.2008 3.98853C24.1173 3.86596 24.0262 3.74969 23.9263 3.64882C23.5927 3.3125 23.1343 3.27104 22.6947 3.38234C22.2214 3.50222 21.7649 3.83122 21.855 4.37951L21.8753 4.50563C21.8669 4.51172 21.8585 4.51788 21.8499 4.52412C21.6926 4.63895 21.5019 4.77819 21.3677 4.90951C20.7852 5.48203 20.4035 6.16467 20.3339 6.98502C20.3041 7.33353 20.3349 7.70524 20.4883 7.97393C20.4685 7.98297 20.4482 7.9925 20.4294 8.0037C20.264 8.09801 20.1388 8.27287 20.1617 8.47017C20.1696 8.53448 20.1924 8.59601 20.2298 8.64972C20.3007 8.75202 20.4314 8.81114 20.5545 8.80797C20.6243 8.81188 20.7842 8.9711 20.8312 9.02217C21.1255 9.34157 21.3414 9.73984 21.5493 10.1233C21.5717 10.1647 21.594 10.2058 21.6163 10.2467C21.7042 10.4079 21.8449 10.5493 22.01 10.6224C22.104 10.6639 22.1133 10.6944 22.0738 10.7813C22.0321 10.8713 22.0081 10.9706 22.0081 11.0778C22.0081 11.6962 22.8759 12.0237 23.3575 12.1683C23.6022 12.2411 23.8576 12.3009 24.1187 12.3498C23.8618 13.1079 23.4129 13.7785 22.7078 14.2352L22.7059 14.2367C22.5095 14.0469 22.3259 13.8471 22.1515 13.6386C22.692 13.461 23.0441 13.0541 23.2866 12.4316C22.9484 12.5996 22.573 12.7039 22.2042 12.6946C21.9067 12.6872 21.6012 12.5976 21.3194 12.4816C20.9082 11.8288 20.5458 11.1354 20.1839 10.4431C19.7003 9.51791 19.2178 8.59485 18.6218 7.77382C17.8757 6.74684 16.9071 5.60339 15.6715 5.17743L15.58 5.14571L15.4903 5.18183C14.1695 5.71525 12.93 6.5837 12.1717 7.81071C11.4942 8.9066 11.2975 10.1522 11.5243 11.4156L11.5933 11.8037L11.9223 11.5855C12.1909 11.407 12.4644 11.2368 12.7432 11.0749L12.8618 11.0062L12.9132 10.9772C13.2175 10.8079 13.5291 10.6441 13.8444 10.4948L14.0611 10.3928L14.0576 10.3835C14.4093 10.2274 14.7744 10.0892 15.1369 9.96148L15.4043 9.86639L15.2859 9.60853C15.0157 9.02335 14.8387 8.39125 14.855 7.77655C15.8173 8.41939 16.5757 9.62442 17.0868 10.7295C16.8208 10.7525 16.5649 10.827 16.359 10.9872L16.2218 10.9486C15.8351 10.8382 15.4105 10.974 15.1689 11.2671C14.5618 11.2097 13.9432 11.3745 13.5033 11.811C13.1049 12.2064 12.9489 12.7262 12.9916 13.2561C13.0075 13.4595 13.0449 13.6286 13.1094 13.7876C12.6519 13.5253 12.3606 13.1296 12.1392 12.5466C12.1 13.3148 12.1798 14.0802 12.754 14.6488C13.2773 15.1675 14.0535 15.4146 14.8226 15.5434C14.6445 15.9925 14.7198 16.492 14.921 16.9054C15.1802 17.4364 15.644 17.8757 16.2186 18.0355C16.4243 17.4657 16.8783 17.1245 17.5263 17.1902C18.1741 17.2554 18.7698 17.7424 18.9091 18.3869C19.0214 18.9108 18.8617 19.2957 18.5388 19.6464C19.1755 19.6203 19.6644 19.304 19.9585 18.7404C19.9915 18.6778 20.021 18.6133 20.0465 18.5471C20.5977 19.0877 20.9884 19.7226 21.2283 20.4607C21.4232 21.0608 21.5069 21.69 21.5262 22.3193C21.4574 22.3519 21.3889 22.3846 21.3203 22.4174C21.2516 22.4502 21.1829 22.483 21.114 22.5157C20.678 22.7212 20.0566 23.0122 19.5728 23.0341C19.2749 23.0481 18.94 22.9695 18.6989 22.7873L18.5678 22.6883L18.423 22.7646C18.0363 22.9665 17.6888 23.436 17.6121 23.8655L17.5787 24.0529L17.7475 24.1408C18.5088 24.5365 19.0758 25.7664 19.088 26.6173C19.0246 26.6371 18.9591 26.6508 18.8929 26.6586C18.6255 26.6912 18.3522 26.6263 18.1243 26.4834C17.6108 26.1616 17.0253 25.9323 16.4094 25.9947C15.7888 26.0568 15.2523 26.3965 14.793 26.7988C14.724 26.8603 14.5486 26.9829 14.4621 26.8933C14.3337 26.7602 14.4294 26.5389 14.5244 26.4143C14.9872 25.8096 14.9091 24.8896 14.3332 24.387C14.225 24.2927 14.087 24.1027 14.1862 23.9596C14.2863 23.8155 14.4707 23.8448 14.6018 23.9159C15.3954 24.3469 16.5186 24.07 17.0114 23.3078C17.5765 22.4346 17.3719 21.2242 16.7772 20.3472C16.387 19.7718 15.8306 19.351 15.2768 18.9323C14.6596 18.4656 14.0457 18.0014 13.6689 17.3283C13.3888 16.8279 13.2752 16.3298 13.4254 15.7613C13.1687 15.8629 12.9545 15.9853 12.7806 16.1279C11.4605 14.2776 10.4054 11.8405 9.98264 9.61529C9.89736 9.16568 9.83824 8.71113 9.81225 8.25487C9.78758 7.83559 9.42466 7.68097 9.05591 7.81189C8.43314 8.03249 7.96048 8.52849 7.62578 9.08313C7.43068 9.40622 7.30175 9.7579 7.23464 10.1294C7.03082 11.2514 7.39855 12.4572 7.85334 13.5056C7.81917 13.4863 7.78407 13.469 7.74791 13.4541C7.50899 13.3525 7.22971 13.3447 7.00643 13.489C6.8086 13.6171 6.7175 13.8158 6.69661 14.03C6.35291 13.4593 6.04599 12.8734 5.79114 12.2743C5.68189 12.0188 5.48776 11.7802 5.19362 11.7494C5.03041 11.7328 4.87582 11.7861 4.74466 11.8811C3.46764 12.8028 3.40248 14.6607 4.16016 15.9306C4.40336 16.3376 4.69583 16.7215 5.0065 17.0886C4.80871 17.0541 4.60673 17.0929 4.4451 17.2165C4.22443 17.3855 4.1361 17.6625 4.16375 17.9328C4.16843 17.9773 4.17552 18.0208 4.18562 18.064C3.65011 17.5758 3.15 17.0614 2.70555 16.5222C2.53765 16.3186 2.29886 16.1473 2.02056 16.192C1.86756 16.2172 1.74023 16.3036 1.6431 16.4223C0.697116 17.5768 1.14519 19.2573 2.13609 20.2254C2.51941 20.5996 2.96088 20.9257 3.41111 21.2288C3.25812 21.249 3.11742 21.3171 3.01533 21.4395C2.82267 21.6703 2.84092 21.9922 2.96292 22.2508C2.97986 22.286 2.99819 22.3201 3.01838 22.3531C2.35167 22.0303 1.71522 21.6617 1.12943 21.2448C0.926099 21.101 0.665638 21.0187 0.429488 21.1362C0.295877 21.2024 0.202337 21.3186 0.148013 21.4561C-0.345993 22.7083 0.463572 23.9883 1.58471 24.5485C2.15433 24.833 2.78753 25.0171 3.40334 25.1821C3.22904 25.2851 3.10199 25.4536 3.09718 25.6707C3.09128 25.9257 3.18523 26.1194 3.33419 26.2613C2.57447 26.1599 1.81748 26.0022 1.08932 25.7675C0.858948 25.693 0.595961 25.6915 0.409696 25.8686C0.304591 25.9672 0.251571 26.1011 0.240413 26.2435C0.209382 26.6335 0.290827 27.0143 0.475871 27.3589C0.861269 28.0767 1.64913 28.5617 2.44106 28.6955C3.07796 28.8025 3.74866 28.7866 4.39204 28.7629C4.5103 28.7591 4.62864 28.7522 4.74706 28.7434C4.60624 28.8948 4.53652 29.0944 4.61903 29.3232C4.69465 29.533 4.84597 29.6678 5.03041 29.7455C4.26946 29.9103 3.5108 30.016 2.78394 30.0422C2.55761 30.0509 2.32472 30.1306 2.21391 30.3433C2.15156 30.4635 2.14521 30.5968 2.17775 30.727C2.46769 31.8746 3.78584 32.3457 4.85782 32.1741C5.16626 32.124 5.48202 32.0236 5.77653 31.9206C6.00494 31.8408 6.22981 31.7535 6.45484 31.6661C6.54816 31.6299 6.6415 31.5936 6.73514 31.5579C6.81243 31.5286 6.8889 31.4978 6.96583 31.4668C6.92698 31.6495 6.98497 31.8477 7.16618 31.9858C7.26689 32.0628 7.37851 32.1055 7.49302 32.1221C7.02459 32.3897 6.52973 32.6264 5.99777 32.8283C5.79485 32.9058 5.61237 33.0533 5.58114 33.2807C5.56302 33.4099 5.6002 33.5357 5.67224 33.6432C5.92655 34.0209 6.27391 34.2925 6.73119 34.3646C7.61715 34.5051 8.57783 33.8378 9.21685 33.2905C9.41932 33.1174 9.62013 32.9388 9.818 32.7571C9.81694 32.8427 9.83881 32.93 9.89162 33.0152C9.93039 33.0777 9.98264 33.1298 10.0436 33.1715C10.1582 33.2494 10.2956 33.2807 10.4314 33.2706C10.0982 33.6355 9.73447 33.9745 9.32717 34.2769C9.1374 34.4186 8.99507 34.6559 9.0808 34.896C9.11875 35.0037 9.19649 35.0869 9.29675 35.139C10.3357 35.6802 11.4167 35.1754 12.0961 34.3333C12.353 34.0146 12.5807 33.6638 12.787 33.2953C12.9032 33.4577 13.1446 33.5034 13.3243 33.4577C13.1553 33.7481 12.9565 34.0414 12.7172 34.3519C12.5034 34.6288 12.5323 34.9954 12.8742 35.1405C13.2652 35.3129 13.6824 35.3634 14.0763 35.1703C14.587 34.9202 14.8866 34.3421 15.0794 33.8336C15.1938 33.5329 15.2822 33.2245 15.3687 32.9148L15.3702 32.9093C15.3746 32.8935 15.3789 32.8781 15.3826 32.862C15.5331 33.0225 15.7131 33.0911 15.9307 32.9761C15.8748 33.1932 15.8103 33.4098 15.7436 33.6245C15.6464 33.9393 15.7639 34.2614 16.1205 34.2981L16.1312 34.2998H16.1417C16.6165 34.3095 17.0681 34.1833 17.3783 33.8042C17.6982 33.415 17.7759 32.8674 17.7917 32.3797C17.7974 32.2136 17.7956 32.048 17.7912 31.8826C17.8538 31.9159 17.9407 31.9407 18.0131 31.9425C18.1251 31.9449 18.222 31.8997 18.2992 31.8294C18.3039 32.0067 18.3046 32.1838 18.3037 32.3621C18.2933 32.5467 18.3436 32.732 18.5139 32.8303C18.6778 32.9245 18.87 32.8877 19.0358 32.8229C19.0532 32.8166 19.07 32.8093 19.0861 32.8023L19.0886 32.8012L19.0893 33.1153C19.0893 33.6237 18.914 34.4491 18.3974 34.6866C18.3238 34.7203 18.246 34.7392 18.1651 34.7443L17.8984 34.7584L17.9209 35.0244C17.9571 35.445 18.0393 35.8401 18.1607 36.2121C17.8175 36.2309 17.4763 36.1737 17.1456 36.0123C16.6433 35.7666 16.2408 35.5735 15.6661 35.546C15.0391 35.5163 14.3815 35.739 13.9338 36.1862C13.2578 36.8616 13.1728 37.7601 13.0883 38.6531C13.0831 38.7086 13.0778 38.7641 13.0724 38.8195C13.0096 39.466 12.7012 39.857 12.2154 40.1806C12.4645 40.2886 12.7097 40.3484 12.9549 40.3572C13.0668 40.3608 13.1965 40.3599 13.3054 40.3332C13.2739 41.0363 13.0738 41.727 12.7102 42.3315C12.5255 42.638 12.5837 43.0122 12.951 43.1424C13.5982 43.3715 14.6342 43.458 15.1139 42.8615L15.1183 42.8562L15.121 42.858C15.4592 43.1924 15.7445 43.8366 15.7083 44.3322C15.5857 44.3373 15.4271 44.3469 15.2717 44.3564C15.14 44.3644 15.0105 44.3723 14.9073 44.3771C14.7753 44.3833 14.6395 44.3902 14.5011 44.3972C13.7428 44.4358 12.9055 44.4785 12.1829 44.415C11.5847 44.3625 10.691 44.173 10.2339 43.7524C10.1494 43.6756 10.0771 43.5901 10.0141 43.4973C10.6543 43.0425 11.1548 42.4126 11.4531 41.6699C11.8654 40.6481 11.8542 39.5139 11.4223 38.5003C10.9906 37.4866 10.1804 36.6921 9.1587 36.2808C8.13628 35.8693 7.00268 35.8802 5.98816 36.312C4.97445 36.7443 4.18085 37.5534 3.76915 38.5753C3.51728 39.202 3.42333 39.8705 3.48832 40.5279C2.9496 41.1665 2.76094 41.8651 3.39258 42.6178C3.44255 42.6781 3.48999 42.7228 3.54814 42.7748C3.50661 42.8281 3.56879 42.9785 3.62865 43.0909C3.78434 43.383 3.9787 43.6641 4.17963 43.926C4.69359 44.5955 5.46679 45.4874 6.2485 45.8303C6.75908 46.0553 7.35717 46.2006 7.97477 46.1027C9.03397 45.9339 10.4931 45.8341 11.6474 46.0706C12.088 46.1614 12.5265 46.2806 12.964 46.3995C13.2097 46.4663 13.455 46.533 13.7004 46.5946C13.9319 46.6517 14.1644 46.7069 14.3983 46.7547C15.3836 46.9572 16.3698 47.0257 17.3181 46.6209C17.8073 46.4123 18.245 46.1041 18.5542 45.6653C18.6606 45.5139 18.7332 45.343 18.7076 45.1545C18.6826 44.9677 18.5678 44.8148 18.4575 44.6678C18.4522 44.6607 18.4469 44.6537 18.4416 44.6466C18.1004 44.1918 17.9096 43.6992 17.8569 43.1763C18.0537 43.1248 18.2374 43.0415 18.4167 42.9316C18.5652 42.841 18.6971 42.7269 18.7439 42.5516C18.7889 42.3831 18.7372 42.216 18.6875 42.0552L18.6819 42.037C18.6768 42.019 18.6713 42.0013 18.6658 41.9835C18.6617 41.9704 18.6576 41.9573 18.6538 41.9442C18.6531 41.9419 18.6524 41.9396 18.6518 41.9374C18.6506 41.9328 18.6494 41.9285 18.6477 41.9244C18.73 41.9401 18.8197 41.9345 18.9096 41.9041C19.0053 41.8724 19.0786 41.8204 19.1303 41.7545C19.3404 42.1594 19.6115 42.3946 20.0906 42.3887C20.3398 42.3865 20.6373 42.3257 20.8785 42.2585C21.2915 42.143 21.3843 41.7725 21.1342 41.4463C20.8917 41.1285 20.709 40.8105 20.563 40.4478C20.8099 40.494 21.0758 40.4866 21.3672 40.4197C20.964 40.1256 20.7122 39.858 20.6836 39.4081C20.7573 39.4623 20.8321 39.5155 20.9078 39.5673C21.5096 39.983 22.1453 40.2951 22.8037 40.5716C22.7298 41.3924 22.2237 42.3476 21.5274 42.7494C21.2107 42.9321 20.8673 43.0001 20.5038 42.9544L20.2069 42.9174L20.2127 43.2168C20.2254 43.8609 20.6399 44.3694 21.1919 44.605C20.7366 45.3958 20.1654 46.1156 19.5103 46.7508C18.7156 47.5211 17.7999 48.1691 16.8169 48.6776C16.4379 48.8744 16.0537 49.0534 15.6556 49.2085C14.7781 49.5508 13.6696 49.7983 12.7322 49.5914C12.5669 49.5554 12.4001 49.5047 12.2455 49.4356C11.9521 49.305 11.6642 49.0971 11.7023 48.7391C11.7338 48.4411 12.04 48.2997 12.308 48.2887C12.7708 48.2693 13.047 48.5563 13.2204 48.9139C13.4849 48.0936 13.1227 47.4116 12.3402 47.0849C11.9363 46.9161 11.4842 46.8638 11.0507 46.9181C10.5502 46.9818 10.0636 47.1879 9.69318 47.534C8.8745 48.3001 8.99076 49.565 9.82846 50.2667C10.5359 50.8602 11.6654 51.0983 12.5664 51.1483C13.8058 51.2167 15.0091 50.9742 16.139 50.4651C16.3864 50.354 16.6281 50.2327 16.866 50.1028C16.867 50.1306 16.8706 50.1602 16.8777 50.1897C16.917 50.3619 17.0492 50.4953 17.2118 50.5568C16.3873 51.1041 15.4912 51.5887 14.59 51.9937C14.3656 52.0941 14.1609 52.2848 14.1236 52.5388C14.0751 52.8709 14.3245 53.1104 14.5947 53.251C15.2628 53.5979 16.0051 53.8625 16.7622 53.6767C17.2128 53.5662 17.603 53.3145 17.9596 53.026L17.9635 53.0228L17.9672 53.0199L18.0077 52.9847C18.1014 52.903 18.1951 52.8214 18.2906 52.7417L18.2996 52.7346L18.3084 52.7256C18.725 52.3092 19.128 51.8813 19.5166 51.44C19.5564 51.5591 19.6404 51.6684 19.7655 51.7479C19.8753 51.8181 19.9857 51.8476 20.0927 51.8444C19.6907 52.3869 19.2843 52.9244 18.853 53.4447C18.697 53.6325 18.5565 53.8626 18.5736 54.117C18.589 54.3398 18.7192 54.5126 18.8957 54.6384C19.489 55.0643 20.178 55.2165 20.8955 55.2561C21.2242 55.2741 21.5213 55.2007 21.7669 54.9743C21.9936 54.7661 22.1465 54.4584 22.2745 54.1814C22.5592 53.5684 22.8223 52.9437 23.0699 52.3129C23.1539 52.5268 23.3339 52.697 23.6002 52.7642C23.8319 52.8219 24.0534 52.7554 24.2332 52.6206L24.2188 52.692C24.1662 52.9581 24.1158 53.2248 24.0654 53.4915C24.0252 53.7043 23.9851 53.917 23.9438 54.1295C23.817 54.7823 23.9813 55.393 24.6262 55.6869C25.5435 56.1044 26.9454 56.1044 27.862 55.6869C28.5075 55.393 28.6719 54.7823 28.5451 54.1295C28.4479 53.6285 28.3485 53.1288 28.2492 52.629L28.2461 52.6138C28.4274 52.7528 28.6522 52.8231 28.8885 52.7642C29.1552 52.697 29.3352 52.5269 29.419 52.3129C29.6661 52.9438 29.9297 53.5684 30.2145 54.1815C30.3419 54.4585 30.4948 54.7662 30.722 54.9743C30.9682 55.2007 31.2641 55.2742 31.5931 55.2561C32.3105 55.2166 32.9997 55.0644 33.5931 54.6385C33.7695 54.5126 33.8995 54.3398 33.9148 54.117C33.9324 53.8626 33.792 53.6325 33.6357 53.4448C33.2049 52.9245 32.7977 52.3865 32.3952 51.8444C32.5115 51.8468 32.6228 51.8128 32.7232 51.748C32.8487 51.6684 32.932 51.5592 32.9721 51.44C33.3609 51.8813 33.7639 52.3093 34.1803 52.7256L34.1891 52.7347L34.1979 52.7417C34.3067 52.8326 34.4138 52.926 34.5204 53.0191L34.5215 53.02L34.5254 53.0228L34.5291 53.0261C34.8861 53.3145 35.2764 53.5662 35.7268 53.6767C36.4839 53.8626 37.2263 53.598 37.894 53.251C38.1642 53.1105 38.4135 52.8709 38.3651 52.5388C38.3275 52.2848 38.1236 52.0941 37.8987 51.9937C36.9972 51.5887 36.1014 51.1041 35.2769 50.5569C35.4393 50.4953 35.5714 50.3619 35.611 50.1897C35.618 50.1602 35.6219 50.1307 35.6229 50.1029C35.8605 50.2327 36.1023 50.3541 36.3497 50.4651C37.4797 50.9742 38.6826 51.2167 39.9226 51.1483C40.823 51.0983 41.9526 50.8603 42.6606 50.2667C43.4978 49.565 43.614 48.3002 42.7957 47.534C42.4252 47.1879 41.9384 46.9818 41.4385 46.9182C41.0048 46.8639 40.5524 46.9161 40.1483 47.0849C39.3659 47.4116 39.0032 48.0937 39.2687 48.9139C39.4416 48.5564 39.7181 48.2694 40.1807 48.2887C40.4488 48.2998 40.7554 48.4412 40.7866 48.7391C40.824 49.0972 40.5367 49.305 40.2432 49.4356C40.0891 49.5048 39.9226 49.5554 39.757 49.5914C38.8191 49.7984 37.7103 49.5509 36.8333 49.2086C36.4349 49.0535 36.0508 48.8744 35.672 48.6776C34.6892 48.1691 33.7731 47.5211 32.9789 46.7509C32.3233 46.1157 31.7518 45.3958 31.2963 44.6051C31.8493 44.3694 32.263 43.8609 32.276 43.2168L32.2816 42.9174L31.9846 42.9545C31.6221 43.0002 31.2783 42.9321 30.9613 42.7494C30.6853 42.5906 30.4395 42.344 30.2386 42.0545C30.5596 41.8745 30.8269 41.6013 31.0289 41.2623C30.4198 41.1587 30.093 40.9562 29.8161 40.5159C30.4271 40.2536 31.0189 39.9551 31.5806 39.5673C31.6566 39.5155 31.7315 39.4623 31.8056 39.4081C31.7775 39.858 31.525 40.1257 31.1215 40.4197C31.4131 40.4867 31.6791 40.494 31.9262 40.4478C31.7795 40.8105 31.5968 41.1285 31.3547 41.4463C31.1049 41.7725 31.1969 42.143 31.6106 42.2585C31.8514 42.3257 32.149 42.3865 32.3978 42.3887C32.8777 42.3946 33.1484 42.1594 33.3589 41.7545C33.4104 41.8204 33.4837 41.8724 33.5795 41.9041C33.6691 41.9344 33.7584 41.9401 33.8407 41.9244C33.8385 41.9305 33.8374 41.9371 33.8352 41.9442C33.8303 41.9611 33.825 41.9779 33.8196 41.9949C33.8152 42.0089 33.8107 42.0229 33.8065 42.037L33.8006 42.0563C33.7512 42.2167 33.6999 42.3834 33.745 42.5516C33.792 42.7269 33.9236 42.841 34.0718 42.9316C34.2516 43.0415 34.4352 43.1248 34.6319 43.1763C34.5791 43.6992 34.3884 44.1917 34.047 44.6466C34.0413 44.6541 34.0357 44.6617 34.03 44.6693C33.9203 44.8158 33.8061 44.9683 33.7814 45.1545C33.7555 45.343 33.8281 45.5139 33.9355 45.6653C34.2437 46.1041 34.6821 46.4123 35.1709 46.6209C36.1189 47.0257 37.1049 46.9572 38.0904 46.7547C38.3246 46.7069 38.5569 46.6517 38.7884 46.5946C39.0336 46.533 39.2789 46.4664 39.5244 46.3996C39.9622 46.2807 40.4008 46.1614 40.8416 46.0706C41.9953 45.8341 43.4546 45.9339 44.5139 46.1027C45.132 46.2006 45.7294 46.0553 46.2408 45.8303C47.0219 45.4874 47.7949 44.5955 48.3092 43.926C48.5102 43.6641 48.7048 43.383 48.8599 43.0909C48.9203 42.9785 48.982 42.8281 48.9406 42.7748C48.9989 42.7228 49.0463 42.6781 49.0961 42.6178C49.7282 41.8651 49.5394 41.1666 49.0004 40.5274C49.0683 39.8429 48.964 39.1471 48.6887 38.5003C48.2572 37.4866 47.447 36.6928 46.4255 36.2808C45.4031 35.8693 44.2689 35.8803 43.2549 36.3121C42.2411 36.7444 41.4473 37.5535 41.0354 38.5753C40.6243 39.5977 40.6348 40.7319 41.0666 41.7452C41.3689 42.4566 41.8571 43.0592 42.4748 43.4973C42.4118 43.5901 42.3393 43.6756 42.255 43.7525C41.7974 44.173 40.9042 44.3626 40.3058 44.4151C39.5836 44.4784 38.7469 44.4359 37.9884 44.3973C37.8498 44.3902 37.7137 44.3833 37.5815 44.3772C37.4781 44.3724 37.3484 44.3645 37.2164 44.3564C37.0612 44.3469 36.903 44.3373 36.7806 44.3322C36.7449 43.8367 37.0302 43.1924 37.3684 42.8581L37.3704 42.8562L37.3753 42.8615C37.8547 43.458 38.891 43.3715 39.5377 43.1424C39.9047 43.0122 39.9634 42.6381 39.779 42.3316C39.4144 41.7271 39.2146 41.0364 39.1833 40.3333C39.2917 40.3599 39.4229 40.3609 39.5342 40.3572C39.779 40.3485 40.0247 40.2886 40.2733 40.1807C39.7878 39.857 39.4791 39.466 39.4165 38.8195C39.4112 38.7644 39.4059 38.7093 39.4007 38.6541C39.3162 37.7608 39.2311 36.8618 38.5547 36.1863C38.108 35.739 37.4497 35.5163 36.8223 35.5461C36.2476 35.5735 35.8459 35.7667 35.3436 36.0124C35.0124 36.1738 34.6716 36.2309 34.328 36.2122ZM26.0042 23.2646L26.1569 23.0072L25.8987 23.1595C25.7031 23.2748 25.7031 22.5363 25.8987 22.6515L26.1569 22.8039L26.0042 22.5468C25.8888 22.3509 26.6275 22.3509 26.512 22.5468L26.3594 22.8039L26.6168 22.6515C26.8126 22.5363 26.8126 23.2748 26.6168 23.1595L26.3594 23.0072L26.512 23.2646L26.5124 23.2653C26.5156 23.2721 26.5184 23.278 26.5198 23.2839C26.439 23.2528 26.3506 23.2357 26.258 23.2357C26.1654 23.2357 26.0767 23.2528 25.9954 23.2839C25.9974 23.2777 26 23.2717 26.0042 23.2646ZM25.6484 23.9726C25.6484 24.1316 25.7097 24.2766 25.8093 24.3851L25.8071 24.3641C25.7855 24.1983 25.9188 23.9772 26.0998 23.9772H26.4158C26.597 23.9772 26.7303 24.1983 26.7092 24.3641L26.7067 24.3851C26.8066 24.2766 26.8674 24.1316 26.8674 23.9726C26.8674 23.6358 26.5946 23.3625 26.258 23.3625C25.9213 23.3625 25.6484 23.6358 25.6484 23.9726ZM28.2848 24.4002C28.1368 24.3189 27.9828 24.3851 27.8704 24.4969C27.5335 24.833 27.3196 25.2794 27.1797 25.7383C27.1032 25.7655 27.0363 25.8309 26.9919 25.9313C26.9777 25.8656 26.9496 25.8055 26.902 25.7596C26.9875 25.2328 27.124 24.6073 27.4342 24.2578C27.6652 23.9974 28.1801 24.0004 28.2848 24.4002ZM24.2311 24.4002C24.3786 24.3289 24.5227 24.3851 24.6346 24.4969C24.9709 24.832 25.1854 25.277 25.3243 25.7345C25.4064 25.7591 25.4772 25.8263 25.5231 25.9313C25.537 25.87 25.5627 25.8136 25.6044 25.7684C25.519 25.2404 25.3834 24.6088 25.0711 24.2579C24.84 23.9975 24.3357 24.0004 24.2311 24.4002ZM25.9329 24.3482L26.0614 25.3488C26.1263 25.332 26.1965 25.3283 26.2575 25.3283C26.3196 25.3283 26.3896 25.332 26.4541 25.3488L26.5836 24.3482C26.596 24.2474 26.5086 24.1047 26.4158 24.1047H26.0997C26.0072 24.1047 25.9202 24.2474 25.9329 24.3482ZM25.7182 25.6942C25.6349 25.1956 25.5104 24.6396 25.2413 24.2695C25.3424 24.241 25.4479 24.216 25.5561 24.1958C25.6049 24.3504 25.7043 24.483 25.8338 24.5746L25.9405 25.4023C25.9107 25.425 25.8856 25.4531 25.8679 25.4893C25.8394 25.5495 25.8398 25.6148 25.8552 25.6781C25.8093 25.6736 25.763 25.6781 25.7182 25.6942ZM27.2618 24.2661C27.1646 24.239 27.0637 24.2155 26.9594 24.1958C26.9106 24.3504 26.8116 24.4829 26.6814 24.5745L26.5752 25.4029C26.6052 25.425 26.6297 25.4531 26.6471 25.4892C26.6765 25.5495 26.676 25.6147 26.6597 25.678C26.7013 25.6744 26.7427 25.677 26.7836 25.6889C26.8663 25.1905 26.9919 24.6349 27.2618 24.2661ZM28.2086 27.7056C28.2086 27.7601 28.1835 27.8128 28.1378 27.8622C27.6487 27.5688 26.9875 27.395 26.258 27.395C25.528 27.395 24.8669 27.5688 24.3786 27.8622C24.3322 27.8128 24.3073 27.7601 24.3073 27.7056C24.3073 27.6633 24.3188 27.6386 24.3291 27.6166C24.3432 27.5864 24.3549 27.5613 24.3315 27.5032C24.352 27.5005 24.372 27.4951 24.3931 27.4871C24.4853 27.4524 24.552 27.3811 24.5923 27.2954C24.7955 27.3684 24.9977 27.2936 25.111 27.1015C25.2026 27.1481 25.3079 27.1664 25.4104 27.1422C25.5194 27.1173 25.6092 27.0516 25.675 26.9666C25.7615 27.0286 25.8652 27.0647 25.9747 27.0565C26.0833 27.0485 26.1807 26.9989 26.2575 26.9258C26.3344 26.9989 26.4319 27.0485 26.5408 27.0565C26.6504 27.0647 26.7542 27.0286 26.8402 26.9666C26.9063 27.0516 26.9962 27.1173 27.1044 27.1422C27.207 27.1664 27.3127 27.1481 27.4051 27.102C27.5174 27.2932 27.7194 27.3684 27.9224 27.2954C27.9639 27.3811 28.0295 27.4524 28.1221 27.4871C28.1399 27.4939 28.1575 27.4991 28.1753 27.5015C28.1502 27.5567 28.1645 27.5824 28.1814 27.613C28.1943 27.6362 28.2086 27.6621 28.2086 27.7056ZM23.4982 25.9728C23.5089 26.0426 23.5222 26.0955 23.5441 26.1626C23.5959 26.146 23.6565 26.1482 23.7078 26.1743C23.7214 26.1003 23.7373 26.0273 23.7556 25.9545C23.6743 25.9469 23.5825 25.9535 23.4982 25.9728ZM23.4855 25.8458C23.4797 25.7078 23.4972 25.5693 23.5371 25.4367C23.5835 25.4301 23.633 25.4259 23.6835 25.424C23.7637 25.4221 23.8467 25.4255 23.9256 25.434C23.8712 25.5623 23.826 25.6951 23.7881 25.8304C23.6926 25.8182 23.5856 25.8253 23.4855 25.8458ZM23.8411 24.8935C23.7312 25.0223 23.6448 25.1604 23.5844 25.3038C23.6155 25.3009 23.6474 25.299 23.6794 25.298C23.7801 25.2948 23.8838 25.3004 23.9796 25.3126C24.0424 25.1788 24.1154 25.0501 24.2002 24.927C24.0826 24.9072 23.963 24.896 23.8411 24.8935ZM23.9554 24.7715C24.0404 24.6877 24.1356 24.6088 24.2407 24.5357L24.2836 24.5145C24.3672 24.4745 24.4436 24.5033 24.5089 24.556C24.4265 24.6384 24.3518 24.7241 24.2831 24.8129C24.1757 24.7922 24.0665 24.7782 23.9554 24.7715ZM24.8542 24.9836C24.779 24.8625 24.6942 24.7489 24.599 24.6449C24.5349 24.7084 24.4759 24.7745 24.421 24.8427C24.4961 24.861 24.5701 24.8817 24.6432 24.9057C24.7145 24.9292 24.7851 24.955 24.8542 24.9836ZM24.9584 25.1676C25.0521 25.3471 25.127 25.5378 25.1878 25.7317C25.1752 25.7349 25.1619 25.7388 25.149 25.7442C25.1347 25.7354 25.1203 25.7272 25.1062 25.7191L25.106 25.7189C25.094 25.677 25.0735 25.6379 25.0408 25.6057C24.9646 25.5302 24.8596 25.5246 24.7597 25.5431C24.7385 25.5339 24.7172 25.5246 24.696 25.5161C24.7653 25.3907 24.8452 25.2708 24.9367 25.157L24.9584 25.1676ZM24.365 25.9525C24.3166 25.8277 24.3782 25.7136 24.4876 25.6455C24.4977 25.624 24.5079 25.603 24.5186 25.582C24.3675 25.5261 24.2131 25.4824 24.0549 25.4531L24.0541 25.4536C23.9987 25.5828 23.9526 25.7153 23.9134 25.8517C24.0648 25.8817 24.2124 25.9239 24.357 25.9765L24.365 25.9525ZM24.2344 26.0676C24.1906 26.1113 24.1692 26.1645 24.1635 26.2211C24.0549 26.1544 23.9237 26.1742 23.8367 26.2649L23.8337 26.2611L23.8296 26.2563L23.8296 26.2563L23.8295 26.2563C23.8273 26.2537 23.825 26.251 23.8228 26.2483C23.8392 26.156 23.8585 26.0649 23.881 25.9747C24.0009 25.9977 24.1188 26.0292 24.2344 26.0676ZM24.8168 25.105C24.7257 25.2205 24.6468 25.3421 24.577 25.4684C24.4251 25.4117 24.269 25.3661 24.1091 25.3341C24.174 25.2019 24.2492 25.0745 24.3367 24.953C24.4265 24.9729 24.5162 24.9977 24.6036 25.0266C24.6757 25.0501 24.7465 25.0761 24.8168 25.105ZM27.6997 25.105C27.7903 25.2205 27.8693 25.3421 27.939 25.4684C28.0912 25.4117 28.2468 25.3661 28.4068 25.3341C28.342 25.2019 28.267 25.0745 28.1796 24.9531C28.089 24.9729 28.0001 24.9978 27.9119 25.0266C27.8401 25.0501 27.7694 25.0761 27.6997 25.105ZM27.5361 25.1768C27.4462 25.3526 27.3732 25.5394 27.3129 25.7285C27.3312 25.7317 27.3488 25.7373 27.3666 25.7442C27.3747 25.739 27.3832 25.7342 27.3916 25.7293L27.4039 25.7222L27.4094 25.7189C27.4211 25.677 27.442 25.6379 27.4748 25.6056C27.5515 25.5302 27.6558 25.5246 27.7565 25.5431L27.771 25.5368C27.787 25.5297 27.8038 25.5224 27.8204 25.5161C27.7508 25.3907 27.6707 25.2708 27.5789 25.157L27.576 25.1584C27.5634 25.1646 27.55 25.1711 27.5361 25.1768ZM27.6404 24.9922C27.7183 24.8649 27.8079 24.7455 27.9088 24.637C27.9755 24.7032 28.038 24.7714 28.0952 24.8426C28.0204 24.8609 27.9464 24.8817 27.8724 24.9056C27.7945 24.9315 27.7173 24.9606 27.6404 24.9922ZM28.2207 24.5118C28.1443 24.469 28.0642 24.4993 28.0001 24.5491C28.0849 24.6332 28.1628 24.721 28.2329 24.8128C28.3399 24.7921 28.449 24.7781 28.5607 24.7714C28.4852 24.6976 28.4024 24.6275 28.3113 24.5613L28.2207 24.5118ZM28.6752 24.8935C28.7843 25.0222 28.8708 25.1604 28.9311 25.3038C28.8999 25.3009 28.8681 25.2989 28.8364 25.2979C28.736 25.2948 28.6324 25.3004 28.5362 25.3126C28.4733 25.1787 28.4002 25.05 28.3159 24.927C28.4336 24.9072 28.5528 24.8959 28.6752 24.8935ZM29.031 25.7911C29.031 25.6706 29.0134 25.5522 28.979 25.4367C28.9324 25.4301 28.8828 25.4259 28.8325 25.424C28.7523 25.4221 28.6688 25.4255 28.5907 25.434C28.6444 25.5622 28.6898 25.6951 28.7282 25.8304C28.8229 25.8181 28.9306 25.8253 29.03 25.8458C29.031 25.8277 29.031 25.8091 29.031 25.7911ZM29.0176 25.9727C29.0073 26.0426 28.9905 26.1112 28.9688 26.1783C28.9165 26.162 28.8625 26.1579 28.8083 26.1742C28.7941 26.1002 28.7783 26.0271 28.7607 25.9544C28.8422 25.9468 28.9333 25.9534 29.0176 25.9727ZM28.6793 26.2648C28.6835 26.2594 28.6881 26.2536 28.6928 26.2482C28.6771 26.1559 28.6574 26.0648 28.6356 25.9747C28.5147 25.9977 28.3969 26.0292 28.2817 26.0675C28.3254 26.1117 28.346 26.1644 28.3526 26.2211C28.4085 26.1864 28.4732 26.171 28.545 26.1874C28.5987 26.1996 28.6434 26.2279 28.6793 26.2648ZM28.1506 25.952C28.1637 25.9168 28.1708 25.8802 28.1659 25.8411C28.1572 25.7527 28.0995 25.6907 28.0286 25.646C28.0197 25.628 28.011 25.6097 28.0025 25.5917L28.0023 25.5913L28.0021 25.5909L27.9979 25.582C28.1483 25.526 28.3024 25.4824 28.4612 25.4531L28.4617 25.4536C28.5168 25.5828 28.5638 25.7153 28.6026 25.8516C28.4511 25.8817 28.3034 25.9239 28.1588 25.9764C28.1581 25.9742 28.1573 25.972 28.1566 25.9697C28.1547 25.9638 28.1527 25.9578 28.1506 25.952ZM25.9654 26.9299C26.0946 26.9204 26.2011 26.8275 26.258 26.7157C26.3151 26.8276 26.4218 26.9204 26.5503 26.9299C26.6814 26.9396 26.7986 26.8608 26.8695 26.7545C26.911 26.8757 27.0036 26.9887 27.1332 27.0186C27.2552 27.0469 27.3804 26.9914 27.4606 26.8991C27.4867 27.0181 27.5597 27.138 27.6787 27.1807C27.7912 27.2205 27.9151 27.1783 28.003 27.1042C28.0099 27.2105 28.0623 27.3287 28.1671 27.3682C28.2513 27.4 28.3544 27.3506 28.4164 27.2376L28.4461 27.1831C28.5571 26.9793 28.6667 26.7778 28.8192 26.6119C28.8917 26.5332 28.9764 26.4642 29.052 26.4656C29.0696 26.4661 29.0935 26.4573 29.1035 26.4427C29.156 26.3662 29.029 26.2439 28.8648 26.2915C28.7843 26.3149 28.7342 26.3938 28.7079 26.5314C28.7013 26.5633 28.6729 26.5846 28.6646 26.5296C28.6324 26.3069 28.4455 26.1894 28.286 26.4849C28.1737 26.6949 28.2404 26.8143 28.47 26.7763C28.4917 26.7734 28.5039 26.791 28.4732 26.8086C28.3798 26.8633 28.1805 26.9168 28.1429 26.7099C27.8838 26.8527 27.7249 26.6085 27.7282 26.4679C27.7292 26.4173 27.7463 26.3919 27.7741 26.4579C27.9004 26.7643 28.0985 26.6615 28.1879 26.4317C28.3053 26.1338 28.1474 26.071 27.9084 26.141C27.8433 26.1604 27.8328 26.1242 27.8833 26.0805C28.0673 25.9215 28.1351 25.8008 27.8362 25.6966C27.5368 25.5923 27.4879 25.7266 27.5423 25.9833C27.5502 26.0197 27.5382 26.0815 27.4889 26.0099C27.3091 25.7542 27.1165 25.8202 27.072 26.1142C27.0386 26.3394 27.1614 26.5416 27.4017 26.3314C27.4352 26.3028 27.4571 26.3345 27.421 26.3751C27.3057 26.5079 27.1104 26.6391 26.9308 26.3023C26.7792 26.5832 26.5103 26.5089 26.4131 26.2974C26.384 26.2341 26.3914 26.2285 26.4404 26.2724C26.6661 26.4722 26.8652 26.335 26.8773 26.0766C26.8917 25.7735 26.6695 25.7442 26.4922 25.8849C26.4529 25.9159 26.4196 25.8864 26.4531 25.83C26.5933 25.5928 26.6019 25.456 26.258 25.456C25.9138 25.456 25.9224 25.5928 26.0626 25.83C26.0963 25.8864 26.0636 25.9159 26.024 25.8849C25.8459 25.7442 25.6242 25.7735 25.6389 26.0766C25.6506 26.335 25.8496 26.4722 26.0753 26.2724C26.1242 26.2285 26.132 26.2341 26.1029 26.2974C26.0055 26.5089 25.7368 26.5832 25.5857 26.3023C25.4052 26.6392 25.2103 26.5079 25.0945 26.3751C25.0593 26.3345 25.0805 26.3028 25.1143 26.3314C25.3546 26.5416 25.4777 26.3394 25.4437 26.1142C25.4 25.8202 25.2066 25.7542 25.0273 26.0099C24.9772 26.0815 24.9655 26.0197 24.9736 25.9833C25.0285 25.7266 24.9795 25.5923 24.6798 25.6966C24.3808 25.8008 24.449 25.9215 24.6324 26.0805C24.6825 26.1242 24.6729 26.1603 24.608 26.141C24.3679 26.0709 24.2109 26.1338 24.3274 26.4317C24.4182 26.6615 24.6153 26.7643 24.7418 26.4579C24.7689 26.3918 24.787 26.4173 24.7882 26.4679C24.7912 26.6085 24.6319 26.8527 24.372 26.7099C24.3357 26.9168 24.1356 26.8633 24.0424 26.8086C24.0125 26.7909 24.0243 26.7734 24.0462 26.7763C24.2758 26.8143 24.3424 26.6949 24.2297 26.4849C24.0699 26.1894 23.8836 26.3069 23.8516 26.5296C23.8435 26.5846 23.8147 26.5633 23.8084 26.5314C23.7813 26.3938 23.7312 26.3149 23.6504 26.2915C23.487 26.2439 23.3595 26.3662 23.4122 26.4427C23.4225 26.4573 23.4464 26.4661 23.4648 26.4656C23.539 26.4642 23.6245 26.5332 23.6965 26.6119C23.8504 26.7791 23.9608 26.9823 24.0724 27.1878L24.0995 27.2376C24.161 27.3507 24.2644 27.4 24.3488 27.3682C24.4539 27.3287 24.5061 27.2105 24.5125 27.1042C24.6004 27.1783 24.724 27.2205 24.8366 27.1807C24.9565 27.138 25.0295 27.0181 25.0551 26.8991C25.135 26.9914 25.2608 27.0469 25.3822 27.0186C25.5119 26.9887 25.6044 26.8757 25.6463 26.7545C25.7173 26.8608 25.8338 26.9396 25.9654 26.9299ZM25.7933 36.6247C25.7689 37.0888 25.6197 37.3946 25.4011 37.7495C25.293 37.9265 25.2768 38.083 25.2829 38.2442C25.3002 38.6978 25.4416 39.197 25.6038 39.6337C25.6378 39.726 25.7039 39.8 25.7897 39.856C25.8681 39.801 26.053 39.7629 26.2696 39.7629C26.4384 39.7629 26.588 39.7863 26.6836 39.8227C26.9725 39.4813 27.0572 38.9337 27.0839 38.4274C27.099 38.1443 27.0605 37.979 26.8 37.8696C26.4117 37.7067 25.9006 37.727 25.5381 37.8963C25.7706 37.4987 26.3997 37.4471 26.7918 37.6042C26.6564 37.2649 26.5901 36.9738 26.5436 36.6075C26.2941 36.5913 26.0423 36.5975 25.7934 36.6247L25.7933 36.6247ZM23.5911 37.47C23.5574 37.6363 23.6064 37.8185 23.7147 37.9501C23.5821 37.9299 23.4561 37.9091 23.3369 37.8855C23.2333 37.8063 23.1798 37.6077 23.2023 37.435C23.2685 36.9151 24.2833 36.7048 24.7426 36.6787C24.3175 36.7192 23.6864 36.9984 23.5911 37.47H23.5911ZM25.585 36.6323C25.1207 36.6474 24.4 37.0035 24.3318 37.5042C24.2986 37.7448 24.398 37.9583 24.6303 38.0566C24.7768 38.0686 24.9278 38.0796 25.0819 38.0884C25.0977 37.9485 25.1505 37.7489 25.2303 37.6325C25.4543 37.3071 25.5549 37.0265 25.585 36.6323V36.6323ZM29.1715 36.8614C28.578 36.7454 27.8133 36.6643 26.9593 36.6345C26.9896 37.0279 27.0907 37.3076 27.3134 37.6324C27.3935 37.7477 27.4458 37.9463 27.4617 38.0852C28.115 38.0457 28.6994 37.9749 29.1737 37.8811C29.4606 37.7734 29.8067 37.5364 29.8067 37.3652C29.8067 37.1914 29.4333 36.9483 29.1714 36.8614H29.1715ZM26.244 33.6253C25.4721 33.6253 24.728 33.7211 24.0542 33.8959C23.4401 34.0547 22.8848 34.2791 22.419 34.5561C22.4129 34.3307 22.4388 34.241 22.6283 34.1226C23.6457 33.4868 25.0631 33.3069 26.2441 33.3069C26.9734 33.3069 27.7923 33.3755 28.5516 33.5775C29.0228 33.703 29.3532 33.8139 29.742 34.0574C29.9325 34.1754 29.9576 34.2655 29.9517 34.4904C29.4865 34.2137 29.0486 34.0547 28.4343 33.8959C27.761 33.7211 27.0166 33.6253 26.244 33.6253ZM30.3736 36.4674C30.5902 36.5439 30.7832 36.6308 30.9212 36.7339C30.9076 35.8073 30.2786 34.9054 29.4746 34.4826C29.9682 35.0306 30.3741 35.7299 30.3736 36.4674ZM21.5505 37.023C21.596 36.4808 21.8985 35.671 22.1941 35.4382C21.9589 35.8874 21.8641 36.1748 21.8346 36.6264C22.81 36.0938 24.8303 35.8561 26.2441 35.8561C27.4475 35.8561 28.622 35.964 29.7847 36.2874C29.7755 35.3718 29.4672 34.8621 28.8896 34.2312C28.725 34.1736 28.5512 34.1228 28.3702 34.0767C27.7183 33.9091 26.9964 33.8153 26.2441 33.8153C25.4924 33.8153 24.7703 33.9081 24.1187 34.0767C22.9723 34.3734 22.1477 34.7351 21.6224 35.8111C21.4082 36.2507 21.2842 36.7297 21.2431 37.1512C21.2329 37.2599 21.2367 37.3434 21.2671 37.4479C21.3555 37.752 21.9265 38.0361 22.8021 38.2517C23.4378 38.4072 24.2259 38.5206 25.1054 38.5734C25.0919 38.4801 25.0829 38.3875 25.078 38.2952C24.3729 38.2544 23.7414 38.1777 23.2355 38.0756C22.4191 37.9113 21.9135 37.6636 21.9135 37.3715C21.9135 37.0799 22.4191 36.832 23.2355 36.6671C24.0077 36.5111 25.0716 36.4151 26.2442 36.4151C27.4167 36.4151 28.4809 36.5111 29.2529 36.6671C30.0701 36.832 30.5749 37.0799 30.5749 37.3715C30.5749 37.6636 30.0701 37.9112 29.2529 38.0756C28.7603 38.1755 28.1492 38.2508 27.4666 38.2923C27.4617 38.3844 27.4529 38.4771 27.4392 38.5702C28.2962 38.5155 29.0651 38.4042 29.6864 38.2517L29.7446 38.2375C30.139 38.1416 30.9314 37.9491 31.1789 37.5256C31.3079 37.3044 31.1186 37.1388 30.9363 37.0003C30.6093 36.7527 30.1326 36.5668 29.6554 36.4425C28.6806 36.1887 27.6007 36.0708 26.2442 36.0708C25.1996 36.0708 24.2161 36.1721 23.3767 36.335C22.6496 36.475 21.9765 36.6662 21.5506 37.023H21.5505ZM28.3805 29.1585V29.1585C28.3801 29.1929 28.3796 29.2278 28.3795 29.2629C28.3716 30.6611 28.4096 32.348 28.9895 33.5203C29.1195 33.566 29.2497 33.6171 29.3798 33.6732C29.3848 33.6754 29.3898 33.6776 29.3949 33.6798C29.4015 33.6826 29.408 33.6855 29.4147 33.6884L29.4309 33.6959C28.9703 32.8792 28.8354 31.4134 28.7458 30.44L28.7458 30.4399L28.7436 30.4164C28.703 29.9775 28.6698 29.5442 28.6458 29.0859C28.6349 28.8885 28.5276 28.7439 28.3421 28.6689C28.385 28.8022 28.3828 28.9746 28.3805 29.1585ZM23.9086 28.7906C24.5211 28.2279 25.488 28.0615 26.2719 28.0615C26.7814 28.0615 27.3622 28.1462 27.8839 28.3346C28.1034 28.4142 28.4024 28.5331 28.5856 28.6846C28.4979 28.4362 28.3108 28.2022 27.9977 28.0124C27.5471 27.7384 26.9302 27.5603 26.2441 27.5603C25.5583 27.5603 24.9417 27.7384 24.4913 28.0124C24.0387 28.2869 23.7572 28.6533 23.7525 29.0222C23.7474 29.5053 23.7225 29.9748 23.6807 30.4339C23.5915 31.4067 23.4176 32.9246 22.9524 33.7481L22.9776 33.737L23.0042 33.7254C24.0163 33.2881 25.1474 33.1153 26.2441 33.1153C27.0501 33.1153 27.8177 33.1795 28.5699 33.3879C28.0454 32.5363 28.0273 30.0544 28.0585 28.9928C28.0651 28.7756 28.0563 28.5544 27.8182 28.4821C27.3612 28.3426 26.9077 28.2749 26.2719 28.2749C25.2758 28.2749 24.5368 28.4484 23.9086 28.7906ZM9.1323 43.6959C8.99645 43.7535 8.8586 43.8032 8.71974 43.8441C8.25681 43.5776 7.66335 43.4415 7.14817 43.5246L7.00027 43.5484C6.98915 43.5257 6.97869 43.5022 6.96855 43.4788C6.82616 43.1401 6.79661 42.759 6.76841 42.3953L6.76013 42.2899C6.70629 41.6339 6.36088 41.0853 5.718 41.0075L5.57307 40.9899C5.31932 40.5144 5.32942 39.8654 5.65785 39.4303C5.21915 39.5426 4.87162 39.8127 4.65245 40.1663C4.42265 40.5379 4.34532 40.9877 4.42375 41.4151C4.27426 41.3879 4.14357 41.434 4.00866 41.4816L4.00863 41.4816L3.9776 41.4926C3.2463 39.5563 4.16736 37.3692 6.08988 36.5503C8.06276 35.7104 10.3442 36.6293 11.1841 38.6017C12.0242 40.5745 11.1056 42.8559 9.13234 43.696L9.1323 43.6959Z" fill="#66727F"/>
    </symbol>

    <symbol id="logo-rt" viewBox="0 0 69 64" fill="none" xmlns="http://www.w3.org/2000/svg">
      <g opacity="0.6" clip-path="url(#clip0)">
        <path fill-rule="evenodd" clip-rule="evenodd" d="M23.0159 44.2456C23.0159 44.1651 22.9987 43.4978 23.4765 43.0188C24.1643 42.3294 26.2843 40.3944 26.2843 40.3944L32.0288 35.0875L44.1142 46.2763C44.1142 46.2763 42.01 46.2762 39.2021 46.2763C38.319 46.2763 37.3663 46.2762 36.3875 46.2763C35.5853 46.2763 34.7656 46.2762 33.9525 46.2763C31.0181 46.2763 28.1687 46.276 26.5327 46.2763C25.86 46.2763 25.3925 46.276 25.2086 46.2763C23.7445 46.2763 22.9864 45.1044 23.0159 44.2456ZM45.8523 46.9411L32.526 34.6281L52.0832 16.5601L34.1887 0L24.0981 9.32454C21.4093 11.8091 21.6008 14.2567 21.6008 17.736V43.4854C21.5633 45.6145 23.4279 46.9411 25.0843 46.941C26.6158 46.941 45.8523 46.9411 45.8523 46.9411ZM1.63073 59.7082H3.87911C5.01577 59.7082 5.53464 59.206 5.53464 58.4525C5.53464 57.6993 5.01577 57.1969 3.87911 57.1969H1.63073V59.7082ZM0 55.8501H3.92857C5.8806 55.8501 7.16537 56.7747 7.16537 58.4525C7.16537 60.1306 5.8806 61.055 3.92857 61.055H1.63073V63.8404H0V55.8501ZM12.6748 61.0096C12.6748 59.9707 11.8223 59.3658 10.908 59.3658C9.99404 59.3658 9.14161 59.9707 9.14161 61.0096C9.14161 62.0482 9.99404 62.6532 10.908 62.6532C11.8223 62.6532 12.6748 62.0482 12.6748 61.0096ZM10.908 64C9.22799 64 7.5602 62.9956 7.5602 61.0096C7.5602 59.0233 9.22799 58.0189 10.908 58.0189C12.5884 58.0189 14.256 59.0233 14.256 61.0096C14.256 62.9956 12.5884 64 10.908 64ZM21.2108 62.3679C20.6302 63.4408 19.6294 64 18.3446 64C16.5286 64 15.1203 62.8129 15.1203 61.0096C15.1203 59.206 16.6027 58.0189 18.3446 58.0189C19.7037 58.0189 20.7166 58.5896 21.1491 59.5599L19.8766 60.3361C19.5184 59.6168 18.9747 59.3658 18.3324 59.3658C17.4181 59.3658 16.7017 60.0049 16.7017 61.0096C16.7017 62.0255 17.3934 62.6532 18.3324 62.6532C19.1478 62.6532 19.6048 62.2766 19.9507 61.6145L21.2108 62.3679Z" fill="#66727F"/>
        <path fill-rule="evenodd" clip-rule="evenodd" d="M26.7453 59.4343H24.9905V63.8407H23.4839V59.4343H21.7291V58.179H26.7453V59.4343Z" fill="#66727F"/>
        <path fill-rule="evenodd" clip-rule="evenodd" d="M28.7583 60.3019H32.0445C31.8963 59.5715 31.3157 59.1147 30.4385 59.1147C29.6107 59.1147 28.9808 59.6397 28.7583 60.3019ZM28.7583 61.352C28.8571 62.2195 29.5243 62.7673 30.4385 62.7673C31.2909 62.7673 31.785 62.3679 32.1311 61.7286L33.2922 62.3452C32.7117 63.4523 31.7974 64 30.4138 64C28.709 64 27.2635 62.8017 27.2635 61.0097C27.2635 59.2174 28.709 58.019 30.4879 58.019C32.2421 58.019 33.4776 59.1948 33.4776 60.8498V61.352H28.7583ZM40.1853 63.8404H38.678V59.48H36.7263L36.4422 62.2424C36.3186 63.4637 35.7872 63.9201 34.8855 63.9201C34.5271 63.9201 34.3173 63.8973 34.0206 63.8404L34.2308 62.5733C34.3543 62.619 34.4407 62.6418 34.5519 62.6418C34.836 62.6418 34.9473 62.5048 34.9844 62.1853L35.4043 58.1788H40.1853V63.8404ZM42.8903 60.3019H46.1764C46.0284 59.5715 45.4475 59.1147 44.5706 59.1147C43.7427 59.1147 43.1126 59.6397 42.8903 60.3019ZM42.8903 61.352C42.9892 62.2195 43.6562 62.7673 44.5706 62.7673C45.4229 62.7673 45.9171 62.3679 46.2629 61.7286L47.4244 62.3452C46.8435 63.4523 45.9295 64 44.5458 64C42.8409 64 41.3955 62.8017 41.3955 61.0097C41.3955 59.2174 42.8409 58.019 44.6199 58.019C46.3741 58.019 47.6097 59.1948 47.6097 60.8498V61.352H42.8903ZM50.401 58.1788V60.0279C50.401 60.0279 50.6358 59.7196 50.8212 59.5257L52.1058 58.1788H53.9344L51.7106 60.4846L54.379 63.8404H52.5628L50.7223 61.5119L50.401 61.8428V63.8404H48.8444V58.1788H50.401ZM59.4562 61.0097C59.4562 59.9708 58.6038 59.3659 57.6895 59.3659C56.7753 59.3659 55.9229 59.9708 55.9229 61.0097C55.9229 62.0483 56.7753 62.6532 57.6895 62.6532C58.6038 62.6532 59.4562 62.0483 59.4562 61.0097ZM57.6895 64C56.0094 64 54.3417 62.9957 54.3417 61.0097C54.3417 59.0234 56.0094 58.019 57.6895 58.019C59.3697 58.019 61.0375 59.0234 61.0375 61.0097C61.0375 62.9957 59.3697 64 57.6895 64Z" fill="#66727F"/>
        <path fill-rule="evenodd" clip-rule="evenodd" d="M64.9161 63.8407L63.6556 60.6326V63.8407H62.2472V58.179H63.9027L65.596 62.3338L67.3001 58.179H68.9556V63.8407H67.5472V60.6326L66.2878 63.8407H64.9161Z" fill="#66727F"/>
      </g>
      <defs>
        <clipPath id="clip0">
        <rect width="68.9557" height="64" fill="white"/>
        </clipPath>
      </defs>
    </symbol>

    <symbol id="mks-logo" viewBox="0 0 292 300" style="enable-background:new 0 0 292 300;" fill="none" xml:space="preserve">
      <g>
        <path fill="#9FA7B0" d="M168.3,114.5c-0.1-0.1-1.3-1.4-3.5-1.4c-1.1,0-2.4,0.4-3.5,1.1c-0.2,0.1-0.3,0.3-0.3,0.6c0,0.1,0.9,6,0.2,8.5
          c-0.5,1.9-2.1,4.1-5.1,4.1c-0.6,0-1.3-0.1-1.9-0.3c0,0,0,0,0,0l2.2-1.5c0.2-0.1,0.3-0.3,0.3-0.5s-0.1-0.4-0.3-0.5l-4.4-3
          c1.4-1,2.3-1.8,2.4-1.9c0.1-0.1,0.2-0.3,0.2-0.4c0-0.2-0.1-0.3-0.2-0.4l-0.8-0.8c-0.1-0.1-0.3-0.2-0.4-0.2s-0.3,0.1-0.4,0.1
          c-0.1,0-1.2,0.9-3,2.1l-1.8-1.2l6.9-4.8l0.5,1.4c0.1,0.2,0.3,0.4,0.5,0.4c0,0,0,0,0,0c0.2,0,0.4-0.1,0.5-0.3l3.3-6.1
          c0.1-0.2,0.1-0.4,0-0.6c-0.1-0.2-0.3-0.2-0.5-0.2c0,0-0.1,0-0.1,0l-6.8,1c-0.2,0-0.4,0.2-0.5,0.4c-0.1,0.2,0,0.4,0.2,0.6l1.1,1
          l-7.9,5.4l-7.8-5.4l1.1-1c0.2-0.2,0.2-0.4,0.2-0.6c-0.1-0.2-0.2-0.4-0.5-0.4l-6.8-1c0,0-0.1,0-0.1,0c-0.2,0-0.4,0.1-0.5,0.2
          c-0.1,0.2-0.1,0.4,0,0.6l3.3,6.1c0.1,0.2,0.3,0.3,0.5,0.3c0,0,0,0,0,0c0.2,0,0.4-0.2,0.5-0.4l0.5-1.4l6.9,4.8l-1.8,1.2
          c-1.8-1.2-2.9-2.1-3-2.1c-0.1-0.1-0.2-0.1-0.4-0.1c-0.2,0-0.3,0.1-0.4,0.2l-0.8,0.8c-0.1,0.1-0.2,0.3-0.2,0.4
          c0,0.2,0.1,0.3,0.2,0.4c0.1,0.1,1,0.8,2.4,1.9l-4.4,3c-0.1,0.1-0.2,0.3-0.2,0.5c0,0.2,0.1,0.4,0.3,0.5l2.2,1.5c0,0,0,0,0,0
          c-0.7,0.2-1.3,0.3-1.9,0.3c-2.9,0-4.6-2.2-5.1-4.1c-0.7-2.5,0.2-8.4,0.2-8.5c0-0.2-0.1-0.5-0.3-0.6c-1.2-0.7-2.4-1.1-3.5-1.1
          c-2.2,0-3.5,1.3-3.5,1.4c-0.1,0.1-0.2,0.2-0.2,0.3c0,0.4-0.7,8.9,3.2,13.2c1.5,1.6,3.4,2.4,5.7,2.4c0.4,0,0.8,0,1.3-0.1
          c2.2-0.3,4.4-0.9,6.6-1.6l3.7,2.5l-8.1,5.5c-0.2,0.1-0.3,0.3-0.3,0.5c0,0.2,0.1,0.4,0.3,0.5l8.1,5.6l-6.9,4.8l-0.5-1.4
          c-0.1-0.2-0.3-0.4-0.5-0.4c0,0,0,0,0,0c-0.2,0-0.4,0.1-0.5,0.3l-3.3,6.1c-0.1,0.2-0.1,0.4,0,0.6c0.1,0.2,0.3,0.2,0.5,0.2
          c0,0,0.1,0,0.1,0l6.8-1c0.2,0,0.4-0.2,0.5-0.4c0.1-0.2,0-0.5-0.2-0.6l-1.1-1l7.9-5.4l7.9,5.4l-1.1,1c-0.2,0.2-0.2,0.4-0.2,0.6
          c0.1,0.2,0.2,0.4,0.5,0.4l6.8,1c0,0,0.1,0,0.1,0c0.2,0,0.4-0.1,0.5-0.2c0.1-0.2,0.1-0.4,0-0.6l-3.3-6.1c-0.1-0.2-0.3-0.3-0.5-0.3
          c0,0,0,0,0,0c-0.2,0-0.4,0.2-0.5,0.4l-0.5,1.4l-6.9-4.8l8.1-5.6c0.2-0.1,0.3-0.3,0.3-0.5c0-0.2-0.1-0.4-0.3-0.5l-8.1-5.5l3.7-2.5
          c2.1,0.8,4.3,1.4,6.6,1.6c0.4,0.1,0.9,0.1,1.3,0.1c2.3,0,4.2-0.8,5.7-2.4c4-4.3,3.3-12.8,3.2-13.2
          C168.5,114.7,168.4,114.6,168.3,114.5z M145.4,120.8l1.7,1.2c-0.5,0.3-1.1,0.7-1.7,1.1c-0.6-0.4-1.2-0.7-1.7-1.1L145.4,120.8z
          M139.1,125.1l2.4-1.7c0.5,0.3,1,0.6,1.5,0.9c-0.9,0.5-1.9,1-2.9,1.4L139.1,125.1z M151.6,137.2l-6.2,4.3l-6.2-4.3l6.2-4.2
          L151.6,137.2z M145.4,129.4l-3-2c1.1-0.5,2-1,3-1.5c1,0.5,1.9,1,3,1.5L145.4,129.4z M150.7,125.8c-1-0.4-1.9-0.9-2.9-1.4
          c0.5-0.3,1-0.6,1.5-0.9l2.4,1.7L150.7,125.8z"/>
        <path fill="#9FA7B0" d="M170.4,119.5c0.2-0.5,0.4-1.4,0.4-1.4l-0.4-0.1V119.5z"/>
        <path fill="#9FA7B0" d="M248.4,98.4c-2.5-1.5-6.7-2.1-11-1.7c6.7-2.3,11.2-7.3,11.5-11.7c-3.5-1-7.1-0.5-10.2,0.2
          c3.2-2.4,8.6-6.8,7.9-13.4c-3.1-0.8-8.9,1.4-11.3,2.5c7.7-4.3,10.5-14.5,6.4-20.3c-2.4,1.4-13.4,12.6-15.2,14
          c5.7-6.5,8.4-11.2,9.9-15.5c1.8-4.8,1.9-13.1-4-15.9c-2.8,6.4-12.6,22.7-18,29.5c-0.6-0.5-1.1-1.2-1.8-1.4
          c-1.3,4.2-5.1,9.6-8.6,12.3c-0.2-0.3-0.5-1.3-1.1-2.3c-3.7,5.6-13.4,13.2-16.5,17.9c-2.4,3.5-2.4,6.6,0.9,9.9
          c1.4,1.4,4,3.8,1.7,7.2c-3.1,4.5-9.2,5-12.5,2.4c0-0.8,0-1.6-0.1-2.3c3.9-1.5,4.9-6.9,1.9-10.2c-0.6,1.2-1.7,2.1-2.9,2.6
          c-0.3-1.4-0.6-2.1-0.7-2.1l-0.1-0.3l-0.3,0c0,0-1.3-0.1-3.2-0.3c2.2-0.7,3.6-2.7,3.3-5.5c-3.4,2.9-6.8,0.1-7.5-0.6
          c-2.1-2.5-2.7-5.3-1.9-9.5c0.7-3.7,4.6-9.6,7.1-11.5c0.4,0.3,0.9,1.1,2.2,0.9c0.7-0.2,1.9-0.8,2.8-1.2c2.6-0.8,5-0.2,6.6,0.8
          c2.9,1.8,2.6,3.7,2.6,5.1c4.4-2.5,2.9-6.6-2.9-8.2c4,0,7.2,3.6,8,4.1c2.2,1.6,5.3,1.2,7.1,0.4c3.5-1.7,4.2-5.8,3.3-6.6
          c-0.4,1.5-1.5,2.8-3.5,3c-3,0.3-5.9-1-8.2-2c-1.9-0.8-5.1-1.4-7.2-1.3c4-2.2,10.1-1.9,12.3,1.4c1.3-1.1,2.1-2,2.5-4.2
          c1.1-5.9-3.5-8.9-8.4-8.9c0.1-1.4-0.9-2.1-2.2-1.7c0-0.6-0.2-1.1-0.5-1.3c0.1,0,0.3-0.1,0.4-0.1c5-0.3,9.6-1.9,12.2-4.5
          c4.4-4.7-2.6-10.8-0.1-15.4c2.4,1.1,4.2,2.4,7.6,2.9c0.4,0.7,0.7,2.1,0.8,2.9c1.1,5.3-4.1,6.2-2.8,11.8c0.6,2.5,2.5,3.4,3.1,6.5
          c0,0,0.2,2.1-1.6,4c4.3,0.1,6.5-3.5,5.2-6.9c-0.6-1.4-2.1-2.7-2.1-4.3c2.2,2.9,4.1,2.8,7.5,1.7c1.5-0.5,1.7,1.7,0.7,3.4
          c2.3-1.4,2.9-3.6,2.9-4.6c0-2.4-1.8-3.5-3.6-3c-1,0.1-3,1.5-3.1-0.5c-0.4-3.4,4.9-3.2,3.8-8.7c-0.6-2.7-3.6-4.2-8.3-4.8
          c-0.5-0.5-1.6-1.6-2.3-2.5c-2.6-4.3-5.3-5.4-6.9-4.5c-1.9,0.9-2.9,1.8-4.4,2.6c-1.2,0.6-2.6,1-3.4,2c-2.1,2.6-0.1,6.5,0.9,8.9
          c0.7,1.4,2.4,4.7,1.7,7.1c-0.8,2.9-5.6,4.7-8.5,5.3c-0.2,0-0.3,0.1-0.5,0.1v-1.1c0.8-1.5,1.6-3.2,2.1-4.8c1.9-5.2-1-7.3-5.3-8.3
          c-0.5-0.3-1.1-0.5-1.8-0.2h-0.1l-0.1,0.9l-0.6-0.2l0.1-1.1h-0.2c0.5-0.3,0.7-0.9,0.7-1.5c0-0.6-0.2-1.1-0.5-1.5h0.6l-0.2-0.2
          c-0.1-0.2-0.3-0.5-0.7-0.8c-0.1-0.1-0.2-0.3-0.2-0.5c0.1,0.1,0.2,0.2,0.5,0.3c0.2,0.2,0.6,0.5,0.7,0.7l0.4,0.2v-4.8l-0.4,0.3
          c-0.1,0.1-0.5,0.4-0.7,0.6s-0.4,0.2-0.5,0.4c0-0.1,0.1-0.2,0.2-0.5c0.4-0.2,0.6-0.6,0.7-0.8l0.2-0.4h-4.8l0.2,0.4
          c0.2,0.2,0.5,0.5,0.8,0.8c0.1,0.2,0.2,0.4,0.4,0.5c-0.1-0.1-0.4-0.1-0.5-0.4c-0.4-0.2-0.6-0.5-0.9-0.6l-0.2-0.3v4.8l0.2-0.2
          c0.2-0.2,0.5-0.5,0.9-0.7c0.1-0.1,0.4-0.2,0.5-0.3c-0.1,0.1-0.2,0.3-0.4,0.5c-0.2,0.4-0.5,0.6-0.8,0.8l-0.2,0.2h0.8
          c-0.4,0.3-0.5,0.8-0.5,1.5c0,0.6,0.2,1.2,0.6,1.5h-0.1l0.1,1.1l-0.6,0.2l-0.1-0.9h-0.1c-0.7-0.2-1.3-0.1-1.8,0.2
          c-4.4,1-7.3,3.1-5.3,8.3c0.6,1.6,1.3,3.4,2.2,4.8v0.8c-4.4-1.4-12.3-6.2-14.4-9.1c-0.2-0.3-0.4-0.5-0.5-0.7l0,0l0.1-3.1
          c1.5-2.5,2.9-5.7,4-8.6c2.8-7.5-1.3-10.6-7.8-12c-0.7-0.5-1.5-0.7-2.6-0.4l-0.2,1.2l-1.4-0.1l0.1-1.5c-0.2,0.1-0.5,0.1-0.7,0.1
          c0.9-0.5,1.6-1.6,1.6-2.8c0-0.8-0.4-1.8-1.1-2.3h1.1c-0.7-0.6-1.7-1.8-1.9-2.7c0.8,0.2,2.1,1.4,2.6,1.9V5.4
          c-0.6,0.5-1.8,1.7-2.6,1.8c0.2-0.7,1.3-1.9,1.9-2.5h-6.1c0.5,0.6,1.7,1.8,1.8,2.5c-0.7-0.1-1.9-1.3-2.6-1.8v6.2
          c0.7-0.6,1.8-1.7,2.6-1.9c-0.1,0.8-1.3,2.1-1.8,2.7h1.1c-0.7,0.5-1.1,1.5-1.1,2.3c0,1.2,0.6,2.3,1.5,2.8c-0.2,0-0.5,0-0.8-0.1
          l0.1,1.5l-1.4,0.1l-0.1-1.2c-1.1-0.4-1.9-0.1-2.6,0.4c-6.4,1.3-10.5,4.4-7.7,11.9c0.9,2.9,2.3,6,4,8.6v3.2
          c-0.1,0.1-0.2,0.3-0.5,0.6c-2.1,2.9-10,7.7-14.4,9.1v-0.8c0.9-1.5,1.6-3.2,2.2-4.8c1.9-5.2-0.9-7.3-5.3-8.3
          c-0.5-0.3-1.1-0.5-1.8-0.2h-0.1l-0.1,0.9l-0.6-0.2l0.1-1.1h-0.1c0.3-0.3,0.6-0.9,0.6-1.5c0-0.6-0.1-1.1-0.5-1.5h0.7l-0.2-0.2
          c-0.2-0.2-0.5-0.5-0.7-0.8c-0.1-0.1-0.3-0.3-0.4-0.5c0.1,0.1,0.4,0.2,0.5,0.3c0.3,0.2,0.6,0.5,0.8,0.7l0.2,0.2v-4.8l-0.2,0.3
          c-0.2,0.1-0.5,0.4-0.8,0.6c-0.1,0.2-0.4,0.2-0.5,0.4c0.1-0.1,0.3-0.2,0.4-0.5c0.2-0.2,0.5-0.6,0.7-0.8l0.2-0.4h-4.8l0.2,0.4
          c0.1,0.2,0.4,0.5,0.7,0.8c0.2,0.2,0.3,0.4,0.3,0.5c-0.1-0.1-0.2-0.1-0.4-0.4c-0.3-0.2-0.7-0.5-0.8-0.6l-0.4-0.3v4.8l0.4-0.2
          c0.1-0.2,0.5-0.5,0.8-0.7c0.2-0.1,0.3-0.2,0.4-0.3c0,0.1-0.1,0.3-0.3,0.5c-0.2,0.4-0.5,0.6-0.7,0.8l-0.2,0.2h0.6
          c-0.3,0.3-0.5,0.8-0.5,1.5c0,0.6,0.2,1.2,0.8,1.5h-0.2l0.1,1.1l-0.7,0.2l-0.1-0.9H111c-0.7-0.2-1.3-0.1-1.8,0.2
          c-4.4,1-7.3,3.1-5.3,8.3c0.6,1.6,1.3,3.4,2.2,4.8v1.1c-0.2,0-0.3-0.1-0.5-0.1c-2.9-0.6-7.7-2.4-8.6-5.3c-0.8-2.4,1-5.7,1.7-7.1
          c1.1-2.4,3-6.4,1-8.9c-0.9-0.9-2.2-1.3-3.4-2c-1.5-0.8-2.5-1.6-4.4-2.6c-1.6-0.9-4.2,0.2-6.9,4.6c-0.6,1-1.8,2.1-2.3,2.5
          c-4.7,0.6-7.7,2.1-8.3,4.8c-1.1,5.4,4.2,5.3,3.9,8.7c-0.1,2-2.2,0.6-3.1,0.5c-1.8-0.5-3.7,0.6-3.7,3c0,1,0.7,3.2,2.9,4.6
          c-0.9-1.7-0.8-3.8,0.8-3.4c3.4,1.1,5.3,1.2,7.4-1.7c0,1.6-1.4,2.9-2.1,4.3c-1.3,3.4,0.9,7,5.2,6.9c-2-1.8-1.6-4-1.6-4
          c0.6-3,2.5-3.9,3.1-6.5c1.3-5.6-3.9-6.5-2.8-11.8c0.1-0.8,0.3-2.2,0.7-2.9c3.4-0.5,5.2-1.8,7.6-2.9c2.4,4.7-4.6,10.7-0.1,15.4
          c2.6,2.7,7.3,4.2,12.2,4.5c0.1,0,0.3,0.1,0.4,0.1c-0.3,0.2-0.5,0.7-0.5,1.3c-1.3-0.5-2.3,0.2-2.1,1.7c-5.1,0-9.6,3-8.5,8.9
          c0.3,2.2,1.2,3.1,2.6,4.2c2.1-3.4,8.3-3.6,12.3-1.4c-2.2-0.1-5.3,0.5-7.3,1.3c-2.3,1-5.2,2.3-8.2,2c-2.1-0.2-3.1-1.5-3.6-3
          c-0.9,0.8-0.2,5,3.3,6.6c1.8,0.9,4.9,1.2,7.1-0.4c0.8-0.5,4.1-4.1,8.1-4.1c-5.8,1.5-7.3,5.7-2.8,8.2c-0.2-1.4-0.4-3.4,2.5-5.1
          c1.6-1,4.1-1.6,6.6-0.8c0.9,0.3,2.1,1,2.8,1.2c1.2,0.1,1.8-0.6,2.2-0.9c2.6,1.9,6.3,7.8,7.1,11.5c0.9,4.3,0.2,7-1.9,9.5
          c-0.7,0.8-4.1,3.5-7.5,0.6c-0.3,2.7,1.1,4.7,3.3,5.5c-2,0.2-3.3,0.3-3.3,0.3l-0.3,0l-0.1,0.3c0,0.1-0.3,0.7-0.7,2.1
          c-1.2-0.5-2.3-1.3-2.9-2.6c-2.9,3.3-2,8.6,1.9,10.2c0,0.7-0.1,1.5-0.1,2.3c-3.3,2.6-9.4,2-12.4-2.4c-2.3-3.4,0.3-5.8,1.7-7.2
          c3.4-3.2,3.4-6.4,0.9-9.9c-3.1-4.7-12.8-12.3-16.5-17.9c-0.6,1-1,1.9-1.1,2.3c-3.5-2.7-7.4-8.1-8.7-12.3c-0.7,0.1-1.2,0.8-1.8,1.4
          C71.8,59.3,62,43,59.2,36.6c-5.9,2.8-5.8,11.1-4,15.9c1.6,4.4,4.2,9,9.9,15.5c-1.8-1.3-12.8-12.5-15.2-14c-4.1,5.8-1.3,16,6.4,20.3
          c-2.4-1.1-8.2-3.3-11.3-2.5c-0.6,6.5,4.7,10.9,7.9,13.4c-3.1-0.7-6.7-1.2-10.2-0.2c0.2,4.4,4.8,9.4,11.4,11.7
          c-4.1-0.4-8.3,0.1-10.9,1.7c0.5,4.6,5.7,8.6,11.9,9.5c-4.2,0.5-7.9,2.3-9.9,4.8c2.3,3,5.7,5.3,10.8,5.2c-1.2,0.4-2.5,1.2-3.7,2.4
          c-0.1-0.1-0.4-0.2-0.6-0.2c-0.2,0.1-0.3,0.5-0.2,0.7c0,0,0,0,0,0.2c-0.5,0.3-0.8,0.8-0.8,1.2c-0.5,0.7-1,1.5-1.2,2.2
          c0.1,0.1,0.2,0.2,0.3,0.2c0,0.4,0,0.9,0.3,1.3c-0.2,0.2-0.3,0.6-0.5,0.9l-3-1.2c-0.2,2.7,0.4,5,1.8,6.4c1.1,1.2,2.3,1.1,2,1.5
          l3.3,2c0.6,1.2,1.8,1.2,2.6,0.9c0,0,0,0.1,0,0.2c0,1.3,0.9,2.4,2.1,2.8c-0.2,1.1,0.2,1.8,1.7,2.3l12.3,29.8c-0.5,1.4,0,2.7,1.1,3.1
          c-0.2,0.4-0.5,0.7-0.5,1.4c0.5-0.4,1.2-0.5,1.5,0.5c0.2,0.7-1.1,3,0.9,4.6c-0.2,1.4,0.5,2.8,1.9,3.4c0,0.7,0.7,3,0.8,3.8
          c-0.9,1.2-2.9,3.1-2.7,5.2c0.2,1.5,0.8,1.9,2,2.3c-0.5,2.7,1,3.8,3.2,4c0,1.9,1.8,2.6,3,2.8c1.1,0.8,1.6,1.2,2.9,1.8
          c-1.2,1.4-0.3,3.2,1.8,3.8c0.2,0.8,0.8,1.5,2.1,1.8c0.7,1.2,2,1.2,2.8,0.8c0.5-0.2,1.3-1.6,0.6-2.8c0.5-0.6,0.2-1.7-0.1-2.4
          c0.7-1.3,0.1-2.9-0.9-3.4c0.1-0.7-0.2-1.8-0.5-2.5c1.7-1.1,3.8-2.4,4.6-2.9c4.2-3,8.9-5.7,14.3-6c1.4-0.1,3.9-0.2,5.3-0.1
          c2.2,0.2,5.2,0.9,7-0.5c0.5-0.4,0.9-0.9,0.8-1.5c-0.2-1.4-1.7-2.6-2.2-3.8c-0.1-0.4-0.3-0.9-0.6-1.4c1.5,0.3,2.9,0.1,3.8-0.4
          c0.9-0.4,3.2-2.1,3.1-4.6c-1.8,0.9-6.3,2.1-6.8-2.4c-0.5-4,3-7.3,8.5-5.9c3.7,0.9,9.2,8.9,4.2,12.3c-2.4,1.6-6.1,3.2-5.7,7.6
          c1.6-1.9,3.7-2.9,6.5-2.7c-4.1,3-7.2,3.4-11.5,5.7c-3.7,2.2-6.5,5.8-9.4,5.9c-2.2,0.1-3.5-2.6-1.3-4.6c-2.2-0.5-5.1,1.2-5.9,3.5
          c-1.1,3.1-0.2,5.4,1.7,6.6c-2.7,1.4-4.6,4.2-3.7,8.1c0.9,3.2,4.2,3.2,2.9,7.4c1.8-0.5,3-1.7,3.5-3.5c0.2-1.2,0.5-2.5,1.1-3.1
          c-0.2,2.5,1.2,6.1,4.6,7.8c2.3,1.1,5.9,1.6,8.7-1.3c1.1,3.2,5,6,8.9,5.9c1.8,0,3.6-0.8,5-1.6c0.9,2.4,3.4,4.8,5.8,6
          c2.5-1.2,4.9-3.6,5.9-6c1.3,0.8,3.1,1.6,4.9,1.6c3.8,0.1,7.9-2.7,8.9-5.9c2.8,2.9,6.4,2.4,8.7,1.3c3.4-1.7,4.8-5.3,4.6-7.8
          c0.6,0.6,0.9,1.9,1.1,3.1c0.5,1.8,1.6,3,3.5,3.5c-1.2-4.1,2.1-4.1,2.9-7.4c0.9-4-1-6.7-3.6-8.1c1.9-1.2,2.8-3.5,1.6-6.6
          c-0.8-2.3-3.7-4-5.9-3.5c2.2,2.1,1,4.7-1.3,4.6c-2.9-0.1-5.7-3.7-9.4-5.9c-4.2-2.3-7.4-2.7-11.5-5.7c2.8-0.2,5,0.7,6.5,2.7
          c0.5-4.3-3.2-5.9-5.7-7.6c-4.9-3.4,0.5-11.4,4.3-12.3c5.4-1.5,8.9,1.9,8.4,5.9c-0.6,4.5-4.9,3.3-6.9,2.4c0,2.5,2.3,4.2,3.2,4.6
          c1.1,0.5,3.1,0.8,5,0c-0.1,0.4-0.1,0.9-0.1,1.1c-0.4,3.8-2.4,4.2-1.7,5.8c1,1.2,7.6,0.9,9.4,1.3c3.1,0.4,5.8,1.6,8.8,2.2
          c3.4,0.7,7,0.7,10,1.9c1.9,0.8,4.1,2.4,6,3.4c2.9,0.5,2.4,1.6,4.3,1.6c1.6,0,2.3-1.4,4.4-2c1.5-0.4,3.1,0.2,4.6-0.2
          c1.1-0.2,1.6-1.4,2.6-1.9c1.2-0.7,2.8-0.7,4-1.7c0.6-0.5,0.7-1.5,0.6-2.2l0,0.2c2.3-1.6,4-3.9,4.9-6.6c0.6-0.1,1.1-0.6,1.1-1.2
          c0-0.1,0-0.2,0-0.2c0.6-0.5,0.9-1.2,0.9-1.9c0-0.9-0.4-1.6-0.9-2.2c0,0,0-0.1,0-0.2c0-0.5-0.2-0.8-0.5-1.1
          c-0.9-5.1-4.9-9.3-9.9-10.6c0-0.1,0-0.1,0-0.2h-0.1c0-0.2-0.1-0.4-0.3-0.4c-0.7-0.7-1.6-1.8-1.6-2.5c0.8,0.2,2.2,1.5,2.9,2.1v-6.8
          c-0.7,0.5-2.1,1.8-2.9,2.1c0.1-0.8,1.4-2.3,2.1-2.9h-6.9c0.6,0.6,1.9,2.1,2.1,2.9c-0.8-0.2-2.2-1.5-2.9-2.1v6.8
          c0.7-0.5,2.1-1.8,2.9-2.1c-0.1,0.8-1.4,2.3-2.1,2.9l0.2,0.1c-5.1,1.2-9.3,5.4-10.2,10.7c-0.4,0.3-0.6,0.7-0.6,1.1
          c0,0.1,0,0.2,0,0.2c-0.6,0.6-0.9,1.3-0.9,2.2c0,0.7,0.4,1.4,0.9,1.9c0,0,0,0.1,0,0.2c0,0.8,0.5,1.1,1.1,1.2
          c0.2,0.7,0.5,1.3,0.8,1.9c0-0.1,0-0.1,0.1-0.1c-0.4,1.9-2.8,3.1-3.3,3.1c-4.2,0.6-8.9-1.2-13.1-2.8c-1.9-0.7-4.4-1.5-5.7-3.4
          c-0.8-1.3-1.1-2.2-0.7-3.4c0.5,0.6,1.2,1.2,2.3,1.8c0.1-0.6,0.1-1.2,0.3-1.7c1.1,1.6,2.8,2.4,4.9,2.3c-1.2-1.1-1.8-3.8-1.2-6.3
          c1.7,2.9,8.2,3.5,9.4-1.7c-2.4,1.1-4-0.1-4.4-1.4c-0.7-2.1,1.6-7.1-0.5-11c-1.7-2.9-3.7-4.7-8.2-5.4c0.4-0.5,0.5-1,0.6-1.8
          c-4.2,1.5-7.8,0.4-9.5-3c0.8,0.4,2.1,0.5,3.2,0.5c-3.7-3-3.5-11.6-0.8-16c0.4-0.2,0.5-0.5,0.8-0.6c0.8,1.6,3.2,1.6,4.5,3
          c0.5-0.5,0.7-0.6,1.2-1c0,0,0.1,7,0.6,9.9c0.5,3.2,3.6,2.9,5.2,4.3c1.9-2.1,5.3-2,4.8-5.6c-0.5-3.6-1.2-6.8-1.3-9.3
          c1.1,2.2,3.1,10.4,4,12.8c1.4,3.5,4.7,2.4,6.6,3.8c1.2-2.4,4.4-3.1,3.1-6.8c-0.4-0.9-5.5-11.8-6.3-13.8c1.8,2.7,6.8,12.2,8.3,14.8
          c1.7,2.8,4.8,1.4,7.1,2.1c0.4-2,3.4-4.3,1.2-7.8c-2.8-4.6-9.3-12.6-9.6-13.8c1.3,1.2,11.4,13.8,12.2,14.5c2.4,2.1,5.8,0.5,7.8,0.5
          c0-2.3,1.8-4.9-0.8-7.6c-2.4-2.3-8-6.3-9.2-7.6c3.7,2.6,8.1,6.6,10.7,7.3c4.6,1.2,6.3-0.6,8-1.4c-1.4-4.2,0.5-6.1-9.3-10.2
          c8.4,3,12.2,1.5,15.2-0.8c-1.2-3-4.2-5.5-6.6-6.4c5.2,0.1,8.6-2.2,10.8-5.2c-1.9-2.5-5.7-4.4-10-4.8
          C242.7,107,247.8,103,248.4,98.4z M52.6,129.4c-0.1,0-0.1,0.1-0.2,0.2c-0.7-0.1-0.7-0.9-0.6-1.7c0.3,0,0.6-0.1,0.8-0.3l0.1,0.1
          l-0.3,0.2C52.5,128.4,52.5,128.9,52.6,129.4z M54.9,134.3l-1.2-0.7c0.5-0.5,0.9-0.5,1.4-0.2C55.1,133.7,55.1,134.1,54.9,134.3z
          M58.4,126.9c-0.2,0-0.3,0-0.5,0c0,0,0-0.1-0.1-0.1c0.2-0.1,0.4-0.1,0.6-0.1C58.5,126.8,58.4,126.8,58.4,126.9z M125.5,213.3
          c-2.9,0-5-1.8-3.5-4.4c0.8,1.1,2.3,1.7,3.6,1.8C125.5,211.9,125.5,212.3,125.5,213.3z M169.6,208.9c1.5,2.6-0.6,4.4-3.5,4.4
          c0-1,0-1.4-0.2-2.5C167.2,210.6,168.8,210.1,169.6,208.9z M125.3,52.5c6.6-1.4,13.4-5.1,16.4-8.3c2.5,0.2,5.8,0.2,8.2,0
          c3,3.2,9.6,6.8,16.3,8.2c-3.9,0-10.6-0.3-11.4-1.3c0.2,2.4,5.4,5.2,8.8,5.9c-2.8,0.3-5.4,0-7.6-1c1.2,1.7,2.6,3,4.8,3.8
          c-2.4,2.9-7.2,4.8-12,4.3c1.2,1.4,3.4,2.3,5.3,2.1c-4.3,6.9-7.5,13.9-8.3,22.1l0,0l0,0c-0.7-8.2-3.9-15.2-8.2-22.1
          c1.9,0.2,4.1-0.6,5.2-2.1c-4.8,0.5-9.5-1.4-11.9-4.3c2.3-0.8,3.6-2.1,4.8-3.8c-2.1,1-4.8,1.3-7.6,1c3.4-0.8,8.6-3.5,8.8-5.9
          C135.9,52.1,129.2,52.5,125.3,52.5z M64.7,125.2c-0.6,0.2-1.3,0.6-1.9,0.8c0-0.1,0-0.1,0-0.2C63.3,125.6,64.1,125.4,64.7,125.2z
          M107.2,156.1c0.1,0.8,0.2,1.3,0.6,1.8c-4.6,0.7-6.5,2.5-8.2,5.4c-2.3,3.9,0.1,8.9-0.6,11c-0.5,1.3-2,2.6-4.4,1.4
          c1.2,5.2,7.7,4.6,9.4,1.7c0.6,2.4,0,5.2-1.2,6.3c2,0.1,3.7-0.7,4.8-2.3c0.2,0.5,0.2,1.1,0.3,1.7c1.1-0.6,1.8-1.2,2.3-1.8
          c0.2,0.6,0.4,1.9,0.1,3.1c-0.9,0.6-1.8,1.1-3.4,1.9c-2.4,1.2-6.8,2.9-9.4,3.2c-2.1,0.4-5.7-0.8-6.6-3.7c-0.8-2.8-3.1-3.6-5-1.9
          c-0.5-0.4-1.8-0.6-2.3,0.2c0,0-0.6-1.3-1.3-1.9c0.5-1.4,0.1-3.1-1.2-3.7c-0.1-2.8-1.8-2.8-2.4-3.7c-0.3-0.6-0.3-1.3,0.5-1.4
          c-0.3-0.5-1.1-0.6-1.2-0.6c0.2-1.2-0.1-2.7-1.7-3.1l-14-28.9c0.9-0.9,0.4-2.3-0.6-2.8c0,0,0-0.1,0-0.2c0.1-0.2,0.1-0.4,0.1-0.6
          c0.4-0.1,0.8-0.1,1.2-0.2c2.8-0.6,7.1-4.7,10.8-7.3c-1.3,1.4-6.8,5.3-9.2,7.6c-2.3,2.2-1.3,4.5-1,6.5l0.5,1.1
          c2.1,0.1,5.1,1.4,7.4-0.5c0.7-0.7,10.8-13.2,12.2-14.5c-0.5,1.1-6.9,9.2-9.8,13.8c-2.1,3.5,1,5.8,1.4,7.8c2.3-0.7,5.4,0.7,7.1-2.1
          c1.6-2.7,6.5-12.2,8.3-14.8c-0.7,2.1-5.9,12.9-6.3,13.8c-1.2,3.7,1.9,4.4,3.1,6.8c1.9-1.4,5.3-0.3,6.6-3.8c0.8-2.4,2.9-10.6,4-12.8
          c-0.1,2.4-0.8,5.7-1.3,9.3c-0.5,3.6,2.9,3.5,4.7,5.6c1.7-1.4,4.9-1.1,5.3-4.3c0.5-2.9,0.6-9.9,0.6-9.9c0.5,0.4,0.7,0.5,1.2,1
          c1.2-1.4,3.6-1.4,4.4-3c0.4,0.1,0.5,0.4,0.8,0.6c2.7,4.4,2.9,13-0.8,16c1.1,0,2.4-0.1,3.2-0.5C115.1,156.5,111.4,157.7,107.2,156.1
          z M133.4,196.6c-2.2,3-3.9,5.2-5.3,8.9c-2.6-0.2-2.1-3.4-1.2-5c1.7-3.1,8.7-7.2,12.2-11.3C137.5,191.9,135.4,194.2,133.4,196.6z
          M141,202.2c-1.4,5.5-2.4,13.7-1.9,17.4c-4.9-2.6-2.1-12.4-0.2-16.7c2.6-5.9,4.5-13.1,5.1-17.7C145.4,188.6,142,198.4,141,202.2z
          M152.5,219.5c0.5-3.7-0.5-11.8-1.9-17.4c-1-3.7-4.4-13.5-2.9-17c0.6,4.6,2.4,11.8,5.1,17.7C154.6,207.1,157.4,217,152.5,219.5z
          M164.7,200.6c0.8,1.6,1.3,4.7-1.2,5c-1.4-3.7-3.1-5.9-5.3-8.9c-2-2.3-4.1-4.7-5.7-7.3C156,193.4,162.9,197.4,164.7,200.6z
          M164.1,158.3c-6.4,12.4-18.1,22.6-18.3,22.4c-0.1,0.1-11.9-10-18.3-22.4c-6.4-12.4-10.5-31.9-10.7-41.3
          c-0.2-9.3,1.6-13.3,1.6-13.3s8-0.4,14.4-2.7c5.4-1.9,11.4-6.6,13-8c1.6,1.4,7.6,6.2,13,8c6.4,2.2,14.4,2.7,14.4,2.7s1.8,4,1.6,13.3
          C174.6,126.3,170.5,145.9,164.1,158.3z"/>
      </g>
      <path fill="#9FA7B0" d="M66.7,241.4l0.4-4.5H67l-1.7,3.9l-7.9,12.6h-1.2l-8.3-12.6l-1.7-3.8H46l0.6,4.5v18.3h-3.8v-28.3h3l9.6,14.5
        l1.5,3.1h0.1l1.4-3.2l9.1-14.4h3.2v28.3h-4.1V241.4z"/>
      <path fill="#9FA7B0" d="M90.7,247.5l0.6-4.2h-0.4l-2,4l-10,12.4H76v-21.3h3.7v12.6l-0.3,3.7h0.4l1.9-3.6l9.8-12.7h2.9v21.3h-3.7V247.5z
        "/>
      <path fill="#9FA7B0" d="M114,250.4h-10.7v9.3h-3.7v-21.3h3.7v8.7H114v-8.7h3.7v21.3H114V250.4z"/>
      <path fill="#9FA7B0" d="M144,265h-2.5l-0.7-5.3h-17.9v-21.3h3.7v18.1h10.2v-18.1h3.7v18.1h3.4V265z"/>
      <path fill="#9FA7B0" d="M161.1,247.5l0.6-4.2h-0.4l-2,4l-10,12.4h-2.9v-21.3h3.7v12.6l-0.3,3.7h0.4l1.9-3.6l9.8-12.7h2.9v21.3h-3.7
        V247.5z"/>
      <path fill="#9FA7B0" d="M180.7,259.8c-0.6,0.2-1.3,0.3-1.8,0.4c-0.6,0-1.1,0.1-1.6,0.1c-2.8,0-5-0.9-6.5-2.8c-1.5-1.8-2.3-4.7-2.3-8.4
        c0-3.5,0.8-6.3,2.5-8.2c1.7-1.9,4.1-2.9,7.3-2.9c0.4,0,0.8,0,1.2,0c0.4,0,0.8,0.1,1.2,0.2v-6.9h3.7v7c0.7-0.1,1.3-0.2,1.7-0.2
        c0.5,0,0.9,0,1.2,0c3.1,0,5.4,0.8,6.9,2.5c1.6,1.7,2.3,4.4,2.3,8.1c0,1.7-0.2,3.3-0.6,4.7c-0.4,1.4-1,2.7-1.8,3.7
        c-0.8,1-1.8,1.8-3,2.4c-1.2,0.6-2.5,0.9-4,0.9c-0.3,0-0.7,0-1.3-0.1c-0.6-0.1-1.1-0.2-1.5-0.3v7.9h-3.7V259.8z M178.4,257.2
        c0.4,0,0.7,0,1.1,0c0.4,0,0.8-0.1,1.4-0.2v-15.7c-0.5-0.1-0.9-0.2-1.2-0.2c-0.3,0-0.7-0.1-1.1-0.1c-1.9,0-3.4,0.7-4.5,2
        c-1.1,1.3-1.6,3.3-1.6,6.1c0,1.2,0.1,2.2,0.3,3.2c0.2,1,0.6,1.9,1.1,2.6c0.5,0.7,1.1,1.3,1.9,1.7C176.4,257,177.3,257.2,178.4,257.2
        z M186.6,241c-0.4,0-0.8,0-1.1,0c-0.3,0-0.7,0.1-1.1,0.2V257c0.4,0.1,0.8,0.1,1.2,0.1c0.4,0,0.8,0,1.3,0c2,0,3.5-0.7,4.5-2.2
        c1-1.5,1.5-3.6,1.5-6.4c0-1.2-0.1-2.2-0.3-3.2c-0.2-0.9-0.6-1.7-1.1-2.4c-0.5-0.7-1.1-1.2-1.9-1.5C188.8,241.1,187.8,241,186.6,241z
        "/>
      <path fill="#9FA7B0" d="M200.3,238.4h2.5l0.7,2.7h0.4c0.7-1.1,1.7-1.9,2.8-2.4c1.2-0.6,2.5-0.9,3.9-0.9c3.1,0,5.4,0.9,6.9,2.6
        c1.5,1.7,2.3,4.4,2.3,8.2c0,1.8-0.2,3.4-0.7,4.8c-0.5,1.4-1.2,2.7-2.1,3.7c-0.9,1-2.1,1.8-3.4,2.3c-1.3,0.5-2.8,0.8-4.5,0.8
        c-0.5,0-1,0-1.5-0.1c-0.4,0-0.9-0.1-1.2-0.2c-0.4-0.1-0.8-0.2-1.1-0.3c-0.4-0.1-0.8-0.3-1.2-0.4v8.5h-3.7V238.4z M209.8,240.9
        c-1.6,0-2.9,0.4-3.8,1.2c-0.9,0.8-1.6,2.1-2,3.7v9.8c0.6,0.4,1.3,0.8,2,1c0.7,0.2,1.6,0.4,2.8,0.4c2.2,0,3.9-0.7,5.1-2.1
        c1.2-1.4,1.9-3.6,1.9-6.4c0-2.3-0.5-4.1-1.4-5.5C213.5,241.6,212,240.9,209.8,240.9z"/>
      <path fill="#9FA7B0" d="M227.6,246.5c0.9-0.1,1.7-0.2,2.4-0.3c0.7,0,1.4-0.1,2-0.1c1.6,0,2.9,0.2,3.9,0.5c1.1,0.3,1.9,0.8,2.6,1.3
        c0.6,0.6,1.1,1.2,1.4,2c0.3,0.8,0.4,1.6,0.4,2.5c0,2.6-0.8,4.4-2.3,5.6c-1.6,1.2-4.1,1.8-7.7,1.8c-1.1,0-2.2,0-3.3,0
        c-1.1,0-2.1-0.1-3.2-0.2v-21.3h3.7V246.5z M227.6,256.5c1.1,0.2,2.3,0.2,3.5,0.2c1.9,0,3.3-0.3,4.1-1c0.8-0.7,1.2-1.6,1.2-2.9
        c0-1.1-0.4-2-1.1-2.7c-0.8-0.7-2.1-1.1-4-1.1c-0.5,0-1.1,0-1.7,0.1c-0.6,0-1.3,0.1-1.9,0.3V256.5z M244.2,238.4h3.7v21.3h-3.7V238.4
        z"/>
      <path fill="#9FA7B0" d="M82.4,264.1c1.1-0.2,2.4-0.4,3.7-0.5c1.3-0.1,2.7-0.1,3.9-0.1c1.4,0,2.8,0.1,4.2,0.4c1.4,0.2,2.7,0.7,3.9,1.3
        c1.2,0.6,2.1,1.5,2.9,2.7c0.7,1.1,1.1,2.6,1.1,4.4c0,1.7-0.3,3.2-1,4.4c-0.7,1.2-1.6,2.2-2.7,2.9s-2.4,1.3-3.8,1.7
        c-1.4,0.4-2.9,0.5-4.5,0.5c-0.2,0-0.4,0-0.7,0c-0.3,0-0.7,0-1.1,0c-0.4,0-0.7,0-1.1-0.1c-0.3,0-0.6-0.1-0.7-0.1v10.6h-4V264.1z
        M90.2,267c-0.7,0-1.4,0-2.1,0c-0.7,0-1.2,0.1-1.6,0.2V278c0.1,0.1,0.4,0.1,0.7,0.1c0.3,0,0.6,0,1,0.1c0.3,0,0.7,0,1,0
        c0.3,0,0.5,0,0.7,0c1,0,1.9-0.1,2.9-0.2c0.9-0.1,1.8-0.4,2.6-0.9c0.8-0.4,1.4-1,1.9-1.8c0.5-0.8,0.7-1.8,0.7-3
        c0-1.1-0.2-1.9-0.7-2.6c-0.5-0.7-1.1-1.2-1.8-1.6c-0.7-0.4-1.5-0.7-2.5-0.8C92,267.1,91.1,267,90.2,267z"/>
      <path fill="#9FA7B0" d="M103,281.6c0-1.8,0.2-3.3,0.7-4.7c0.5-1.4,1.1-2.6,2-3.5c0.9-1,2-1.7,3.3-2.2c1.3-0.5,2.7-0.8,4.4-0.8
        c1.7,0,3.2,0.3,4.5,0.9c1.3,0.6,2.4,1.4,3.2,2.4c0.9,1,1.5,2.2,1.9,3.6c0.4,1.4,0.6,2.9,0.6,4.5c0,1.7-0.2,3.3-0.7,4.7
        c-0.5,1.4-1.1,2.6-2,3.5s-2,1.7-3.2,2.2c-1.3,0.5-2.7,0.8-4.4,0.8c-1.8,0-3.3-0.3-4.6-0.9c-1.3-0.6-2.4-1.3-3.2-2.3
        c-0.9-1-1.5-2.2-1.9-3.5C103.2,284.7,103,283.2,103,281.6z M107.1,281.6c0,1,0.1,2,0.3,2.9c0.2,1,0.6,1.8,1.1,2.6
        c0.5,0.8,1.2,1.4,2,1.8c0.8,0.5,1.8,0.7,3,0.7c4.2,0,6.2-2.7,6.2-8c0-1.1-0.1-2.1-0.3-3c-0.2-1-0.6-1.8-1.1-2.6
        c-0.5-0.7-1.1-1.3-1.9-1.8c-0.8-0.5-1.8-0.7-2.9-0.7c-2.1,0-3.7,0.7-4.7,2S107.1,278.9,107.1,281.6z"/>
      <path fill="#9FA7B0" d="M144.1,290.7c-0.9,0.7-2.1,1.2-3.3,1.5c-1.3,0.3-2.6,0.5-4,0.5c-1.8,0-3.3-0.3-4.6-0.8
        c-1.3-0.5-2.3-1.3-3.1-2.3c-0.8-1-1.4-2.1-1.7-3.5s-0.5-2.9-0.5-4.6c0-3.6,0.9-6.4,2.6-8.3c1.7-2,4.2-2.9,7.5-2.9
        c1.4,0,2.7,0.1,3.7,0.4c1.1,0.3,2,0.6,2.8,1l-1,3c-0.7-0.4-1.5-0.7-2.4-0.9c-0.8-0.2-1.8-0.3-2.8-0.3c-4.4,0-6.6,2.7-6.6,8.1
        c0,1,0.1,2,0.4,3c0.2,1,0.6,1.8,1.2,2.6c0.5,0.7,1.2,1.3,2.1,1.8c0.9,0.5,1.9,0.7,3.2,0.7c1.1,0,2.1-0.2,3-0.5
        c0.8-0.3,1.5-0.7,2.1-1.1L144.1,290.7z"/>
      <path fill="#9FA7B0" d="M163,290.7c-0.9,0.7-2.1,1.2-3.3,1.5c-1.3,0.3-2.6,0.5-4,0.5c-1.8,0-3.3-0.3-4.6-0.8c-1.3-0.5-2.3-1.3-3.1-2.3
        c-0.8-1-1.4-2.1-1.7-3.5s-0.5-2.9-0.5-4.6c0-3.6,0.9-6.4,2.6-8.3c1.7-2,4.2-2.9,7.5-2.9c1.4,0,2.7,0.1,3.7,0.4c1.1,0.3,2,0.6,2.8,1
        l-1,3c-0.7-0.4-1.5-0.7-2.4-0.9c-0.8-0.2-1.8-0.3-2.8-0.3c-4.4,0-6.6,2.7-6.6,8.1c0,1,0.1,2,0.4,3c0.2,1,0.6,1.8,1.2,2.6
        c0.5,0.7,1.2,1.3,2.1,1.8c0.9,0.5,1.9,0.7,3.2,0.7c1.1,0,2.1-0.2,3-0.5c0.8-0.3,1.5-0.7,2.1-1.1L163,290.7z"/>
      <path fill="#9FA7B0" d="M181.5,280l0.6-4.2h-0.4l-2,4l-10,12.4h-2.9v-21.3h3.7v12.6l-0.3,3.7h0.4l1.9-3.6l9.8-12.7h2.9v21.3h-3.7V280z"
        />
      <path fill="#9FA7B0" d="M205.4,280l0.6-4.2h-0.4l-2,4l-10,12.4h-2.9v-21.3h3.7v12.6l-0.3,3.7h0.4l1.9-3.6l9.8-12.7h2.9v21.3h-3.7V280z"
        />
    </symbol>

    <symbol id="up-button" viewBox="0 0 64 64" fill="none" xmlns="http://www.w3.org/2000/svg">
      <path fill-rule="evenodd" clip-rule="evenodd" d="M33.319 42.2115V26.8884C33.319 26.4731 33.8267 26.2884 34.1036 26.5654L38.5344 30.9961C38.8113 31.2731 39.2267 31.2731 39.5036 30.9961L40.519 29.9807C40.7959 29.7038 40.7959 29.2884 40.519 29.0115L32.3959 20.9346C32.119 20.6577 31.7036 20.6577 31.4267 20.9346L23.3498 29.0115C23.0729 29.2884 23.0729 29.7038 23.3498 29.9807L24.319 30.95C24.5959 31.2269 25.0113 31.2269 25.2882 30.95L29.719 26.5192C30.0421 26.2423 30.5498 26.4269 30.5498 26.8423V42.1654C30.5498 42.5346 30.8267 42.8577 31.1959 42.8577H32.5806C32.9498 42.8577 33.319 42.5807 33.319 42.2115Z" fill="currentColor"/>
    </symbol>

    <symbol id="notice-warning" viewBox="0 0 80 80" fill="none" xmlns="http://www.w3.org/2000/svg">
      <path fill-rule="evenodd" clip-rule="evenodd" d="M40 78C60.9868 78 78 60.9868 78 40C78 19.0132 60.9868 2 40 2C19.0132 2 2 19.0132 2 40C2 60.9868 19.0132 78 40 78ZM40 80C62.0914 80 80 62.0914 80 40C80 17.9086 62.0914 0 40 0C17.9086 0 0 17.9086 0 40C0 62.0914 17.9086 80 40 80ZM40 51V14H42V51H40ZM40 57V61H42V57H40Z" fill="currentColor" />
    </symbol>

    <symbol id="notice-accept" viewBox="0 0 80 80" fill="none" xmlns="http://www.w3.org/2000/svg">
      <path fill-rule="evenodd" clip-rule="evenodd" d="M78 40C78 60.9868 60.9868 78 40 78C19.0132 78 2 60.9868 2 40C2 19.0132 19.0132 2 40 2C60.9868 2 78 19.0132 78 40ZM80 40C80 62.0914 62.0914 80 40 80C17.9086 80 0 62.0914 0 40C0 17.9086 17.9086 0 40 0C62.0914 0 80 17.9086 80 40ZM36.7311 55.6823L64.7311 25.6823L63.2689 24.3177L36.0019 53.5324L23.7328 40.3195L22.2672 41.6805L35.2672 55.6805L35.9981 56.4676L36.7311 55.6823Z" fill="currentColor"/>
    </symbol>

    <symbol id="notice-error" viewBox="0 0 80 80" fill="none" xmlns="http://www.w3.org/2000/svg">
      <path fill-rule="evenodd" clip-rule="evenodd" d="M40 78C60.9868 78 78 60.9868 78 40C78 19.0132 60.9868 2 40 2C19.0132 2 2 19.0132 2 40C2 60.9868 19.0132 78 40 78ZM40 80C62.0914 80 80 62.0914 80 40C80 17.9086 62.0914 0 40 0C17.9086 0 0 17.9086 0 40C0 62.0914 17.9086 80 40 80ZM38.5859 39.9801L21.783 22.6971L23.217 21.3029L40.0199 38.5859L57.3029 21.783L58.6971 23.217L41.4141 40.0199L58.217 57.3029L56.783 58.6971L39.9801 41.4141L22.6971 58.217L21.3029 56.783L38.5859 39.9801Z" fill="currentColor"/>
    </symbol>

    <symbol id="base-watch" viewBox="0 0 32 32" fill="none" xmlns="http://www.w3.org/2000/svg">
      <path fill-rule="evenodd" clip-rule="evenodd" d="M16 26.88C10.0005 26.88 5.11991 21.9993 5.11991 16C5.11991 10.0005 10.0005 5.11991 16 5.11991C21.9993 5.11991 26.88 10.0005 26.88 16C26.88 21.9993 21.9993 26.88 16 26.88ZM16 3.19995C8.93115 3.19995 3.19995 8.93115 3.19995 16C3.19995 23.0694 8.93115 28.7999 16 28.7999C23.0694 28.7999 28.7999 23.0694 28.7999 16C28.7999 8.93115 23.0694 3.19995 16 3.19995Z" fill="currentColor"/>
      <path fill-rule="evenodd" clip-rule="evenodd" d="M16 15.9998H21.3334V18.1332H16H13.8667V10.6665H16V15.9998Z" fill="currentColor"/>
    </symbol>

    <symbol id="base-check" viewBox="0 0 34 24" fill="none" xmlns="http://www.w3.org/2000/svg">
      <path d="M12.1366 23.6291L0.480967 11.9029C0.0571257 11.479 0.0571257 10.7726 0.480967 10.3488L2.03505 8.7947C2.45889 8.37086 3.16529 8.37086 3.58913 8.7947L12.3485 17.6247C12.6311 17.9073 13.1256 17.9073 13.4081 17.6247L30.5737 0.317881C30.9975 -0.10596 31.7039 -0.10596 32.1278 0.317881L33.6819 1.87196C34.1057 2.29581 34.1057 3.00221 33.6819 3.42605L13.6907 23.6291C13.2668 24.1236 12.5604 24.1236 12.1366 23.6291Z" fill="currentColor"/>
    </symbol>

    <symbol id="base-dots" viewBox="0 0 21 5" fill="none" xmlns="http://www.w3.org/2000/svg">
      <path d="M5 2.5C5 3.88071 3.88071 5 2.5 5C1.11929 5 0 3.88071 0 2.5C0 1.11929 1.11929 0 2.5 0C3.88071 0 5 1.11929 5 2.5Z" fill="currentColor"/>
      <path d="M13 2.5C13 3.88071 11.8807 5 10.5 5C9.11929 5 8 3.88071 8 2.5C8 1.11929 9.11929 0 10.5 0C11.8807 0 13 1.11929 13 2.5Z" fill="currentColor"/>
      <path d="M21 2.5C21 3.88071 19.8807 5 18.5 5C17.1193 5 16 3.88071 16 2.5C16 1.11929 17.1193 0 18.5 0C19.8807 0 21 1.11929 21 2.5Z" fill="currentColor"/>
    </symbol>

    <symbol id="base-ok" viewBox="0 0 120 120" fill="none" xmlns="http://www.w3.org/2000/svg">
      <path fill-rule="evenodd" clip-rule="evenodd" d="M59.9997 111C31.8777 111 8.99971 88.122 8.99971 60C8.99971 31.878 31.8777 9 59.9997 9C88.1217 9 111 31.878 111 60C111 88.122 88.1217 111 59.9997 111ZM60 0C26.865 0 0 26.865 0 60C0 93.138 26.865 120 60 120C93.138 120 120 93.138 120 60C120 26.865 93.138 0 60 0Z" fill="currentColor"/>
      <path fill-rule="evenodd" clip-rule="evenodd" d="M79.9121 41.5708C79.2791 40.9618 78.2531 40.9618 77.62 41.5708L55.3331 63.0358L45.8531 53.9068C45.2231 53.2978 44.1941 53.2978 43.5611 53.9068L38.2121 59.0608C37.5791 59.6698 37.5791 60.6598 38.2121 61.2688L54.1871 76.6558C54.5021 76.9618 54.9191 77.1148 55.3331 77.1148C55.7471 77.1148 56.1611 76.9618 56.4791 76.6558L85.2611 48.9328C85.5671 48.6388 85.7351 48.2428 85.7351 47.8288C85.7351 47.4148 85.5671 47.0158 85.2611 46.7248L79.9121 41.5708Z" fill="currentColor"/>
    </symbol>

    <symbol id="square-ok" viewBox="0 0 70 70" fill="none" xmlns="http://www.w3.org/2000/svg">
      <path fill-rule="evenodd" clip-rule="evenodd" d="M48.2747 22.7139C47.8527 22.3079 47.1687 22.3079 46.7467 22.7139L31.8887 37.0239L25.5687 30.9379C25.1487 30.5319 24.4627 30.5319 24.0407 30.9379L20.4747 34.3739C20.0527 34.7799 20.0527 35.4399 20.4747 35.8459L31.1247 46.1039C31.3347 46.3079 31.6127 46.4099 31.8887 46.4099C32.1647 46.4099 32.4407 46.3079 32.6527 46.1039L51.8407 27.6219C52.0447 27.4259 52.1567 27.1619 52.1567 26.8859C52.1567 26.6099 52.0447 26.3439 51.8407 26.1499L48.2747 22.7139Z" fill="currentColor"/>
      <rect x="3" y="3" width="64" height="64" rx="9" stroke="currentColor" stroke-width="6"/>
    </symbol>

    <symbol id="stuff-warning" viewBox="0 0 81 80" fill="none" xmlns="http://www.w3.org/2000/svg">
      <path fill-rule="evenodd" clip-rule="evenodd" d="M40.5 78C61.4868 78 78.5 60.9868 78.5 40C78.5 19.0132 61.4868 2 40.5 2C19.5132 2 2.5 19.0132 2.5 40C2.5 60.9868 19.5132 78 40.5 78ZM40.5 80C62.5914 80 80.5 62.0914 80.5 40C80.5 17.9086 62.5914 0 40.5 0C18.4086 0 0.5 17.9086 0.5 40C0.5 62.0914 18.4086 80 40.5 80ZM40.5 51V14H42.5V51H40.5ZM40.5 57V61H42.5V57H40.5Z"
            fill="currentColor"/>
    </symbol>

    <symbol id="stuff-cross" viewBox="0 0 81 80" fill="none" xmlns="http://www.w3.org/2000/svg">
      <rect x="1.5" y="1" width="78" height="78" rx="15" stroke="currentColor" stroke-width="2"/>
      <path d="M23 22L58 58" stroke="currentColor" stroke-width="2"/>
      <path d="M22.5 57.5L58.5 22.5" stroke="currentColor" stroke-width="2"/>
    </symbol>

    <symbol id="stuff-check" viewBox="0 0 81 80" fill="none" xmlns="http://www.w3.org/2000/svg">
      <path fill-rule="evenodd" clip-rule="evenodd" d="M16.5 2H64.5C72.232 2 78.5 8.26801 78.5 16V64C78.5 71.732 72.232 78 64.5 78H16.5C8.76801 78 2.5 71.732 2.5 64V16C2.5 8.26801 8.76801 2 16.5 2ZM0.5 16C0.5 7.16344 7.66344 0 16.5 0H64.5C73.3366 0 80.5 7.16344 80.5 16V64C80.5 72.8366 73.3366 80 64.5 80H16.5C7.66344 80 0.5 72.8366 0.5 64V16ZM37.2311 55.6823L65.2311 25.6823L63.7689 24.3177L36.5019 53.5324L24.2328 40.3195L22.7672 41.6805L35.7672 55.6805L36.4981 56.4676L37.2311 55.6823Z"
            fill="currentColor"/>
    </symbol>

    <symbol id="error-block" viewBox="0 0 80 80" fill="none" xmlns="http://www.w3.org/2000/svg">
      <rect x="1" y="1" width="78" height="78" rx="15" stroke="#EE3F58" stroke-width="2"/>
      <path d="M22.5 22L57.5 58" stroke="#EE3F58" stroke-width="2"/>
      <path d="M22 57.5L58 22.5" stroke="#EE3F58" stroke-width="2"/>
    </symbol>

  </defs>
</svg>
