<svg width="80" height="62" viewBox="0 0 80 62" fill="none" xmlns="http://www.w3.org/2000/svg">
	<path d="M80 2.4578C80 1.56689 78.9229 1.12072 78.2929 1.75069L28.9385 51.1051L6.83375 29.2087C6.04901 28.4314 4.78271 28.4374 4.00536 29.2221L1.40752 31.8447C0.630172 32.6294 0.636168 33.8957 1.42092 34.6731L26.843 59.8553C28.0161 61.0174 29.9079 61.0129 31.0755 59.8452L77.0711 13.8497C78.9464 11.9743 80 9.43079 80 6.77862V2.4578Z" fill="url(#paint0_linear)" />
	<g style="mix-blend-mode:multiply">
		<path d="M16.5464 49.5813L25.3914 47.6584L28.8525 51.1196L23.4686 56.5035L16.5464 49.5813Z" fill="url(#paint1_linear)" fill-opacity="0.2" />
	</g>
	<path d="M80 15.0769C80 14.186 78.9229 13.7399 78.2929 14.3698L32.4825 60.1803C31.8525 60.8102 32.2987 61.8874 33.1896 61.8874L37.5104 61.8874C40.1626 61.8874 42.7062 60.8338 44.5815 58.9584L77.0711 26.4689C78.9465 24.5935 80 22.05 80 19.3978V15.0769Z" fill="#1D5DEB" />
	<path d="M79.9999 28.1522C79.9999 27.2613 78.9228 26.8152 78.2928 27.4451L45.5577 60.1803C44.9277 60.8102 45.3739 61.8874 46.2648 61.8874H50.5857C53.2378 61.8874 55.7814 60.8338 57.6567 58.9585L77.071 39.5442C78.9464 37.6688 79.9999 35.1253 79.9999 32.4731V28.1522Z" fill="#E4EAF2" />
	<defs>
		<linearGradient id="paint0_linear" x1="28.8525" y1="61.8874" x2="28.4679" y2="14.5856" gradientUnits="userSpaceOnUse">
			<stop stop-color="#CB394E" />
			<stop offset="1" stop-color="#EE3F58" />
		</linearGradient>
		<linearGradient id="paint1_linear" x1="29.2371" y1="51.1196" x2="18.4692" y2="51.1196" gradientUnits="userSpaceOnUse">
			<stop />
			<stop offset="1" stop-color="#828282" />
		</linearGradient>
	</defs>
</svg>
