<svg width="62" height="80" viewBox="0 0 62 80" fill="none" xmlns="http://www.w3.org/2000/svg">
	<path opacity="0.6" d="M9.19916 75.965V78.335C9.19916 78.4517 9.15916 78.545 9.07916 78.615C9.00249 78.685 8.90083 78.72 8.77416 78.72H7.96416V77H2.31916V69.77H3.66916V75.965H6.80916V69.77H8.16416V75.965H9.19916ZM16.3634 69.77V77H15.0134V72.47C15.0134 72.3 15.0167 72.1217 15.0234 71.935C15.0334 71.7483 15.0534 71.55 15.0834 71.34C15.0167 71.5267 14.9434 71.7 14.8634 71.86C14.7867 72.0167 14.7117 72.155 14.6384 72.275L11.8734 76.585C11.8434 76.635 11.8067 76.685 11.7634 76.735C11.7234 76.785 11.6784 76.83 11.6284 76.87C11.5784 76.9067 11.5234 76.9383 11.4634 76.965C11.4034 76.9883 11.3417 77 11.2784 77H10.2684V69.77H11.6184V74.3C11.6184 74.47 11.6134 74.65 11.6034 74.84C11.5967 75.0267 11.5784 75.225 11.5484 75.435C11.615 75.2483 11.6867 75.075 11.7634 74.915C11.8434 74.755 11.9217 74.615 11.9984 74.495L14.7584 70.185C14.7884 70.135 14.8234 70.085 14.8634 70.035C14.9067 69.985 14.9534 69.9417 15.0034 69.905C15.0534 69.865 15.1067 69.8333 15.1634 69.81C15.2234 69.7833 15.2867 69.77 15.3534 69.77H16.3634ZM24.1085 77H22.8885C22.7618 77 22.6551 76.9667 22.5685 76.9C22.4851 76.8333 22.4068 76.735 22.3335 76.605L20.7935 74.175C20.7535 74.105 20.7101 74.0483 20.6635 74.005C20.6201 73.9583 20.5718 73.9217 20.5185 73.895C20.4685 73.865 20.4101 73.845 20.3435 73.835C20.2801 73.825 20.2068 73.82 20.1235 73.82H19.3185V77H17.9735V69.77H19.3185V72.8H19.9985C20.1351 72.8 20.2535 72.7767 20.3535 72.73C20.4535 72.6833 20.5468 72.5967 20.6335 72.47L22.2185 70.13C22.2851 70.0233 22.3635 69.9367 22.4535 69.87C22.5435 69.8033 22.6518 69.77 22.7785 69.77H23.9285L21.9635 72.67C21.8801 72.7967 21.7835 72.9017 21.6735 72.985C21.5635 73.0683 21.4418 73.1333 21.3085 73.18C21.5085 73.2367 21.6768 73.3267 21.8135 73.45C21.9535 73.57 22.0868 73.7367 22.2135 73.95L24.1085 77ZM32.1496 73.405C32.3963 73.405 32.6113 73.375 32.7946 73.315C32.978 73.2517 33.1296 73.1633 33.2496 73.05C33.373 72.9333 33.4646 72.7933 33.5246 72.63C33.5846 72.4633 33.6146 72.2783 33.6146 72.075C33.6146 71.8817 33.5846 71.7067 33.5246 71.55C33.4646 71.3933 33.3746 71.26 33.2546 71.15C33.1346 71.04 32.983 70.9567 32.7996 70.9C32.6163 70.84 32.3996 70.81 32.1496 70.81H31.1446V73.405H32.1496ZM32.1496 69.77C32.633 69.77 33.0513 69.8267 33.4046 69.94C33.758 70.0533 34.0496 70.2117 34.2796 70.415C34.5096 70.6183 34.6796 70.8617 34.7896 71.145C34.903 71.4283 34.9596 71.7383 34.9596 72.075C34.9596 72.425 34.9013 72.7467 34.7846 73.04C34.668 73.33 34.493 73.58 34.2596 73.79C34.0263 74 33.733 74.1633 33.3796 74.28C33.0296 74.3967 32.6196 74.455 32.1496 74.455H31.1446V77H29.7996V69.77H32.1496ZM37.8317 71.79C38.2117 71.79 38.5567 71.8517 38.8667 71.975C39.18 72.0983 39.4467 72.2733 39.6667 72.5C39.89 72.7267 40.0617 73.0033 40.1817 73.33C40.3017 73.6567 40.3617 74.0217 40.3617 74.425C40.3617 74.8317 40.3017 75.1983 40.1817 75.525C40.0617 75.8517 39.89 76.13 39.6667 76.36C39.4467 76.59 39.18 76.7667 38.8667 76.89C38.5567 77.0133 38.2117 77.075 37.8317 77.075C37.4483 77.075 37.1 77.0133 36.7867 76.89C36.4733 76.7667 36.205 76.59 35.9817 76.36C35.7617 76.13 35.59 75.8517 35.4667 75.525C35.3467 75.1983 35.2867 74.8317 35.2867 74.425C35.2867 74.0217 35.3467 73.6567 35.4667 73.33C35.59 73.0033 35.7617 72.7267 35.9817 72.5C36.205 72.2733 36.4733 72.0983 36.7867 71.975C37.1 71.8517 37.4483 71.79 37.8317 71.79ZM37.8317 76.125C38.2583 76.125 38.5733 75.9817 38.7767 75.695C38.9833 75.4083 39.0867 74.9883 39.0867 74.435C39.0867 73.8817 38.9833 73.46 38.7767 73.17C38.5733 72.88 38.2583 72.735 37.8317 72.735C37.3983 72.735 37.0767 72.8817 36.8667 73.175C36.66 73.465 36.5567 73.885 36.5567 74.435C36.5567 74.985 36.66 75.405 36.8667 75.695C37.0767 75.9817 37.3983 76.125 37.8317 76.125ZM44.9788 72.955C44.9422 73.0017 44.9055 73.0383 44.8688 73.065C44.8355 73.0917 44.7855 73.105 44.7188 73.105C44.6555 73.105 44.5938 73.0867 44.5338 73.05C44.4738 73.01 44.4022 72.9667 44.3188 72.92C44.2355 72.87 44.1355 72.8267 44.0188 72.79C43.9055 72.75 43.7638 72.73 43.5938 72.73C43.3772 72.73 43.1872 72.77 43.0238 72.85C42.8605 72.9267 42.7238 73.0383 42.6138 73.185C42.5072 73.3317 42.4272 73.51 42.3738 73.72C42.3205 73.9267 42.2938 74.1617 42.2938 74.425C42.2938 74.6983 42.3222 74.9417 42.3788 75.155C42.4388 75.3683 42.5238 75.5483 42.6338 75.695C42.7438 75.8383 42.8772 75.9483 43.0338 76.025C43.1905 76.0983 43.3672 76.135 43.5638 76.135C43.7605 76.135 43.9188 76.1117 44.0388 76.065C44.1622 76.015 44.2655 75.9617 44.3488 75.905C44.4322 75.845 44.5038 75.7917 44.5638 75.745C44.6272 75.695 44.6972 75.67 44.7738 75.67C44.8738 75.67 44.9488 75.7083 44.9988 75.785L45.3538 76.235C45.2172 76.395 45.0688 76.53 44.9088 76.64C44.7488 76.7467 44.5822 76.8333 44.4088 76.9C44.2388 76.9633 44.0622 77.0083 43.8788 77.035C43.6988 77.0617 43.5188 77.075 43.3388 77.075C43.0222 77.075 42.7238 77.0167 42.4438 76.9C42.1638 76.78 41.9188 76.6067 41.7088 76.38C41.4988 76.1533 41.3322 75.8767 41.2088 75.55C41.0888 75.22 41.0288 74.845 41.0288 74.425C41.0288 74.0483 41.0822 73.7 41.1888 73.38C41.2988 73.0567 41.4588 72.7783 41.6688 72.545C41.8788 72.3083 42.1388 72.1233 42.4488 71.99C42.7588 71.8567 43.1155 71.79 43.5188 71.79C43.9022 71.79 44.2372 71.8517 44.5238 71.975C44.8138 72.0983 45.0738 72.275 45.3038 72.505L44.9788 72.955ZM49.7152 72.955C49.6785 73.0017 49.6418 73.0383 49.6052 73.065C49.5718 73.0917 49.5218 73.105 49.4552 73.105C49.3918 73.105 49.3302 73.0867 49.2702 73.05C49.2102 73.01 49.1385 72.9667 49.0552 72.92C48.9718 72.87 48.8718 72.8267 48.7552 72.79C48.6418 72.75 48.5002 72.73 48.3302 72.73C48.1135 72.73 47.9235 72.77 47.7602 72.85C47.5968 72.9267 47.4602 73.0383 47.3502 73.185C47.2435 73.3317 47.1635 73.51 47.1102 73.72C47.0568 73.9267 47.0302 74.1617 47.0302 74.425C47.0302 74.6983 47.0585 74.9417 47.1152 75.155C47.1752 75.3683 47.2602 75.5483 47.3702 75.695C47.4802 75.8383 47.6135 75.9483 47.7702 76.025C47.9268 76.0983 48.1035 76.135 48.3002 76.135C48.4968 76.135 48.6552 76.1117 48.7752 76.065C48.8985 76.015 49.0018 75.9617 49.0852 75.905C49.1685 75.845 49.2402 75.7917 49.3002 75.745C49.3635 75.695 49.4335 75.67 49.5102 75.67C49.6102 75.67 49.6852 75.7083 49.7352 75.785L50.0902 76.235C49.9535 76.395 49.8052 76.53 49.6452 76.64C49.4852 76.7467 49.3185 76.8333 49.1452 76.9C48.9752 76.9633 48.7985 77.0083 48.6152 77.035C48.4352 77.0617 48.2552 77.075 48.0752 77.075C47.7585 77.075 47.4602 77.0167 47.1802 76.9C46.9002 76.78 46.6552 76.6067 46.4452 76.38C46.2352 76.1533 46.0685 75.8767 45.9452 75.55C45.8252 75.22 45.7652 74.845 45.7652 74.425C45.7652 74.0483 45.8185 73.7 45.9252 73.38C46.0352 73.0567 46.1952 72.7783 46.4052 72.545C46.6152 72.3083 46.8752 72.1233 47.1852 71.99C47.4952 71.8567 47.8518 71.79 48.2552 71.79C48.6385 71.79 48.9735 71.8517 49.2602 71.975C49.5502 72.0983 49.8102 72.275 50.0402 72.505L49.7152 72.955ZM55.4744 71.87V77H54.2394V74.005C54.2394 73.9283 54.2427 73.845 54.2494 73.755C54.2594 73.6617 54.2711 73.5683 54.2844 73.475C54.2177 73.6283 54.1444 73.7633 54.0644 73.88C54.0577 73.8867 54.0244 73.9333 53.9644 74.02C53.9044 74.1033 53.8261 74.2117 53.7294 74.345C53.6361 74.4783 53.5294 74.63 53.4094 74.8C53.2894 74.9667 53.1677 75.1367 53.0444 75.31C52.7544 75.72 52.4261 76.1833 52.0594 76.7C52.0127 76.77 51.9511 76.8383 51.8744 76.905C51.8011 76.9717 51.7161 77.005 51.6194 77.005H50.8644V71.875H52.0994V74.87C52.0994 74.9467 52.0944 75.0317 52.0844 75.125C52.0777 75.215 52.0677 75.3067 52.0544 75.4C52.1277 75.2367 52.2011 75.1017 52.2744 74.995C52.2777 74.9883 52.3094 74.9433 52.3694 74.86C52.4294 74.7767 52.5061 74.6683 52.5994 74.535C52.6961 74.4017 52.8044 74.2517 52.9244 74.085C53.0444 73.915 53.1661 73.7417 53.2894 73.565C53.5794 73.155 53.9094 72.6917 54.2794 72.175C54.3261 72.1017 54.3877 72.0333 54.4644 71.97C54.5411 71.9033 54.6277 71.87 54.7244 71.87H55.4744ZM61.3045 71.87V77H60.0695V74.005C60.0695 73.9283 60.0728 73.845 60.0795 73.755C60.0895 73.6617 60.1011 73.5683 60.1145 73.475C60.0478 73.6283 59.9745 73.7633 59.8945 73.88C59.8878 73.8867 59.8545 73.9333 59.7945 74.02C59.7345 74.1033 59.6561 74.2117 59.5595 74.345C59.4661 74.4783 59.3595 74.63 59.2395 74.8C59.1195 74.9667 58.9978 75.1367 58.8745 75.31C58.5845 75.72 58.2561 76.1833 57.8895 76.7C57.8428 76.77 57.7811 76.8383 57.7045 76.905C57.6311 76.9717 57.5461 77.005 57.4495 77.005H56.6945V71.875H57.9295V74.87C57.9295 74.9467 57.9245 75.0317 57.9145 75.125C57.9078 75.215 57.8978 75.3067 57.8845 75.4C57.9578 75.2367 58.0311 75.1017 58.1045 74.995C58.1078 74.9883 58.1395 74.9433 58.1995 74.86C58.2595 74.7767 58.3361 74.6683 58.4295 74.535C58.5261 74.4017 58.6345 74.2517 58.7545 74.085C58.8745 73.915 58.9961 73.7417 59.1195 73.565C59.4095 73.155 59.7395 72.6917 60.1095 72.175C60.1561 72.1017 60.2178 72.0333 60.2945 71.97C60.3711 71.9033 60.4578 71.87 60.5545 71.87H61.3045Z" fill="#66727F" />
	<path opacity="0.6" fill-rule="evenodd" clip-rule="evenodd" d="M42.9971 15.4797C42.663 15.6792 42.4148 15.9893 42.3171 16.3586C42.5718 16.3206 42.8276 16.2948 43.0832 16.2691C43.4517 16.2319 43.8198 16.1948 44.1834 16.1213C44.4231 16.0733 44.6391 16.013 44.8323 15.9393C44.7159 15.6923 44.5288 15.5045 44.3031 15.3898C43.8842 15.1784 43.3915 15.2444 42.9971 15.4797ZM42.1947 18.4416C42.5767 18.2929 42.8372 18.1059 43.0524 17.7961C42.9586 17.8095 42.8645 17.8215 42.7711 17.8332C42.5487 17.8593 42.3248 17.8804 42.1018 17.9014C40.9933 18.0058 39.9059 18.1082 39.1336 18.8121C39.3942 18.6981 39.6868 18.6214 40.0116 18.5817C40.3285 18.5435 40.6539 18.5458 40.9715 18.5812C41.3784 18.627 41.8105 18.5923 42.1947 18.4416ZM18.314 17.9013C19.4227 18.0058 20.5098 18.1081 21.2827 18.8121C21.022 18.6981 20.7297 18.6214 20.4043 18.5817C20.0875 18.5435 19.7621 18.5458 19.4448 18.5812C19.0372 18.627 18.6054 18.5923 18.221 18.4416C17.8392 18.2929 17.5782 18.1059 17.3633 17.7961C17.4495 17.8088 17.5347 17.8194 17.6197 17.83L17.6449 17.8332C17.8672 17.8593 18.0911 17.8803 18.314 17.9013ZM17.3323 16.269C16.9641 16.2319 16.5962 16.1948 16.2326 16.1213C15.9925 16.0733 15.7771 16.013 15.5833 15.9393C15.7003 15.6923 15.8868 15.5045 16.1135 15.3898C16.5318 15.1784 17.0248 15.2444 17.4194 15.4797C17.7533 15.6792 18.0011 15.9893 18.0985 16.3586C17.8439 16.3206 17.588 16.2948 17.3323 16.269ZM30.2078 24.2641C30.0908 24.2641 29.9748 24.2653 29.8583 24.2683C29.4369 22.7387 28.3885 20.7017 27.451 19.495C28.0018 19.5641 28.3886 19.4591 28.8656 19.1026C28.1525 18.9577 27.6575 18.6795 27.0934 18.2388C27.0591 18.2063 27.0254 18.1738 26.9916 18.1408C27.4572 18.1489 27.9291 18.1042 28.2886 17.8594C29.0532 17.3373 29.6983 16.4804 30.2078 15.5221C30.7184 16.4803 31.3632 17.3372 32.1277 17.8594C32.487 18.1042 32.9586 18.1489 33.4244 18.1408C33.3986 18.1658 33.3732 18.1907 33.3477 18.2154C33.3396 18.2232 33.3315 18.231 33.3234 18.2388C32.7588 18.6795 32.2639 18.9577 31.5505 19.1026C32.0275 19.459 32.4143 19.564 32.9653 19.495C32.0274 20.7017 30.9788 22.7388 30.5579 24.2683C30.442 24.2653 30.3251 24.2641 30.2078 24.2641ZM39.4464 41.3853C39.5854 40.9602 39.6795 40.5086 39.7207 40.0279L39.7468 39.7238L39.4417 39.7077C39.3491 39.7018 39.2601 39.6803 39.1766 39.6418C38.5863 39.3703 38.3861 38.4271 38.3861 37.8459V37.487L38.3901 37.4888C38.4082 37.4966 38.4269 37.5048 38.4464 37.5118C38.6362 37.5858 38.8556 37.6279 39.0432 37.5202C39.2376 37.4079 39.2946 37.1961 39.2834 36.9851C39.282 36.7814 39.2826 36.579 39.2887 36.3764C39.3772 36.4568 39.4875 36.5083 39.6161 36.5056C39.6982 36.5036 39.7973 36.4752 39.8688 36.4372C39.864 36.6262 39.8618 36.8154 39.8682 37.0052C39.8866 37.5626 39.9759 38.1884 40.3411 38.6333C40.6957 39.0665 41.211 39.2108 41.7539 39.1996H41.7665L41.7785 39.1978C42.186 39.1559 42.3197 38.7877 42.2091 38.4279C42.1326 38.1826 42.0598 37.935 41.9948 37.6869C42.2449 37.8183 42.4492 37.7399 42.6217 37.5565C42.6243 37.5672 42.6272 37.5776 42.6301 37.5881C42.6327 37.5976 42.6354 37.6071 42.6379 37.6168C42.7358 37.9707 42.8372 38.3233 42.9684 38.6669C43.1894 39.248 43.5313 39.9087 44.1144 40.1945C44.5646 40.4153 45.0417 40.3575 45.488 40.1604C45.8793 39.9946 45.912 39.5756 45.6688 39.2592C45.3939 38.9043 45.1667 38.5691 44.974 38.2372C45.1792 38.2895 45.4558 38.2372 45.5879 38.0516C45.8234 38.4729 46.0841 38.8737 46.3777 39.238C47.1543 40.2003 48.3897 40.7773 49.5771 40.1588C49.6913 40.0993 49.7808 40.0041 49.8241 39.8811C49.9218 39.6067 49.7593 39.3354 49.5422 39.1735C49.0764 38.8279 48.6605 38.4406 48.2798 38.0235C48.4349 38.035 48.5935 37.9992 48.7243 37.9102C48.7933 37.8625 48.8527 37.803 48.8969 37.7316C48.9578 37.6342 48.9823 37.5345 48.9818 37.4366C49.2073 37.6442 49.4367 37.8483 49.6681 38.0462C50.3983 38.6717 51.4964 39.4343 52.5087 39.2737C53.031 39.1914 53.4285 38.881 53.7187 38.4492C53.8017 38.3264 53.8437 38.1827 53.8234 38.035C53.7871 37.7751 53.5789 37.6066 53.3469 37.518C52.7396 37.2872 52.1732 37.0167 51.6378 36.7108C51.7688 36.6919 51.8961 36.6431 52.0127 36.5551C52.2199 36.3973 52.2857 36.1708 52.241 35.9619C52.3282 35.9974 52.416 36.0326 52.5043 36.0661C52.6141 36.1079 52.7235 36.1504 52.8328 36.1928C53.0875 36.2917 53.3418 36.3904 53.5998 36.4806C53.9365 36.5983 54.297 36.7131 54.6499 36.7703C55.876 36.9664 57.3816 36.428 57.713 35.1165C57.7497 34.9677 57.7425 34.8153 57.671 34.678C57.5446 34.435 57.2792 34.3438 57.0204 34.3338C56.1895 34.304 55.3226 34.1831 54.4528 33.9947C54.6636 33.9059 54.836 33.7519 54.9231 33.5122C55.0169 33.2506 54.9382 33.0226 54.7766 32.8495C54.9123 32.8596 55.0479 32.8674 55.1821 32.8718C55.9176 32.8989 56.6838 32.917 57.4126 32.7948C58.3172 32.6419 59.2174 32.0875 59.6581 31.2673C59.8699 30.8733 59.9626 30.4382 59.9269 29.9924C59.9137 29.8298 59.8535 29.6768 59.7343 29.564C59.5213 29.3617 59.2196 29.3633 58.957 29.4485C58.1243 29.7166 57.2596 29.897 56.391 30.0128C56.5613 29.8506 56.6685 29.6293 56.6623 29.3379C56.6575 29.0898 56.5112 28.8972 56.3126 28.7794C57.017 28.591 57.7394 28.3805 58.3909 28.0554C59.6717 27.4151 60.597 25.9522 60.0329 24.5211C59.9704 24.364 59.8641 24.2311 59.7106 24.1555C59.4409 24.0212 59.1437 24.1153 58.9117 24.2796C58.241 24.7561 57.5142 25.1774 56.7527 25.5463C56.7754 25.5086 56.7966 25.4696 56.8158 25.4294C56.9551 25.1338 56.9763 24.766 56.7558 24.5022C56.6397 24.3624 56.4778 24.2844 56.3042 24.2613C56.8183 23.915 57.3228 23.5424 57.7607 23.1147C58.8931 22.0083 59.4057 20.0877 58.3239 18.7683C58.2125 18.6326 58.0674 18.5338 57.8924 18.505C57.5751 18.454 57.3012 18.6497 57.1097 18.8824C56.6023 19.4987 56.0303 20.0866 55.4177 20.6445C55.4297 20.5951 55.4381 20.5454 55.4428 20.4946C55.4749 20.1856 55.3739 19.8691 55.1216 19.6759C54.937 19.5347 54.7062 19.4903 54.4804 19.5297C54.8349 19.1102 55.1701 18.6714 55.4473 18.2063C56.3126 16.7549 56.2386 14.6317 54.7788 13.5783C54.6289 13.4697 54.4527 13.4089 54.2666 13.4278C53.93 13.4629 53.708 13.7357 53.5838 14.0276C53.2917 14.7123 52.9418 15.3819 52.5481 16.0342C52.5255 15.7894 52.4207 15.5623 52.1946 15.4159C51.939 15.251 51.6202 15.2599 51.3469 15.3761C51.3059 15.393 51.2655 15.4129 51.2261 15.4349C51.7461 14.2366 52.1676 12.8587 51.9337 11.5763C51.8566 11.1518 51.7093 10.7499 51.4868 10.3806C51.105 9.74675 50.5635 9.17989 49.8528 8.92779C49.4308 8.77816 49.0158 8.95483 48.9879 9.43405C48.9577 9.95548 48.8907 10.475 48.7933 10.9888C48.3102 13.5319 47.1038 16.3171 45.5952 18.4318C45.3964 18.2688 45.1525 18.1289 44.8586 18.0128C45.03 18.6626 44.9001 19.2318 44.5803 19.8036C44.15 20.5732 43.448 21.1039 42.7422 21.6374C42.1094 22.1158 41.4735 22.5965 41.0274 23.2538C40.3482 24.2562 40.1138 25.6395 40.7605 26.6374C41.3238 27.5085 42.6066 27.825 43.5144 27.3323C43.6642 27.2511 43.875 27.2176 43.9892 27.3823C44.1033 27.5458 43.945 27.763 43.8211 27.8708C43.1632 28.4452 43.0739 29.4966 43.6023 30.1877C43.7106 30.33 43.82 30.5829 43.6737 30.7351C43.5755 30.8376 43.3745 30.6974 43.2952 30.6271C42.7708 30.1673 42.1572 29.779 41.448 29.7082C40.7447 29.6367 40.0751 29.8988 39.4881 30.2667C39.2274 30.43 38.9159 30.5042 38.61 30.4669C38.5341 30.4579 38.459 30.4422 38.3861 30.4196C38.4007 29.4472 39.0491 28.0415 39.9188 27.5894L40.1117 27.4889L40.0735 27.2748C39.9866 26.7839 39.5886 26.2474 39.1468 26.0166L38.9812 25.9294L38.8314 26.0425C38.5558 26.2508 38.1735 26.3405 37.8333 26.3246C37.28 26.2996 36.5696 25.967 36.0719 25.7321C35.9741 25.6858 35.8765 25.6392 35.7791 25.5926C35.7197 25.5643 35.6603 25.5359 35.6011 25.5077C35.6226 24.7884 35.7178 24.0694 35.941 23.3836C36.2151 22.54 36.6611 21.8143 37.292 21.1966C37.3204 21.2723 37.3542 21.3459 37.3916 21.4175C37.7285 22.0617 38.2865 22.4231 39.015 22.453C38.6457 22.0521 38.4626 21.6122 38.5924 21.0135C38.7509 20.277 39.4311 19.7204 40.1716 19.6459C40.9122 19.5708 41.431 19.9607 41.6663 20.6119C42.3234 20.4293 42.8526 19.9272 43.149 19.3204C43.3793 18.8479 43.4656 18.2771 43.2621 17.7637C44.1406 17.6166 45.028 17.3342 45.6262 16.7414C46.2818 16.0915 46.3734 15.2167 46.3282 14.3389C46.0758 15.0052 45.7414 15.4573 45.2193 15.7571C45.2929 15.5754 45.3359 15.3822 45.3541 15.1497C45.4029 14.5441 45.2245 13.9501 44.7701 13.4982C44.2669 12.9993 43.5596 12.811 42.8657 12.8766C42.5905 12.5417 42.1046 12.3864 41.663 12.5126L41.5058 12.5567C41.2706 12.3736 40.9778 12.2885 40.6744 12.2622C41.2585 10.9992 42.1247 9.62207 43.2244 8.88739C43.2431 9.58991 43.0413 10.3123 42.7326 10.9811L42.5969 11.2758L42.9025 11.3845C43.3167 11.5304 43.7344 11.6884 44.136 11.8667L44.1323 11.8774L44.3791 11.9939C44.7398 12.1646 45.0963 12.3518 45.4443 12.5453L45.5026 12.5784L45.638 12.6569C45.957 12.842 46.2699 13.0364 46.5766 13.2405L46.952 13.4898L47.0313 13.0463C47.2901 11.6024 47.0656 10.1788 46.2914 8.92644C45.4239 7.52414 44.0079 6.53162 42.4995 5.92199L42.3959 5.88071L42.2912 5.91697C40.88 6.40378 39.7725 7.71058 38.9195 8.88427C38.2378 9.8232 37.686 10.8789 37.1331 11.937C36.7199 12.7275 36.3061 13.5193 35.8369 14.2646C35.5154 14.3972 35.1656 14.4997 34.8253 14.508C34.4042 14.5186 33.9749 14.3995 33.5881 14.2074C33.8688 14.9259 34.2652 15.3877 34.887 15.5852C34.6883 15.824 34.477 16.0529 34.252 16.2704L34.2495 16.2687C33.444 15.7467 32.9315 14.9803 32.6368 14.1139C32.9349 14.0586 33.2274 13.9897 33.5071 13.9066C34.0581 13.7413 35.0495 13.367 35.0495 12.6603C35.0495 12.5377 35.0225 12.4242 34.9747 12.3214C34.9289 12.2221 34.9398 12.1872 35.0473 12.1397C35.2356 12.0563 35.3967 11.8946 35.4978 11.7105C35.5219 11.6662 35.546 11.6217 35.5702 11.5769C35.8087 11.1364 36.0568 10.6781 36.3948 10.311C36.4482 10.2525 36.6313 10.0706 36.7114 10.0662C36.8521 10.0698 37.0011 10.0022 37.0818 9.8853C37.1239 9.82392 37.1515 9.75355 37.1596 9.68011C37.1859 9.45462 37.0432 9.25478 36.854 9.14699C36.8319 9.13414 36.8099 9.12325 36.7862 9.11297C36.9623 8.8059 36.9967 8.38108 36.9634 7.98279C36.883 7.04524 36.447 6.26509 35.7813 5.61078C35.6292 5.46153 35.3916 5.2527 35.2075 5.10926L35.2245 5.00511C35.328 4.37854 34.8063 4.00254 34.2651 3.86548C33.763 3.73829 33.2393 3.78566 32.8575 4.17004C32.7361 4.29262 32.6256 4.43439 32.5268 4.5848L32.4006 4.54548C32.341 4.52843 32.2833 4.51095 32.2262 4.49367C32.1077 4.45781 31.9921 4.42279 31.8689 4.39418C31.9052 4.25348 31.9248 4.10809 31.9248 3.96014C31.9248 3.37821 31.6344 2.86431 31.1923 2.55338L31.1407 2.39007C31.1786 2.38951 31.2174 2.3842 31.2562 2.3734C31.6093 2.27013 31.6832 1.78584 31.6832 1.47402C31.6832 1.16225 31.6093 0.677717 31.2562 0.574956C31.2113 0.562158 31.1675 0.557411 31.1239 0.558528C31.1253 0.514454 31.1197 0.470893 31.1072 0.427098C31.0039 0.0723233 30.5204 0 30.2078 0C29.8963 0 29.4121 0.0723233 29.3091 0.427098C29.2963 0.470846 29.2912 0.514408 29.2923 0.558528C29.2488 0.557411 29.2047 0.562158 29.1609 0.574956C28.8063 0.677717 28.7333 1.16225 28.7333 1.47402C28.7333 1.78584 28.8063 2.27013 29.1603 2.3734C29.1986 2.3842 29.2376 2.38951 29.2753 2.39007L29.2237 2.55338C28.7813 2.86431 28.4912 3.37821 28.4912 3.96014C28.4912 4.10809 28.5105 4.25348 28.5476 4.39418C28.4233 4.42297 28.3067 4.45823 28.1873 4.49433C28.1309 4.51139 28.0738 4.52864 28.0151 4.54548L27.8897 4.5815C27.8841 4.5734 27.8786 4.56558 27.8724 4.55832C27.777 4.41824 27.6729 4.28536 27.5587 4.17008C27.1774 3.78571 26.6536 3.73833 26.1512 3.86553C25.6102 4.00254 25.0885 4.37854 25.1915 5.00515L25.2147 5.14929C25.2051 5.15625 25.1955 5.16331 25.1857 5.17044C25.0059 5.30168 24.7879 5.4608 24.6346 5.61087C23.9689 6.26518 23.5326 7.04533 23.4531 7.98288C23.4191 8.38117 23.4542 8.80599 23.6295 9.11306C23.6069 9.12339 23.5838 9.13428 23.5623 9.14708C23.3733 9.25487 23.2301 9.45471 23.2563 9.6802C23.2653 9.75369 23.2914 9.82401 23.3342 9.88539C23.4151 10.0023 23.5645 10.0699 23.7052 10.0662C23.785 10.0707 23.9678 10.2527 24.0214 10.3111C24.3578 10.6761 24.6045 11.1313 24.8421 11.5695C24.8677 11.6168 24.8933 11.6638 24.9188 11.7106C25.0192 11.8947 25.1799 12.0563 25.3687 12.1398C25.4761 12.1873 25.4867 12.2221 25.4415 12.3215C25.3939 12.4243 25.3665 12.5378 25.3665 12.6603C25.3665 13.3671 26.3582 13.7414 26.9086 13.9066C27.1883 13.9898 27.4802 14.0582 27.7786 14.114C27.485 14.9804 26.972 15.7468 26.1661 16.2688L26.1639 16.2705C25.9395 16.0536 25.7296 15.8253 25.5303 15.5869C26.148 15.384 26.5505 14.919 26.8276 14.2075C26.4411 14.3996 26.0121 14.5187 25.5906 14.5081C25.2506 14.4997 24.9014 14.3972 24.5793 14.2647C24.1095 13.5187 23.6952 12.7261 23.2817 11.935C22.729 10.8776 22.1775 9.82268 21.4964 8.88436C20.6438 7.71067 19.5368 6.40387 18.1247 5.91706L18.02 5.88081L17.9175 5.92209C16.4081 6.53172 14.9915 7.52423 14.1249 8.92653C13.3506 10.179 13.1258 11.6025 13.385 13.0464L13.4639 13.4899L13.8399 13.2406C14.1468 13.0365 14.4594 12.842 14.778 12.657L14.9136 12.5785L14.9722 12.5453C15.3201 12.3519 15.6762 12.1646 16.0365 11.994L16.2842 11.8774L16.2802 11.8668C16.6822 11.6885 17.0994 11.5305 17.5136 11.3845L17.8193 11.2759L17.6839 10.9812C17.3752 10.3124 17.1729 9.59 17.1915 8.88748C18.2913 9.62216 19.158 10.9993 19.7421 12.2623C19.4381 12.2886 19.1456 12.3737 18.9103 12.5568L18.7535 12.5127C18.3116 12.3865 17.8263 12.5418 17.5503 12.8767C16.8564 12.8111 16.1494 12.9995 15.6467 13.4983C15.1914 13.9502 15.0131 14.5442 15.0619 15.1498C15.0801 15.3823 15.1228 15.5755 15.1965 15.7572C14.6736 15.4575 14.3407 15.0053 14.0878 14.339C14.0429 15.2169 14.1341 16.0916 14.7903 16.7414C15.3885 17.3343 16.2755 17.6167 17.1545 17.7638C16.9509 18.2772 17.037 18.8479 17.267 19.3205C17.5631 19.9273 18.0932 20.4294 18.7499 20.612C18.9849 19.9608 19.5038 19.5709 20.2444 19.646C20.9848 19.7205 21.6656 20.277 21.8247 21.0136C21.9531 21.6123 21.7706 22.0523 21.4016 22.4531C22.1292 22.4232 22.688 22.0618 23.0241 21.4176C23.0618 21.346 23.0955 21.2724 23.1246 21.1967C23.7546 21.8145 24.2011 22.5401 24.4752 23.3836C24.698 24.0695 24.7937 24.7886 24.8158 25.5078C24.7371 25.545 24.6588 25.5825 24.5804 25.6199C24.5019 25.6574 24.4234 25.6949 24.3446 25.7322C23.8463 25.9671 23.1362 26.2997 22.5833 26.3247C22.2428 26.3407 21.8601 26.2508 21.5846 26.0426L21.4347 25.9295L21.2692 26.0167C20.8273 26.2474 20.4301 26.784 20.3425 27.2749L20.3043 27.489L20.4972 27.5895C21.3672 28.0417 22.0153 29.4473 22.0293 30.4197C21.9568 30.4424 21.8819 30.458 21.8062 30.467C21.5006 30.5043 21.1883 30.4301 20.9278 30.2668C20.3409 29.899 19.6718 29.6369 18.9679 29.7083C18.2587 29.7791 17.6455 30.1674 17.1207 30.6272C17.0417 30.6975 16.8413 30.8377 16.7425 30.7352C16.5957 30.583 16.7051 30.3302 16.8137 30.1878C17.3426 29.4967 17.2533 28.4453 16.5951 27.8709C16.4715 27.7631 16.3138 27.5459 16.4271 27.3824C16.5415 27.2177 16.7523 27.2512 16.9022 27.3324C17.8091 27.8251 19.0927 27.5085 19.656 26.6375C20.3018 25.6396 20.0679 24.2563 19.3883 23.2539C18.9424 22.5963 18.3065 22.1155 17.6736 21.6369C16.9682 21.1036 16.2665 20.573 15.8359 19.8037C15.5158 19.2319 15.386 18.6627 15.5577 18.0129C15.2643 18.129 15.0195 18.2689 14.8207 18.4319C13.3121 16.3172 12.1062 13.5319 11.6231 10.9889C11.5256 10.4751 11.4581 9.95558 11.4284 9.43414C11.4002 8.95497 10.9854 8.77825 10.564 8.92788C9.85223 9.17999 9.31204 9.74684 8.92953 10.3807C8.70656 10.75 8.55921 11.1519 8.48251 11.5764C8.24958 12.8587 8.66984 14.2368 9.1896 15.435C9.15055 15.413 9.11043 15.3931 9.0691 15.3761C8.79605 15.26 8.47688 15.251 8.2217 15.416C7.99561 15.5624 7.8915 15.7895 7.86763 16.0343C7.47483 15.382 7.12405 14.7124 6.83281 14.0277C6.70794 13.7358 6.48608 13.4631 6.14992 13.4279C5.96339 13.4089 5.78673 13.4698 5.63682 13.5784C4.17737 14.6317 4.1029 16.755 4.96883 18.2064C5.24677 18.6715 5.58102 19.1102 5.93607 19.5298C5.71003 19.4904 5.47919 19.5348 5.29447 19.676C5.04227 19.8691 4.94132 20.1857 4.97292 20.4947C4.97828 20.5455 4.98637 20.5952 4.99792 20.6446C4.38591 20.0867 3.81436 19.4988 3.30642 18.8825C3.11453 18.6498 2.84162 18.4541 2.52357 18.5051C2.34872 18.5339 2.20318 18.6327 2.09219 18.7684C1.01106 20.0878 1.52314 22.0083 2.6556 23.1148C3.09368 23.5424 3.59822 23.9151 4.11277 24.2614C3.93792 24.2845 3.77712 24.3624 3.66045 24.5023C3.44027 24.7661 3.46112 25.1339 3.60055 25.4295C3.61991 25.4697 3.64085 25.5087 3.66394 25.5464C2.90198 25.1775 2.17461 24.7562 1.50513 24.2797C1.27275 24.1154 0.975084 24.0214 0.705198 24.1556C0.5525 24.2313 0.445598 24.3641 0.383513 24.5212C-0.181065 25.9523 0.744153 27.4152 2.02545 28.0555C2.67645 28.3806 3.4001 28.591 4.10388 28.7795C3.90469 28.8973 3.75949 29.0899 3.75399 29.338C3.74724 29.6294 3.85461 29.8507 4.02486 30.0129C3.1566 29.8971 2.29147 29.7168 1.45929 29.4486C1.19601 29.3634 0.895454 29.3618 0.68258 29.5641C0.56246 29.6768 0.501865 29.8299 0.489113 29.9925C0.453649 30.4383 0.546729 30.8735 0.758207 31.2674C1.19866 32.0876 2.09907 32.642 3.00414 32.7949C3.73203 32.9171 4.49854 32.899 5.23383 32.8719C5.36898 32.8675 5.50423 32.8597 5.63956 32.8496C5.47863 33.0227 5.39895 33.2507 5.49324 33.5123C5.57967 33.752 5.75261 33.906 5.96339 33.9948C5.09374 34.1832 4.2267 34.3041 3.39601 34.3339C3.13734 34.3439 2.87117 34.435 2.74454 34.6781C2.67329 34.8154 2.66603 34.9678 2.70321 35.1165C3.03458 36.4281 4.54103 36.9666 5.76615 36.7703C6.11865 36.7132 6.47952 36.5984 6.8161 36.4807C7.0772 36.3895 7.33424 36.2897 7.59147 36.1898C7.69807 36.1484 7.80469 36.107 7.91165 36.0661C7.99999 36.0327 8.08739 35.9975 8.1753 35.962C8.1309 36.1709 8.19718 36.3974 8.40428 36.5552C8.51937 36.6432 8.64694 36.692 8.77781 36.7109C8.24246 37.0168 7.6769 37.2873 7.06895 37.5181C6.83704 37.6067 6.6285 37.7752 6.5928 38.0351C6.57209 38.1827 6.61458 38.3266 6.69691 38.4493C6.98755 38.8811 7.38454 39.1914 7.90714 39.2738C8.91967 39.4343 10.0176 38.6718 10.7479 38.0462C10.9793 37.8484 11.2088 37.6443 11.4349 37.4367C11.4337 37.5345 11.4587 37.6343 11.5191 37.7317C11.5634 37.8031 11.6231 37.8626 11.6928 37.9103C11.8237 37.9993 11.9807 38.0351 12.1359 38.0236C11.7552 38.4406 11.3395 38.828 10.874 39.1736C10.6571 39.3355 10.4944 39.6068 10.5924 39.8812C10.6358 40.0042 10.7246 40.0994 10.8392 40.1589C12.0266 40.7774 13.262 40.2004 14.0385 39.2381C14.3321 38.8738 14.5923 38.473 14.8281 38.0517C14.9609 38.2373 15.2367 38.2896 15.4421 38.2373C15.249 38.5692 15.0218 38.9044 14.7483 39.2593C14.504 39.5757 14.537 39.9947 14.9278 40.1605C15.3746 40.3576 15.8513 40.4154 16.3015 40.1946C16.8852 39.9088 17.2276 39.2481 17.4479 38.667C17.5787 38.3233 17.6798 37.9708 17.7786 37.6169C17.7808 37.6089 17.783 37.601 17.7852 37.5932C17.7885 37.5811 17.7916 37.569 17.7945 37.5566C17.9665 37.74 18.1722 37.8184 18.4209 37.687C18.357 37.9351 18.2833 38.1827 18.2071 38.428C18.096 38.7878 18.2302 39.1559 18.6378 39.1979L18.65 39.1997H18.662C19.2047 39.2109 19.7207 39.0666 20.0752 38.6334C20.4409 38.1885 20.5296 37.5627 20.5478 37.0053C20.5542 36.8155 20.5522 36.6263 20.5472 36.4373C20.6187 36.4753 20.718 36.5037 20.8007 36.5057C20.9288 36.5084 21.0395 36.4569 21.1278 36.3765C21.1331 36.5791 21.1339 36.7815 21.1329 36.9852C21.121 37.1962 21.1785 37.408 21.3731 37.5203C21.5604 37.628 21.7801 37.5859 21.9696 37.5119C21.9904 37.5043 22.0106 37.4955 22.0299 37.4871L22.0307 37.846C22.0307 38.4271 21.8303 39.3704 21.2399 39.6419C21.1559 39.6804 21.0669 39.7019 20.9745 39.7078L20.6697 39.7239L20.6954 40.0279C20.7367 40.5085 20.8307 40.9602 20.9695 41.3853C20.5772 41.4068 20.1873 41.3414 19.8093 41.1569C19.2353 40.8762 18.7753 40.6554 18.1185 40.6241C17.4019 40.5901 16.6503 40.8446 16.1387 41.3557C15.3661 42.1275 15.269 43.1544 15.1724 44.175C15.1664 44.2384 15.1604 44.3018 15.1543 44.3651C15.0825 45.104 14.73 45.5508 14.1748 45.9207C14.4595 46.0441 14.7398 46.1125 15.02 46.1225C15.1478 46.1267 15.296 46.1256 15.4206 46.0951C15.3846 46.8987 15.1559 47.688 14.7403 48.3789C14.5292 48.7291 14.5957 49.1568 15.0155 49.3055C15.7551 49.5674 16.9392 49.6663 17.4874 48.9846L17.4924 48.9785L17.4955 48.9806C17.882 49.3627 18.2081 50.099 18.1667 50.6654C18.0266 50.6711 17.8454 50.6822 17.6679 50.693C17.5172 50.7022 17.3692 50.7112 17.2512 50.7167C17.1004 50.7237 16.9452 50.7316 16.787 50.7397C15.9203 50.7838 14.9635 50.8325 14.1376 50.76C13.4541 50.7 12.4327 50.4834 11.9102 50.0028C11.8137 49.9149 11.731 49.8173 11.6591 49.7111C12.3907 49.1914 12.9627 48.4715 13.3036 47.6227C13.7748 46.455 13.762 45.1587 13.2685 44.0003C12.775 42.8418 11.8491 41.9338 10.6814 41.4637C9.51296 40.9934 8.21742 41.006 7.05797 41.4995C5.89945 41.9935 4.99247 42.9182 4.52195 44.086C4.2341 44.8023 4.12673 45.5662 4.20101 46.3176C3.58533 47.0475 3.36971 47.8458 4.0916 48.706C4.1487 48.775 4.20292 48.826 4.26938 48.8855C4.22191 48.9464 4.29297 49.1183 4.36139 49.2467C4.53931 49.5806 4.76145 49.9018 4.99108 50.2011C5.57846 50.9663 6.46212 51.9857 7.3555 52.3775C7.93902 52.6346 8.62255 52.8007 9.32838 52.6888C10.5389 52.4959 12.2065 52.3818 13.5256 52.6522C14.0292 52.7559 14.5303 52.8921 15.0304 53.0281C15.3111 53.1044 15.5915 53.1806 15.8719 53.2509C16.1365 53.3163 16.4022 53.3793 16.6696 53.434C17.7956 53.6653 18.9227 53.7436 20.0065 53.281C20.5655 53.0427 21.0657 52.6904 21.4191 52.1889C21.5408 52.0159 21.6237 51.8206 21.5944 51.6052C21.5659 51.3917 21.4347 51.2169 21.3086 51.0489C21.3025 51.0408 21.2965 51.0328 21.2904 51.0247C20.9005 50.5049 20.6825 49.9419 20.6222 49.3443C20.8472 49.2855 21.0571 49.1903 21.262 49.0647C21.4317 48.9612 21.5824 48.8308 21.636 48.6303C21.6874 48.4378 21.6283 48.2468 21.5715 48.0631L21.5651 48.0423C21.5613 48.0287 21.5572 48.0151 21.553 48.0016C21.5463 47.9797 21.5394 47.958 21.533 47.9362C21.5322 47.9336 21.5314 47.931 21.5307 47.9284C21.5293 47.9232 21.5279 47.9183 21.526 47.9136C21.6201 47.9315 21.7226 47.9251 21.8253 47.8905C21.9347 47.8542 22.0184 47.7947 22.0776 47.7194C22.3176 48.1822 22.6274 48.4509 23.175 48.4442C23.4599 48.4417 23.7998 48.3722 24.0755 48.2954C24.5475 48.1634 24.6536 47.74 24.3678 47.3672C24.0906 47.004 23.8818 46.6406 23.7149 46.2261C23.9971 46.2789 24.301 46.2704 24.634 46.1939C24.1732 45.8579 23.8855 45.5519 23.8528 45.0378C23.937 45.0998 24.0225 45.1606 24.109 45.2197C24.7967 45.6948 25.5233 46.0515 26.2758 46.3676C26.1913 47.3056 25.6129 48.3973 24.8171 48.8564C24.4551 49.0652 24.0627 49.143 23.6473 49.0908L23.308 49.0484L23.3146 49.3906C23.3291 50.1267 23.8028 50.7078 24.4336 50.9772C23.9133 51.8809 23.2605 52.7036 22.5118 53.4295C21.6036 54.3098 20.5572 55.0504 19.4337 55.6315C19.0006 55.8564 18.5615 56.0611 18.1065 56.2383C17.1036 56.6295 15.8367 56.9124 14.7655 56.6759C14.5765 56.6347 14.3858 56.5768 14.2092 56.4978C13.8739 56.3486 13.5449 56.111 13.5884 55.7018C13.6244 55.3613 13.9744 55.1997 14.2806 55.1871C14.8095 55.1649 15.1252 55.4929 15.3234 55.9016C15.6257 54.9641 15.2117 54.1847 14.3174 53.8113C13.8558 53.6184 13.3391 53.5587 12.8438 53.6207C12.2717 53.6934 11.7156 53.929 11.2923 54.3245C10.3566 55.2001 10.4895 56.6457 11.4469 57.4476C12.2554 58.126 13.5463 58.398 14.576 58.4552C15.9924 58.5333 17.3676 58.2562 18.6589 57.6743C18.9417 57.5475 19.2179 57.4088 19.4898 57.2604C19.4909 57.2922 19.4951 57.3259 19.5032 57.3596C19.5481 57.5565 19.6991 57.7089 19.885 57.7792C18.9427 58.4047 17.9186 58.9585 16.8887 59.4213C16.6321 59.5361 16.3982 59.7541 16.3556 60.0443C16.3002 60.4239 16.5852 60.6976 16.894 60.8582C17.6576 61.2548 18.5059 61.5572 19.3711 61.3448C19.8861 61.2185 20.3321 60.9308 20.7396 60.6012L20.7441 60.5975L20.7483 60.5942L20.7945 60.554C20.9016 60.4607 21.0088 60.3673 21.1179 60.2762L21.1282 60.2682L21.1382 60.2578C21.6144 59.782 22.0749 59.2929 22.519 58.7886C22.5645 58.9247 22.6605 59.0496 22.8035 59.1405C22.929 59.2206 23.0552 59.2544 23.1775 59.2507C22.718 59.8707 22.2535 60.4851 21.7606 61.0797C21.5823 61.2942 21.4218 61.5572 21.4413 61.848C21.459 62.1026 21.6077 62.3001 21.8095 62.4439C22.4875 62.9307 23.2749 63.1046 24.0949 63.1498C24.4706 63.1704 24.8101 63.0865 25.0909 62.8277C25.3499 62.5899 25.5246 62.2382 25.6709 61.9216C25.9963 61.221 26.297 60.5071 26.58 59.7861C26.676 60.0307 26.8817 60.2252 27.186 60.3019C27.4508 60.3679 27.7039 60.2918 27.9095 60.1378L27.8929 60.2194C27.8329 60.5236 27.7753 60.8284 27.7177 61.1332C27.6718 61.3764 27.6259 61.6195 27.5787 61.8622C27.4338 62.6084 27.6216 63.3063 28.3586 63.6422C29.4069 64.1193 31.0091 64.1193 32.0566 63.6422C32.7943 63.3063 32.9822 62.6084 32.8373 61.8622C32.7261 61.289 32.6124 60.7172 32.4987 60.1453L32.4957 60.13C32.7028 60.2889 32.9597 60.3692 33.2298 60.3019C33.5346 60.2252 33.7403 60.0307 33.8361 59.7862C34.1185 60.5072 34.4197 61.2211 34.7452 61.9217C34.8909 62.2383 35.0656 62.59 35.3252 62.8278C35.6066 63.0865 35.9448 63.1705 36.3208 63.1499C37.1406 63.1046 37.9283 62.9307 38.6065 62.444C38.8081 62.3001 38.9566 62.1027 38.9741 61.8481C38.9942 61.5573 38.8338 61.2943 38.6551 61.0797C38.1628 60.4851 37.6975 59.8702 37.2374 59.2507C37.3704 59.2534 37.4976 59.2146 37.6123 59.1405C37.7557 59.0496 37.8509 58.9248 37.8967 58.7886C38.3411 59.293 38.8017 59.782 39.2776 60.2579L39.2876 60.2682L39.2976 60.2763C39.4216 60.3798 39.5437 60.4863 39.6652 60.5923L39.6675 60.5943L39.672 60.5975L39.6762 60.6012C40.0842 60.9308 40.5303 61.2186 41.0449 61.3448C41.9102 61.5572 42.7587 61.2548 43.5218 60.8583C43.8306 60.6977 44.1155 60.4239 44.0602 60.0444C44.0172 59.7541 43.7842 59.5361 43.5271 59.4214C42.4969 58.9586 41.4731 58.4047 40.5308 57.7793C40.7164 57.7089 40.8673 57.5565 40.9126 57.3597C40.9207 57.326 40.9251 57.2922 40.9262 57.2604C41.1978 57.4088 41.4741 57.5476 41.7569 57.6744C43.0484 58.2562 44.423 58.5334 45.8402 58.4552C46.8692 58.3981 48.1602 58.126 48.9694 57.4477C49.9261 56.6457 50.059 55.2002 49.1237 54.3246C48.7003 53.9291 48.144 53.6935 47.5726 53.6207C47.077 53.5587 46.56 53.6184 46.0981 53.8113C45.204 54.1847 44.7895 54.9642 45.0929 55.9016C45.2905 55.493 45.6065 55.165 46.1352 55.1871C46.4416 55.1998 46.7919 55.3614 46.8276 55.7019C46.8703 56.1111 46.542 56.3486 46.2066 56.4979C46.0305 56.5769 45.8402 56.6347 45.6509 56.6759C44.579 56.9125 43.3119 56.6296 42.3095 56.2383C41.8542 56.0611 41.4152 55.8565 40.9823 55.6316C39.8591 55.0504 38.8122 54.3098 37.9045 53.4296C37.1553 52.7036 36.5022 51.8809 35.9816 50.9772C36.6135 50.7079 37.0864 50.1267 37.1012 49.3907L37.1076 49.0485L36.7682 49.0908C36.3539 49.143 35.961 49.0653 35.5987 48.8565C35.2832 48.675 35.0024 48.3931 34.7727 48.0623C35.1396 47.8566 35.4451 47.5443 35.676 47.1569C34.9799 47.0385 34.6064 46.8071 34.2899 46.3039C34.9882 46.0041 35.6645 45.663 36.3065 45.2197C36.3934 45.1606 36.479 45.0998 36.5636 45.0378C36.5315 45.5519 36.2429 45.8579 35.7818 46.1939C36.115 46.2705 36.419 46.2789 36.7015 46.2261C36.5338 46.6406 36.3249 47.004 36.0483 47.3672C35.7628 47.74 35.868 48.1634 36.3408 48.2954C36.616 48.3722 36.956 48.4417 37.2404 48.4442C37.7889 48.451 38.0982 48.1822 38.3388 47.7194C38.3976 47.7947 38.4815 47.8542 38.5909 47.8905C38.6933 47.9251 38.7954 47.9315 38.8895 47.9136C38.887 47.9206 38.8856 47.9281 38.8831 47.9362C38.8776 47.9555 38.8715 47.9748 38.8653 47.9942C38.8603 48.0101 38.8552 48.0261 38.8504 48.0423L38.8436 48.0643C38.7872 48.2477 38.7286 48.4382 38.7801 48.6303C38.8337 48.8308 38.9841 48.9612 39.1536 49.0647C39.359 49.1903 39.5689 49.2855 39.7936 49.3443C39.7333 49.9419 39.5154 50.5048 39.1252 51.0247C39.1187 51.0333 39.1123 51.0419 39.1058 51.0506C38.9804 51.2181 38.8499 51.3924 38.8217 51.6052C38.7921 51.8206 38.875 52.0159 38.9978 52.1889C39.35 52.6904 39.8511 53.0427 40.4096 53.281C41.4931 53.7436 42.6199 53.6653 43.7462 53.434C44.0139 53.3793 44.2793 53.3163 44.5439 53.2509C44.8242 53.1806 45.1045 53.1044 45.3851 53.0282C45.8854 52.8922 46.3867 52.7559 46.8905 52.6522C48.209 52.3818 49.8768 52.4959 51.0874 52.6888C51.7938 52.8007 52.4765 52.6346 53.061 52.3775C53.9536 51.9857 54.8371 50.9663 55.4249 50.2011C55.6546 49.9018 55.877 49.5806 56.0543 49.2467C56.1233 49.1182 56.1938 48.9464 56.1465 48.8855C56.2132 48.826 56.2672 48.775 56.3242 48.706C57.0465 47.8458 56.8308 47.0475 56.2148 46.3171C56.2924 45.5348 56.1732 44.7395 55.8586 44.0004C55.3654 42.8418 54.4396 41.9346 53.272 41.4638C52.1036 40.9935 50.8074 41.006 49.6485 41.4995C48.4899 41.9935 47.5828 42.9182 47.1119 44.0861C46.6421 45.2545 46.6541 46.5507 47.1476 47.7088C47.4931 48.5219 48.0511 49.2105 48.757 49.7112C48.685 49.8173 48.6021 49.9149 48.5058 50.0028C47.9828 50.4835 46.962 50.7001 46.2781 50.7601C45.4527 50.8325 44.4965 50.7839 43.6297 50.7397C43.4712 50.7317 43.3157 50.7238 43.1646 50.7168C43.0464 50.7113 42.8982 50.7022 42.7473 50.693C42.57 50.6822 42.3891 50.6712 42.2494 50.6654C42.2086 50.0991 42.5346 49.3628 42.9211 48.9807L42.9234 48.9785L42.9289 48.9846C43.4768 49.6663 44.6612 49.5674 45.4003 49.3056C45.8198 49.1569 45.8868 48.7292 45.6761 48.3789C45.2593 47.6881 45.031 46.8988 44.9953 46.0952C45.1192 46.1257 45.2691 46.1267 45.3963 46.1225C45.6761 46.1125 45.9569 46.0441 46.241 45.9208C45.6862 45.5509 45.3333 45.104 45.2618 44.3652C45.2557 44.3022 45.2497 44.2392 45.2437 44.1761C45.1471 43.1551 45.0499 42.1278 44.2768 41.3558C43.7663 40.8446 43.0141 40.5901 42.297 40.6241C41.6402 40.6555 41.1811 40.8762 40.607 41.157C40.2285 41.3415 39.8391 41.4068 39.4464 41.3853ZM29.9334 26.5881L30.1079 26.2939L29.8129 26.468C29.5894 26.5997 29.5894 25.7557 29.8129 25.8874L30.1079 26.0616L29.9334 25.7677C29.8015 25.5439 30.6457 25.5439 30.5138 25.7677L30.3394 26.0616L30.6335 25.8874C30.8573 25.7557 30.8573 26.5997 30.6335 26.468L30.3394 26.2939L30.5138 26.5881L30.5142 26.5889C30.5179 26.5967 30.5211 26.6034 30.5227 26.6101C30.4303 26.5747 30.3293 26.5551 30.2235 26.5551C30.1177 26.5551 30.0163 26.5747 29.9233 26.6101C29.9257 26.6031 29.9287 26.5962 29.9334 26.5881ZM29.5268 27.3972C29.5268 27.579 29.5969 27.7447 29.7108 27.8687L29.7082 27.8447C29.6835 27.6552 29.8358 27.4026 30.0427 27.4026H30.4039C30.6109 27.4026 30.7633 27.6552 30.7391 27.8447L30.7363 27.8687C30.8504 27.7447 30.92 27.5789 30.92 27.3972C30.92 27.0123 30.6081 26.7 30.2235 26.7C29.8386 26.7 29.5268 27.0123 29.5268 27.3972ZM32.5399 27.8859C32.3708 27.793 32.1946 27.8687 32.0662 27.9965C31.6813 28.3806 31.4368 28.8908 31.2769 29.4152C31.1894 29.4463 31.113 29.521 31.0622 29.6357C31.046 29.5607 31.0139 29.492 30.9595 29.4395C31.0572 28.8375 31.2132 28.1227 31.5677 27.7232C31.8317 27.4256 32.4201 27.429 32.5399 27.8859ZM27.9071 27.8859C28.0756 27.8044 28.2403 27.8687 28.3682 27.9965C28.7525 28.3794 28.9976 28.888 29.1564 29.4108C29.2502 29.439 29.3311 29.5158 29.3837 29.6357C29.3995 29.5657 29.4289 29.5012 29.4766 29.4496C29.3789 28.8461 29.224 28.1243 28.867 27.7233C28.6029 27.4257 28.0266 27.429 27.9071 27.8859ZM29.852 27.8265L29.9988 28.97C30.073 28.9509 30.1532 28.9467 30.223 28.9467C30.2939 28.9467 30.3739 28.9509 30.4477 28.97L30.5956 27.8265C30.6098 27.7113 30.5098 27.5483 30.4038 27.5483H30.0426C29.9368 27.5483 29.8375 27.7113 29.852 27.8265ZM29.6066 29.3648C29.5114 28.795 29.3691 28.1595 29.0616 27.7366C29.1771 27.704 29.2976 27.6755 29.4213 27.6523C29.4771 27.829 29.5907 27.9805 29.7387 28.0852L29.8607 29.0312C29.8265 29.0572 29.7979 29.0893 29.7777 29.1306C29.7451 29.1995 29.7456 29.274 29.7632 29.3464C29.7108 29.3413 29.6577 29.3464 29.6066 29.3648ZM31.3707 27.7327C31.2596 27.7017 31.1443 27.6749 31.0251 27.6523C30.9693 27.829 30.8562 27.9805 30.7074 28.0852L30.586 29.0319C30.6203 29.0572 30.6483 29.0892 30.6681 29.1305C30.7018 29.1994 30.7013 29.274 30.6826 29.3463C30.7301 29.3421 30.7775 29.3452 30.8242 29.3588C30.9187 28.7891 31.0622 28.1542 31.3707 27.7327ZM32.4528 31.6635C32.4528 31.7258 32.4241 31.7861 32.3719 31.8425C31.8128 31.5073 31.0572 31.3085 30.2235 31.3085C29.3892 31.3085 28.6336 31.5073 28.0756 31.8425C28.0226 31.7861 27.9941 31.7258 27.9941 31.6635C27.9941 31.6152 28.0073 31.587 28.019 31.5618C28.0351 31.5273 28.0485 31.4986 28.0218 31.4322C28.0452 31.4291 28.0681 31.423 28.0921 31.4138C28.1976 31.3742 28.2738 31.2927 28.3198 31.1947C28.552 31.2781 28.7832 31.1927 28.9127 30.9731C29.0174 31.0264 29.1377 31.0473 29.2548 31.0197C29.3794 30.9912 29.4821 30.9162 29.5572 30.819C29.656 30.8899 29.7746 30.9311 29.8997 30.9217C30.0238 30.9125 30.1352 30.8558 30.2229 30.7723C30.3108 30.8558 30.4222 30.9125 30.5467 30.9217C30.6719 30.9311 30.7906 30.8899 30.8888 30.819C30.9644 30.9162 31.0672 30.9912 31.1909 31.0197C31.3081 31.0473 31.4289 31.0264 31.5345 30.9737C31.6628 31.1922 31.8937 31.2781 32.1256 31.1947C32.173 31.2927 32.2481 31.3742 32.3539 31.4138C32.3743 31.4216 32.3944 31.4275 32.4147 31.4302C32.386 31.4933 32.4023 31.5228 32.4217 31.5577C32.4364 31.5842 32.4528 31.6138 32.4528 31.6635ZM27.0695 29.6832C27.0817 29.763 27.0969 29.8234 27.1219 29.9001C27.1811 29.8811 27.2503 29.8837 27.309 29.9135C27.3245 29.8289 27.3427 29.7454 27.3636 29.6623C27.2707 29.6536 27.1658 29.6611 27.0695 29.6832ZM27.0549 29.5381C27.0483 29.3803 27.0683 29.2221 27.1139 29.0705C27.1669 29.063 27.2235 29.0582 27.2813 29.056C27.3729 29.0538 27.4678 29.0577 27.5579 29.0674C27.4957 29.214 27.444 29.3659 27.4007 29.5204C27.2916 29.5065 27.1694 29.5146 27.0549 29.5381ZM27.4613 28.4497C27.3357 28.5969 27.237 28.7548 27.168 28.9187C27.2035 28.9153 27.2399 28.9131 27.2765 28.9119C27.3916 28.9084 27.5102 28.9148 27.6196 28.9287C27.6914 28.7757 27.7748 28.6287 27.8717 28.488C27.7374 28.4653 27.6006 28.4526 27.4613 28.4497ZM27.592 28.3102C27.6891 28.2145 27.798 28.1243 27.918 28.0408L27.9671 28.0166C28.0626 27.9708 28.1499 28.0038 28.2245 28.064C28.1304 28.1581 28.045 28.2561 27.9665 28.3576C27.8438 28.3339 27.719 28.318 27.592 28.3102ZM28.6191 28.5527C28.5332 28.4143 28.4363 28.2845 28.3275 28.1656C28.2543 28.2381 28.1868 28.3138 28.124 28.3917C28.2099 28.4126 28.2945 28.4363 28.378 28.4637C28.4595 28.4905 28.5402 28.52 28.6191 28.5527ZM28.7383 28.7629C28.8453 28.9681 28.931 29.1861 29.0005 29.4077C28.986 29.4113 28.9709 29.4157 28.9561 29.4219C28.9397 29.4119 28.9233 29.4025 28.9072 29.3932L28.9069 29.3931C28.8932 29.3451 28.8698 29.3004 28.8324 29.2636C28.7454 29.1773 28.6253 29.1709 28.5112 29.1922C28.4869 29.1816 28.4626 29.171 28.4383 29.1612C28.5176 29.018 28.6089 28.881 28.7135 28.7509L28.7383 28.7629ZM28.0601 29.66C28.0048 29.5173 28.0751 29.387 28.2002 29.3092C28.2117 29.2846 28.2234 29.2606 28.2357 29.2366C28.0629 29.1727 27.8865 29.1228 27.7057 29.0893L27.7048 29.0898C27.6414 29.2374 27.5887 29.3889 27.544 29.5448C27.717 29.5791 27.8856 29.6274 28.0509 29.6874L28.0601 29.66ZM27.9108 29.7915C27.8608 29.8414 27.8363 29.9023 27.8298 29.967C27.7057 29.8908 27.5557 29.9134 27.4563 30.017C27.4538 30.0137 27.451 30.0105 27.4481 30.0072C27.4456 30.0042 27.4429 30.0012 27.4404 29.998C27.4591 29.8925 27.4812 29.7884 27.5069 29.6854C27.644 29.7116 27.7787 29.7477 27.9108 29.7915ZM28.5764 28.6914C28.4723 28.8235 28.3822 28.9624 28.3024 29.1068C28.1288 29.042 27.9504 28.9898 27.7676 28.9532C27.8418 28.8022 27.9278 28.6565 28.0277 28.5178C28.1304 28.5404 28.2329 28.5689 28.3328 28.6018C28.4151 28.6287 28.4961 28.6584 28.5764 28.6914ZM31.8711 28.6914C31.9747 28.8234 32.0649 28.9624 32.1447 29.1068C32.3186 29.042 32.4964 28.9899 32.6792 28.9533C32.6053 28.8022 32.5195 28.6565 32.4196 28.5178C32.3161 28.5404 32.2145 28.5689 32.1137 28.6019C32.0317 28.6287 31.9508 28.6584 31.8711 28.6914ZM31.6842 28.7735C31.5814 28.9745 31.498 29.1879 31.4291 29.404C31.45 29.4076 31.4702 29.4141 31.4905 29.4219C31.4973 29.4175 31.5044 29.4134 31.5115 29.4093C31.514 29.4078 31.5165 29.4064 31.519 29.405C31.5258 29.401 31.5327 29.3971 31.5394 29.393C31.5528 29.3451 31.5767 29.3004 31.6141 29.2636C31.7018 29.1773 31.821 29.1709 31.936 29.1921L31.9527 29.1849C31.9709 29.1768 31.9901 29.1685 32.0091 29.1612C31.9296 29.018 31.838 28.8809 31.7331 28.7509L31.7299 28.7524L31.7298 28.7525C31.7154 28.7595 31.7 28.767 31.6842 28.7735ZM31.8034 28.5625C31.8924 28.417 31.9948 28.2806 32.1101 28.1566C32.1863 28.2322 32.2578 28.3101 32.3231 28.3916C32.2376 28.4125 32.1531 28.4362 32.0685 28.4636C31.9795 28.4932 31.8913 28.5265 31.8034 28.5625ZM32.4666 28.0134C32.3792 27.9646 32.2877 27.9993 32.2145 28.0561C32.3114 28.1522 32.4004 28.2526 32.4805 28.3575C32.6028 28.3338 32.7275 28.3179 32.8551 28.3101C32.7689 28.2258 32.6743 28.1457 32.5702 28.0701L32.4666 28.0134ZM32.986 28.4497C33.1107 28.5968 33.2096 28.7547 33.2785 28.9186C33.2428 28.9153 33.2065 28.9131 33.1702 28.9119C33.0555 28.9083 32.9371 28.9147 32.8272 28.9287C32.7552 28.7757 32.6717 28.6286 32.5754 28.488C32.7099 28.4653 32.8462 28.4525 32.986 28.4497ZM33.3926 29.4755C33.3926 29.3379 33.3726 29.2025 33.3332 29.0705C33.2799 29.0629 33.2232 29.0582 33.1657 29.056C33.0742 29.0538 32.9787 29.0577 32.8894 29.0674C32.9508 29.214 33.0027 29.3658 33.0466 29.5204C33.1548 29.5065 33.2779 29.5146 33.3915 29.538C33.3926 29.5173 33.3926 29.4961 33.3926 29.4755ZM33.3773 29.6831C33.3656 29.7629 33.3463 29.8414 33.3215 29.9181C33.2618 29.8994 33.2001 29.8947 33.1381 29.9134C33.122 29.8287 33.1038 29.7453 33.0837 29.6621C33.1769 29.6535 33.281 29.6611 33.3773 29.6831ZM32.9907 30.017C32.9955 30.0108 33.0008 30.0042 33.0061 29.998C32.9882 29.8925 32.9656 29.7884 32.9408 29.6854C32.8025 29.7116 32.668 29.7476 32.5363 29.7915C32.5862 29.8419 32.6098 29.9022 32.6173 29.9669C32.6812 29.9274 32.7552 29.9097 32.8372 29.9285C32.8986 29.9424 32.9497 29.9747 32.9907 30.017ZM32.3864 29.6594C32.4015 29.6192 32.4095 29.5773 32.404 29.5327C32.394 29.4317 32.3281 29.3608 32.2471 29.3097C32.2368 29.2889 32.2267 29.2676 32.2168 29.2468L32.2167 29.2466L32.212 29.2366C32.3839 29.1726 32.56 29.1227 32.7414 29.0892L32.742 29.0898C32.805 29.2374 32.8587 29.3889 32.903 29.5447C32.7299 29.5791 32.5611 29.6273 32.3958 29.6874L32.3933 29.6797C32.3911 29.673 32.3888 29.6661 32.3864 29.6594ZM29.8891 30.777C30.0368 30.7662 30.1585 30.66 30.2235 30.5322C30.2888 30.6601 30.4107 30.7662 30.5576 30.777C30.7074 30.7882 30.8414 30.698 30.9223 30.5766C30.9698 30.715 31.0756 30.8442 31.2238 30.8784C31.3631 30.9107 31.5062 30.8473 31.5979 30.7419C31.6277 30.8778 31.7112 31.0148 31.8471 31.0636C31.9758 31.1091 32.1173 31.0609 32.2178 30.9763C32.2256 31.0977 32.2856 31.2328 32.4053 31.278C32.5015 31.3143 32.6194 31.2579 32.6903 31.1287L32.7242 31.0664C32.851 30.8334 32.9763 30.6032 33.1506 30.4136C33.2335 30.3237 33.3303 30.2448 33.4166 30.2464C33.4367 30.247 33.464 30.2369 33.4755 30.2202C33.5355 30.1328 33.3903 29.993 33.2027 30.0474C33.1107 30.0742 33.0535 30.1644 33.0233 30.3216C33.0158 30.3581 32.9834 30.3824 32.9739 30.3196C32.937 30.065 32.7235 29.9308 32.5412 30.2685C32.4129 30.5085 32.4891 30.645 32.7514 30.6014C32.7763 30.5981 32.7903 30.6182 32.7551 30.6384C32.6485 30.7009 32.4207 30.762 32.3777 30.5256C32.0816 30.6888 31.8999 30.4097 31.9038 30.249C31.9049 30.1911 31.9244 30.1622 31.9562 30.2375C32.1005 30.5878 32.3269 30.4703 32.4291 30.2076C32.5633 29.8672 32.3828 29.7954 32.1097 29.8755C32.0352 29.8976 32.0232 29.8562 32.081 29.8063C32.2912 29.6246 32.3687 29.4867 32.0271 29.3675C31.6849 29.2483 31.6291 29.4019 31.6913 29.6952C31.7003 29.7368 31.6866 29.8075 31.6303 29.7257C31.4248 29.4333 31.2046 29.5088 31.1538 29.8448C31.1156 30.1022 31.2559 30.3333 31.5306 30.093C31.5688 30.0603 31.5939 30.0966 31.5526 30.1429C31.4209 30.2947 31.1976 30.4447 30.9925 30.0598C30.8191 30.3808 30.5118 30.2959 30.4007 30.0541C30.3675 29.9818 30.3759 29.9754 30.432 30.0257C30.6899 30.254 30.9174 30.0971 30.9313 29.8018C30.9477 29.4554 30.6938 29.422 30.4911 29.5827C30.4462 29.6182 30.4082 29.5844 30.4465 29.5199C30.6066 29.2489 30.6165 29.0926 30.2235 29.0926C29.8302 29.0926 29.84 29.2489 30.0002 29.5199C30.0387 29.5844 30.0013 29.6182 29.9561 29.5827C29.7525 29.422 29.4992 29.4554 29.5159 29.8018C29.5293 30.0971 29.7567 30.254 30.0147 30.0257C30.0706 29.9754 30.0794 29.9819 30.0463 30.0541C29.9349 30.2959 29.6278 30.3808 29.4551 30.0598C29.2488 30.4447 29.0261 30.2948 28.8937 30.1429C28.8535 30.0966 28.8778 30.0603 28.9164 30.093C29.191 30.3333 29.3317 30.1022 29.2929 29.8448C29.243 29.5088 29.0219 29.4334 28.817 29.7257C28.7598 29.8074 28.7464 29.7368 28.7556 29.6952C28.8184 29.4019 28.7623 29.2483 28.4198 29.3675C28.0782 29.4867 28.1561 29.6246 28.3657 29.8063C28.4229 29.8562 28.4119 29.8975 28.3377 29.8755C28.0634 29.7954 27.8839 29.8672 28.0171 30.2076C28.1208 30.4703 28.3461 30.5878 28.4907 30.2375C28.5217 30.1621 28.5424 30.1911 28.5438 30.249C28.5471 30.4097 28.3651 30.6888 28.0681 30.5256C28.0266 30.762 27.7979 30.7009 27.6913 30.6384C27.6572 30.6182 27.6707 30.5981 27.6958 30.6014C27.9581 30.645 28.0343 30.5085 27.9054 30.2685C27.7228 29.9308 27.5099 30.065 27.4733 30.3196C27.4641 30.3824 27.4312 30.3581 27.4239 30.3216C27.393 30.1644 27.3357 30.0742 27.2433 30.0474C27.0567 29.993 26.9109 30.1328 26.9712 30.2202C26.9829 30.2369 27.0103 30.247 27.0313 30.2464C27.116 30.2448 27.2137 30.3237 27.2961 30.4136C27.472 30.6047 27.5981 30.8369 27.7257 31.0717L27.7257 31.0718L27.7566 31.1287C27.827 31.2579 27.9451 31.3143 28.0416 31.278C28.1616 31.2328 28.2214 31.0977 28.2286 30.9763C28.3291 31.0609 28.4704 31.1092 28.599 31.0636C28.7361 31.0148 28.8195 30.8778 28.8488 30.7419C28.9401 30.8473 29.0839 30.9107 29.2225 30.8784C29.3708 30.8442 29.4766 30.715 29.5244 30.5766C29.6056 30.6981 29.7387 30.7882 29.8891 30.777ZM29.6924 41.8568C29.6645 42.3872 29.494 42.7366 29.2442 43.1422C29.1206 43.3445 29.1021 43.5234 29.1091 43.7077C29.1288 44.2261 29.2905 44.7966 29.4758 45.2956C29.5147 45.4012 29.5903 45.4858 29.6883 45.5497C29.7778 45.4869 29.9892 45.4433 30.2367 45.4433C30.4296 45.4433 30.6007 45.4701 30.7099 45.5117C31.04 45.1215 31.1369 44.4957 31.1674 43.9171C31.1846 43.5935 31.1406 43.4046 30.843 43.2795C30.3992 43.0934 29.815 43.1166 29.4008 43.31C29.6665 42.8556 30.3855 42.7966 30.8336 42.9762C30.6789 42.5885 30.603 42.2557 30.55 41.8371C30.2647 41.8187 29.9769 41.8257 29.6925 41.8568L29.6924 41.8568ZM27.1756 42.8229C27.1371 43.013 27.1932 43.2212 27.3169 43.3716C27.1653 43.3485 27.0213 43.3247 26.8851 43.2977C26.7668 43.2073 26.7056 42.9803 26.7313 42.7829C26.8069 42.1887 27.9667 41.9483 28.4917 41.9185C28.0058 41.9648 27.2846 42.2839 27.1757 42.8229H27.1756ZM29.4543 41.8655C28.9237 41.8828 28.1001 42.2898 28.0222 42.862C27.9842 43.1369 28.0978 43.3809 28.3633 43.4933C28.5307 43.507 28.7032 43.5195 28.8794 43.5296C28.8975 43.3697 28.9578 43.1416 29.049 43.0085C29.305 42.6367 29.42 42.316 29.4543 41.8655V41.8655ZM33.5532 42.1273C32.875 41.9947 32.001 41.9021 31.025 41.868C31.0596 42.3176 31.1752 42.6372 31.4297 43.0085C31.5212 43.1402 31.581 43.3672 31.5991 43.526C32.3457 43.4808 33.0136 43.3998 33.5557 43.2927C33.8837 43.1696 34.2792 42.8988 34.2792 42.7031C34.2792 42.5044 33.8524 42.2267 33.5531 42.1273H33.5532ZM30.2076 38.4289C29.3253 38.4289 28.4749 38.5384 27.7048 38.7382C27.0031 38.9196 26.3684 39.1761 25.836 39.4927C25.8291 39.2351 25.8587 39.1326 26.0752 38.9972C27.2381 38.2707 28.8578 38.065 30.2076 38.065C31.0411 38.065 31.977 38.1435 32.8448 38.3743C33.3832 38.5177 33.7608 38.6445 34.2052 38.9227C34.4229 39.0576 34.4516 39.1605 34.4449 39.4176C33.9132 39.1014 33.4128 38.9197 32.7107 38.7382C31.9412 38.5384 31.0905 38.4289 30.2076 38.4289ZM34.927 41.677C35.1746 41.7644 35.3951 41.8637 35.5528 41.9816C35.5373 40.9226 34.8185 39.8918 33.8996 39.4087C34.4637 40.035 34.9276 40.8341 34.927 41.677ZM24.8435 42.3121C24.8955 41.6924 25.2412 40.7668 25.5791 40.5008C25.3103 41.0142 25.2019 41.3427 25.1681 41.8588C26.283 41.25 28.5919 40.9784 30.2076 40.9784C31.583 40.9784 32.9252 41.1017 34.254 41.4713C34.2435 40.4249 33.8912 39.8424 33.2311 39.1214C33.0429 39.0555 32.8443 38.9975 32.6375 38.9447C31.8924 38.7533 31.0674 38.646 30.2076 38.646C29.3486 38.646 28.5232 38.7522 27.7785 38.9447C26.4684 39.2838 25.526 39.6973 24.9257 40.927C24.6808 41.4294 24.5391 41.9768 24.4922 42.4586C24.4805 42.5828 24.4849 42.6782 24.5196 42.7977C24.6206 43.1451 25.2732 43.4698 26.2738 43.7162C27.0004 43.894 27.9011 44.0236 28.9062 44.0838C28.8908 43.9773 28.8806 43.8715 28.8749 43.7659C28.0691 43.7193 27.3473 43.6317 26.7693 43.515C25.8361 43.3271 25.2584 43.0441 25.2584 42.7103C25.2584 42.377 25.8361 42.0937 26.7693 41.9053C27.6518 41.727 28.8676 41.6173 30.2077 41.6173C31.5478 41.6173 32.764 41.727 33.6462 41.9053C34.5801 42.0937 35.1571 42.377 35.1571 42.7103C35.1571 43.0441 34.5801 43.3271 33.6462 43.515C33.0832 43.6292 32.3849 43.7151 31.6047 43.7626C31.5991 43.8678 31.5891 43.9739 31.5735 44.0802C32.5529 44.0177 33.4316 43.8905 34.1416 43.7162L34.2082 43.7C34.6589 43.5904 35.5645 43.3703 35.8473 42.8865C35.9948 42.6336 35.7785 42.4443 35.5702 42.2861C35.1964 42.0031 34.6516 41.7906 34.1062 41.6485C32.9922 41.3585 31.758 41.2237 30.2077 41.2237C29.0139 41.2237 27.89 41.3396 26.9306 41.5258C26.0996 41.6857 25.3304 41.9043 24.8436 42.3121H24.8435ZM32.6053 32.7645C32.6544 32.9168 32.6519 33.1139 32.6492 33.324C32.6487 33.3634 32.6482 33.4032 32.648 33.4433C32.6391 35.0413 32.6824 36.9692 33.3452 38.309C33.4937 38.3611 33.6425 38.4195 33.7912 38.4837L33.8087 38.4913C33.8221 38.4971 33.8358 38.503 33.8496 38.5096C33.3232 37.5763 33.169 35.9011 33.0667 34.7885L33.0642 34.7616C33.0178 34.26 32.9798 33.7648 32.9524 33.241C32.94 33.0154 32.8174 32.8502 32.6053 32.7645ZM27.5384 32.9035C28.2385 32.2604 29.3435 32.0703 30.2394 32.0703C30.8217 32.0703 31.4854 32.1671 32.0817 32.3824C32.3326 32.4733 32.6742 32.6092 32.8836 32.7824C32.7834 32.4985 32.5695 32.2311 32.2118 32.0142C31.6967 31.701 30.9917 31.4975 30.2076 31.4975C29.4239 31.4975 28.7192 31.701 28.2044 32.0142C27.6872 32.3279 27.3654 32.7466 27.3601 33.1683C27.3543 33.7204 27.3257 34.2569 27.278 34.7816C27.1761 35.8934 26.9773 37.6281 26.4457 38.5693L26.4745 38.5566L26.5049 38.5433C27.6616 38.0435 28.9542 37.8461 30.2076 37.8461C31.1288 37.8461 32.006 37.9195 32.8657 38.1576C32.2662 37.1843 32.2455 34.3479 32.2812 33.1346C32.2887 32.8864 32.2787 32.6336 32.0066 32.5509C31.4843 32.3916 30.966 32.3142 30.2394 32.3142C29.101 32.3142 28.2564 32.5124 27.5384 32.9035ZM10.6513 49.9382C10.496 50.004 10.3385 50.0608 10.1798 50.1076C9.6507 49.803 8.97248 49.6474 8.3837 49.7424L8.21466 49.7696C8.20196 49.7437 8.19 49.7168 8.17841 49.69C8.01568 49.303 7.98191 48.8674 7.94968 48.4517L7.94022 48.3313C7.87869 47.5816 7.48394 46.9547 6.74921 46.8657L6.58357 46.8456C6.29358 46.3022 6.30512 45.5605 6.68047 45.0632C6.17909 45.1915 5.78192 45.5002 5.53144 45.9044C5.26882 46.329 5.18044 46.8431 5.27007 47.3316C5.09921 47.3005 4.94983 47.3532 4.79564 47.4076L4.76018 47.4201C3.92441 45.2072 4.97706 42.7077 7.17421 41.7718C9.42894 40.8119 12.0363 41.862 12.9961 44.1162C13.9563 46.3709 12.9065 48.9782 10.6513 49.9383L10.6513 49.9382Z" fill="#66727F" />
</svg>
