<?xml version="1.0" encoding="utf-8"?>
<!-- Generator: Adobe Illustrator 25.2.0, SVG Export Plug-In . SVG Version: 6.00 Build 0)  -->
<svg version="1.1" id="Layer_1" xmlns="http://www.w3.org/2000/svg" xmlns:xlink="http://www.w3.org/1999/xlink" x="0px" y="0px"
	 viewBox="0 0 292 300" style="enable-background:new 0 0 292 300;" xml:space="preserve">
<style type="text/css">
	.st0{fill:#66727F; opacity: 0.6;}
	.st1{fill:#66727F; opacity: 0.6;}
</style>
<g>
	<path class="st0" d="M168.3,114.5c-0.1-0.1-1.3-1.4-3.5-1.4c-1.1,0-2.4,0.4-3.5,1.1c-0.2,0.1-0.3,0.3-0.3,0.6c0,0.1,0.9,6,0.2,8.5
		c-0.5,1.9-2.1,4.1-5.1,4.1c-0.6,0-1.3-0.1-1.9-0.3c0,0,0,0,0,0l2.2-1.5c0.2-0.1,0.3-0.3,0.3-0.5s-0.1-0.4-0.3-0.5l-4.4-3
		c1.4-1,2.3-1.8,2.4-1.9c0.1-0.1,0.2-0.3,0.2-0.4c0-0.2-0.1-0.3-0.2-0.4l-0.8-0.8c-0.1-0.1-0.3-0.2-0.4-0.2s-0.3,0.1-0.4,0.1
		c-0.1,0-1.2,0.9-3,2.1l-1.8-1.2l6.9-4.8l0.5,1.4c0.1,0.2,0.3,0.4,0.5,0.4c0,0,0,0,0,0c0.2,0,0.4-0.1,0.5-0.3l3.3-6.1
		c0.1-0.2,0.1-0.4,0-0.6c-0.1-0.2-0.3-0.2-0.5-0.2c0,0-0.1,0-0.1,0l-6.8,1c-0.2,0-0.4,0.2-0.5,0.4c-0.1,0.2,0,0.4,0.2,0.6l1.1,1
		l-7.9,5.4l-7.8-5.4l1.1-1c0.2-0.2,0.2-0.4,0.2-0.6c-0.1-0.2-0.2-0.4-0.5-0.4l-6.8-1c0,0-0.1,0-0.1,0c-0.2,0-0.4,0.1-0.5,0.2
		c-0.1,0.2-0.1,0.4,0,0.6l3.3,6.1c0.1,0.2,0.3,0.3,0.5,0.3c0,0,0,0,0,0c0.2,0,0.4-0.2,0.5-0.4l0.5-1.4l6.9,4.8l-1.8,1.2
		c-1.8-1.2-2.9-2.1-3-2.1c-0.1-0.1-0.2-0.1-0.4-0.1c-0.2,0-0.3,0.1-0.4,0.2l-0.8,0.8c-0.1,0.1-0.2,0.3-0.2,0.4
		c0,0.2,0.1,0.3,0.2,0.4c0.1,0.1,1,0.8,2.4,1.9l-4.4,3c-0.1,0.1-0.2,0.3-0.2,0.5c0,0.2,0.1,0.4,0.3,0.5l2.2,1.5c0,0,0,0,0,0
		c-0.7,0.2-1.3,0.3-1.9,0.3c-2.9,0-4.6-2.2-5.1-4.1c-0.7-2.5,0.2-8.4,0.2-8.5c0-0.2-0.1-0.5-0.3-0.6c-1.2-0.7-2.4-1.1-3.5-1.1
		c-2.2,0-3.5,1.3-3.5,1.4c-0.1,0.1-0.2,0.2-0.2,0.3c0,0.4-0.7,8.9,3.2,13.2c1.5,1.6,3.4,2.4,5.7,2.4c0.4,0,0.8,0,1.3-0.1
		c2.2-0.3,4.4-0.9,6.6-1.6l3.7,2.5l-8.1,5.5c-0.2,0.1-0.3,0.3-0.3,0.5c0,0.2,0.1,0.4,0.3,0.5l8.1,5.6l-6.9,4.8l-0.5-1.4
		c-0.1-0.2-0.3-0.4-0.5-0.4c0,0,0,0,0,0c-0.2,0-0.4,0.1-0.5,0.3l-3.3,6.1c-0.1,0.2-0.1,0.4,0,0.6c0.1,0.2,0.3,0.2,0.5,0.2
		c0,0,0.1,0,0.1,0l6.8-1c0.2,0,0.4-0.2,0.5-0.4c0.1-0.2,0-0.5-0.2-0.6l-1.1-1l7.9-5.4l7.9,5.4l-1.1,1c-0.2,0.2-0.2,0.4-0.2,0.6
		c0.1,0.2,0.2,0.4,0.5,0.4l6.8,1c0,0,0.1,0,0.1,0c0.2,0,0.4-0.1,0.5-0.2c0.1-0.2,0.1-0.4,0-0.6l-3.3-6.1c-0.1-0.2-0.3-0.3-0.5-0.3
		c0,0,0,0,0,0c-0.2,0-0.4,0.2-0.5,0.4l-0.5,1.4l-6.9-4.8l8.1-5.6c0.2-0.1,0.3-0.3,0.3-0.5c0-0.2-0.1-0.4-0.3-0.5l-8.1-5.5l3.7-2.5
		c2.1,0.8,4.3,1.4,6.6,1.6c0.4,0.1,0.9,0.1,1.3,0.1c2.3,0,4.2-0.8,5.7-2.4c4-4.3,3.3-12.8,3.2-13.2
		C168.5,114.7,168.4,114.6,168.3,114.5z M145.4,120.8l1.7,1.2c-0.5,0.3-1.1,0.7-1.7,1.1c-0.6-0.4-1.2-0.7-1.7-1.1L145.4,120.8z
		 M139.1,125.1l2.4-1.7c0.5,0.3,1,0.6,1.5,0.9c-0.9,0.5-1.9,1-2.9,1.4L139.1,125.1z M151.6,137.2l-6.2,4.3l-6.2-4.3l6.2-4.2
		L151.6,137.2z M145.4,129.4l-3-2c1.1-0.5,2-1,3-1.5c1,0.5,1.9,1,3,1.5L145.4,129.4z M150.7,125.8c-1-0.4-1.9-0.9-2.9-1.4
		c0.5-0.3,1-0.6,1.5-0.9l2.4,1.7L150.7,125.8z"/>
	<path class="st0" d="M170.4,119.5c0.2-0.5,0.4-1.4,0.4-1.4l-0.4-0.1V119.5z"/>
	<path class="st0" d="M248.4,98.4c-2.5-1.5-6.7-2.1-11-1.7c6.7-2.3,11.2-7.3,11.5-11.7c-3.5-1-7.1-0.5-10.2,0.2
		c3.2-2.4,8.6-6.8,7.9-13.4c-3.1-0.8-8.9,1.4-11.3,2.5c7.7-4.3,10.5-14.5,6.4-20.3c-2.4,1.4-13.4,12.6-15.2,14
		c5.7-6.5,8.4-11.2,9.9-15.5c1.8-4.8,1.9-13.1-4-15.9c-2.8,6.4-12.6,22.7-18,29.5c-0.6-0.5-1.1-1.2-1.8-1.4
		c-1.3,4.2-5.1,9.6-8.6,12.3c-0.2-0.3-0.5-1.3-1.1-2.3c-3.7,5.6-13.4,13.2-16.5,17.9c-2.4,3.5-2.4,6.6,0.9,9.9
		c1.4,1.4,4,3.8,1.7,7.2c-3.1,4.5-9.2,5-12.5,2.4c0-0.8,0-1.6-0.1-2.3c3.9-1.5,4.9-6.9,1.9-10.2c-0.6,1.2-1.7,2.1-2.9,2.6
		c-0.3-1.4-0.6-2.1-0.7-2.1l-0.1-0.3l-0.3,0c0,0-1.3-0.1-3.2-0.3c2.2-0.7,3.6-2.7,3.3-5.5c-3.4,2.9-6.8,0.1-7.5-0.6
		c-2.1-2.5-2.7-5.3-1.9-9.5c0.7-3.7,4.6-9.6,7.1-11.5c0.4,0.3,0.9,1.1,2.2,0.9c0.7-0.2,1.9-0.8,2.8-1.2c2.6-0.8,5-0.2,6.6,0.8
		c2.9,1.8,2.6,3.7,2.6,5.1c4.4-2.5,2.9-6.6-2.9-8.2c4,0,7.2,3.6,8,4.1c2.2,1.6,5.3,1.2,7.1,0.4c3.5-1.7,4.2-5.8,3.3-6.6
		c-0.4,1.5-1.5,2.8-3.5,3c-3,0.3-5.9-1-8.2-2c-1.9-0.8-5.1-1.4-7.2-1.3c4-2.2,10.1-1.9,12.3,1.4c1.3-1.1,2.1-2,2.5-4.2
		c1.1-5.9-3.5-8.9-8.4-8.9c0.1-1.4-0.9-2.1-2.2-1.7c0-0.6-0.2-1.1-0.5-1.3c0.1,0,0.3-0.1,0.4-0.1c5-0.3,9.6-1.9,12.2-4.5
		c4.4-4.7-2.6-10.8-0.1-15.4c2.4,1.1,4.2,2.4,7.6,2.9c0.4,0.7,0.7,2.1,0.8,2.9c1.1,5.3-4.1,6.2-2.8,11.8c0.6,2.5,2.5,3.4,3.1,6.5
		c0,0,0.2,2.1-1.6,4c4.3,0.1,6.5-3.5,5.2-6.9c-0.6-1.4-2.1-2.7-2.1-4.3c2.2,2.9,4.1,2.8,7.5,1.7c1.5-0.5,1.7,1.7,0.7,3.4
		c2.3-1.4,2.9-3.6,2.9-4.6c0-2.4-1.8-3.5-3.6-3c-1,0.1-3,1.5-3.1-0.5c-0.4-3.4,4.9-3.2,3.8-8.7c-0.6-2.7-3.6-4.2-8.3-4.8
		c-0.5-0.5-1.6-1.6-2.3-2.5c-2.6-4.3-5.3-5.4-6.9-4.5c-1.9,0.9-2.9,1.8-4.4,2.6c-1.2,0.6-2.6,1-3.4,2c-2.1,2.6-0.1,6.5,0.9,8.9
		c0.7,1.4,2.4,4.7,1.7,7.1c-0.8,2.9-5.6,4.7-8.5,5.3c-0.2,0-0.3,0.1-0.5,0.1v-1.1c0.8-1.5,1.6-3.2,2.1-4.8c1.9-5.2-1-7.3-5.3-8.3
		c-0.5-0.3-1.1-0.5-1.8-0.2h-0.1l-0.1,0.9l-0.6-0.2l0.1-1.1h-0.2c0.5-0.3,0.7-0.9,0.7-1.5c0-0.6-0.2-1.1-0.5-1.5h0.6l-0.2-0.2
		c-0.1-0.2-0.3-0.5-0.7-0.8c-0.1-0.1-0.2-0.3-0.2-0.5c0.1,0.1,0.2,0.2,0.5,0.3c0.2,0.2,0.6,0.5,0.7,0.7l0.4,0.2v-4.8l-0.4,0.3
		c-0.1,0.1-0.5,0.4-0.7,0.6s-0.4,0.2-0.5,0.4c0-0.1,0.1-0.2,0.2-0.5c0.4-0.2,0.6-0.6,0.7-0.8l0.2-0.4h-4.8l0.2,0.4
		c0.2,0.2,0.5,0.5,0.8,0.8c0.1,0.2,0.2,0.4,0.4,0.5c-0.1-0.1-0.4-0.1-0.5-0.4c-0.4-0.2-0.6-0.5-0.9-0.6l-0.2-0.3v4.8l0.2-0.2
		c0.2-0.2,0.5-0.5,0.9-0.7c0.1-0.1,0.4-0.2,0.5-0.3c-0.1,0.1-0.2,0.3-0.4,0.5c-0.2,0.4-0.5,0.6-0.8,0.8l-0.2,0.2h0.8
		c-0.4,0.3-0.5,0.8-0.5,1.5c0,0.6,0.2,1.2,0.6,1.5h-0.1l0.1,1.1l-0.6,0.2l-0.1-0.9h-0.1c-0.7-0.2-1.3-0.1-1.8,0.2
		c-4.4,1-7.3,3.1-5.3,8.3c0.6,1.6,1.3,3.4,2.2,4.8v0.8c-4.4-1.4-12.3-6.2-14.4-9.1c-0.2-0.3-0.4-0.5-0.5-0.7l0,0l0.1-3.1
		c1.5-2.5,2.9-5.7,4-8.6c2.8-7.5-1.3-10.6-7.8-12c-0.7-0.5-1.5-0.7-2.6-0.4l-0.2,1.2l-1.4-0.1l0.1-1.5c-0.2,0.1-0.5,0.1-0.7,0.1
		c0.9-0.5,1.6-1.6,1.6-2.8c0-0.8-0.4-1.8-1.1-2.3h1.1c-0.7-0.6-1.7-1.8-1.9-2.7c0.8,0.2,2.1,1.4,2.6,1.9V5.4
		c-0.6,0.5-1.8,1.7-2.6,1.8c0.2-0.7,1.3-1.9,1.9-2.5h-6.1c0.5,0.6,1.7,1.8,1.8,2.5c-0.7-0.1-1.9-1.3-2.6-1.8v6.2
		c0.7-0.6,1.8-1.7,2.6-1.9c-0.1,0.8-1.3,2.1-1.8,2.7h1.1c-0.7,0.5-1.1,1.5-1.1,2.3c0,1.2,0.6,2.3,1.5,2.8c-0.2,0-0.5,0-0.8-0.1
		l0.1,1.5l-1.4,0.1l-0.1-1.2c-1.1-0.4-1.9-0.1-2.6,0.4c-6.4,1.3-10.5,4.4-7.7,11.9c0.9,2.9,2.3,6,4,8.6v3.2
		c-0.1,0.1-0.2,0.3-0.5,0.6c-2.1,2.9-10,7.7-14.4,9.1v-0.8c0.9-1.5,1.6-3.2,2.2-4.8c1.9-5.2-0.9-7.3-5.3-8.3
		c-0.5-0.3-1.1-0.5-1.8-0.2h-0.1l-0.1,0.9l-0.6-0.2l0.1-1.1h-0.1c0.3-0.3,0.6-0.9,0.6-1.5c0-0.6-0.1-1.1-0.5-1.5h0.7l-0.2-0.2
		c-0.2-0.2-0.5-0.5-0.7-0.8c-0.1-0.1-0.3-0.3-0.4-0.5c0.1,0.1,0.4,0.2,0.5,0.3c0.3,0.2,0.6,0.5,0.8,0.7l0.2,0.2v-4.8l-0.2,0.3
		c-0.2,0.1-0.5,0.4-0.8,0.6c-0.1,0.2-0.4,0.2-0.5,0.4c0.1-0.1,0.3-0.2,0.4-0.5c0.2-0.2,0.5-0.6,0.7-0.8l0.2-0.4h-4.8l0.2,0.4
		c0.1,0.2,0.4,0.5,0.7,0.8c0.2,0.2,0.3,0.4,0.3,0.5c-0.1-0.1-0.2-0.1-0.4-0.4c-0.3-0.2-0.7-0.5-0.8-0.6l-0.4-0.3v4.8l0.4-0.2
		c0.1-0.2,0.5-0.5,0.8-0.7c0.2-0.1,0.3-0.2,0.4-0.3c0,0.1-0.1,0.3-0.3,0.5c-0.2,0.4-0.5,0.6-0.7,0.8l-0.2,0.2h0.6
		c-0.3,0.3-0.5,0.8-0.5,1.5c0,0.6,0.2,1.2,0.8,1.5h-0.2l0.1,1.1l-0.7,0.2l-0.1-0.9H111c-0.7-0.2-1.3-0.1-1.8,0.2
		c-4.4,1-7.3,3.1-5.3,8.3c0.6,1.6,1.3,3.4,2.2,4.8v1.1c-0.2,0-0.3-0.1-0.5-0.1c-2.9-0.6-7.7-2.4-8.6-5.3c-0.8-2.4,1-5.7,1.7-7.1
		c1.1-2.4,3-6.4,1-8.9c-0.9-0.9-2.2-1.3-3.4-2c-1.5-0.8-2.5-1.6-4.4-2.6c-1.6-0.9-4.2,0.2-6.9,4.6c-0.6,1-1.8,2.1-2.3,2.5
		c-4.7,0.6-7.7,2.1-8.3,4.8c-1.1,5.4,4.2,5.3,3.9,8.7c-0.1,2-2.2,0.6-3.1,0.5c-1.8-0.5-3.7,0.6-3.7,3c0,1,0.7,3.2,2.9,4.6
		c-0.9-1.7-0.8-3.8,0.8-3.4c3.4,1.1,5.3,1.2,7.4-1.7c0,1.6-1.4,2.9-2.1,4.3c-1.3,3.4,0.9,7,5.2,6.9c-2-1.8-1.6-4-1.6-4
		c0.6-3,2.5-3.9,3.1-6.5c1.3-5.6-3.9-6.5-2.8-11.8c0.1-0.8,0.3-2.2,0.7-2.9c3.4-0.5,5.2-1.8,7.6-2.9c2.4,4.7-4.6,10.7-0.1,15.4
		c2.6,2.7,7.3,4.2,12.2,4.5c0.1,0,0.3,0.1,0.4,0.1c-0.3,0.2-0.5,0.7-0.5,1.3c-1.3-0.5-2.3,0.2-2.1,1.7c-5.1,0-9.6,3-8.5,8.9
		c0.3,2.2,1.2,3.1,2.6,4.2c2.1-3.4,8.3-3.6,12.3-1.4c-2.2-0.1-5.3,0.5-7.3,1.3c-2.3,1-5.2,2.3-8.2,2c-2.1-0.2-3.1-1.5-3.6-3
		c-0.9,0.8-0.2,5,3.3,6.6c1.8,0.9,4.9,1.2,7.1-0.4c0.8-0.5,4.1-4.1,8.1-4.1c-5.8,1.5-7.3,5.7-2.8,8.2c-0.2-1.4-0.4-3.4,2.5-5.1
		c1.6-1,4.1-1.6,6.6-0.8c0.9,0.3,2.1,1,2.8,1.2c1.2,0.1,1.8-0.6,2.2-0.9c2.6,1.9,6.3,7.8,7.1,11.5c0.9,4.3,0.2,7-1.9,9.5
		c-0.7,0.8-4.1,3.5-7.5,0.6c-0.3,2.7,1.1,4.7,3.3,5.5c-2,0.2-3.3,0.3-3.3,0.3l-0.3,0l-0.1,0.3c0,0.1-0.3,0.7-0.7,2.1
		c-1.2-0.5-2.3-1.3-2.9-2.6c-2.9,3.3-2,8.6,1.9,10.2c0,0.7-0.1,1.5-0.1,2.3c-3.3,2.6-9.4,2-12.4-2.4c-2.3-3.4,0.3-5.8,1.7-7.2
		c3.4-3.2,3.4-6.4,0.9-9.9c-3.1-4.7-12.8-12.3-16.5-17.9c-0.6,1-1,1.9-1.1,2.3c-3.5-2.7-7.4-8.1-8.7-12.3c-0.7,0.1-1.2,0.8-1.8,1.4
		C71.8,59.3,62,43,59.2,36.6c-5.9,2.8-5.8,11.1-4,15.9c1.6,4.4,4.2,9,9.9,15.5c-1.8-1.3-12.8-12.5-15.2-14c-4.1,5.8-1.3,16,6.4,20.3
		c-2.4-1.1-8.2-3.3-11.3-2.5c-0.6,6.5,4.7,10.9,7.9,13.4c-3.1-0.7-6.7-1.2-10.2-0.2c0.2,4.4,4.8,9.4,11.4,11.7
		c-4.1-0.4-8.3,0.1-10.9,1.7c0.5,4.6,5.7,8.6,11.9,9.5c-4.2,0.5-7.9,2.3-9.9,4.8c2.3,3,5.7,5.3,10.8,5.2c-1.2,0.4-2.5,1.2-3.7,2.4
		c-0.1-0.1-0.4-0.2-0.6-0.2c-0.2,0.1-0.3,0.5-0.2,0.7c0,0,0,0,0,0.2c-0.5,0.3-0.8,0.8-0.8,1.2c-0.5,0.7-1,1.5-1.2,2.2
		c0.1,0.1,0.2,0.2,0.3,0.2c0,0.4,0,0.9,0.3,1.3c-0.2,0.2-0.3,0.6-0.5,0.9l-3-1.2c-0.2,2.7,0.4,5,1.8,6.4c1.1,1.2,2.3,1.1,2,1.5
		l3.3,2c0.6,1.2,1.8,1.2,2.6,0.9c0,0,0,0.1,0,0.2c0,1.3,0.9,2.4,2.1,2.8c-0.2,1.1,0.2,1.8,1.7,2.3l12.3,29.8c-0.5,1.4,0,2.7,1.1,3.1
		c-0.2,0.4-0.5,0.7-0.5,1.4c0.5-0.4,1.2-0.5,1.5,0.5c0.2,0.7-1.1,3,0.9,4.6c-0.2,1.4,0.5,2.8,1.9,3.4c0,0.7,0.7,3,0.8,3.8
		c-0.9,1.2-2.9,3.1-2.7,5.2c0.2,1.5,0.8,1.9,2,2.3c-0.5,2.7,1,3.8,3.2,4c0,1.9,1.8,2.6,3,2.8c1.1,0.8,1.6,1.2,2.9,1.8
		c-1.2,1.4-0.3,3.2,1.8,3.8c0.2,0.8,0.8,1.5,2.1,1.8c0.7,1.2,2,1.2,2.8,0.8c0.5-0.2,1.3-1.6,0.6-2.8c0.5-0.6,0.2-1.7-0.1-2.4
		c0.7-1.3,0.1-2.9-0.9-3.4c0.1-0.7-0.2-1.8-0.5-2.5c1.7-1.1,3.8-2.4,4.6-2.9c4.2-3,8.9-5.7,14.3-6c1.4-0.1,3.9-0.2,5.3-0.1
		c2.2,0.2,5.2,0.9,7-0.5c0.5-0.4,0.9-0.9,0.8-1.5c-0.2-1.4-1.7-2.6-2.2-3.8c-0.1-0.4-0.3-0.9-0.6-1.4c1.5,0.3,2.9,0.1,3.8-0.4
		c0.9-0.4,3.2-2.1,3.1-4.6c-1.8,0.9-6.3,2.1-6.8-2.4c-0.5-4,3-7.3,8.5-5.9c3.7,0.9,9.2,8.9,4.2,12.3c-2.4,1.6-6.1,3.2-5.7,7.6
		c1.6-1.9,3.7-2.9,6.5-2.7c-4.1,3-7.2,3.4-11.5,5.7c-3.7,2.2-6.5,5.8-9.4,5.9c-2.2,0.1-3.5-2.6-1.3-4.6c-2.2-0.5-5.1,1.2-5.9,3.5
		c-1.1,3.1-0.2,5.4,1.7,6.6c-2.7,1.4-4.6,4.2-3.7,8.1c0.9,3.2,4.2,3.2,2.9,7.4c1.8-0.5,3-1.7,3.5-3.5c0.2-1.2,0.5-2.5,1.1-3.1
		c-0.2,2.5,1.2,6.1,4.6,7.8c2.3,1.1,5.9,1.6,8.7-1.3c1.1,3.2,5,6,8.9,5.9c1.8,0,3.6-0.8,5-1.6c0.9,2.4,3.4,4.8,5.8,6
		c2.5-1.2,4.9-3.6,5.9-6c1.3,0.8,3.1,1.6,4.9,1.6c3.8,0.1,7.9-2.7,8.9-5.9c2.8,2.9,6.4,2.4,8.7,1.3c3.4-1.7,4.8-5.3,4.6-7.8
		c0.6,0.6,0.9,1.9,1.1,3.1c0.5,1.8,1.6,3,3.5,3.5c-1.2-4.1,2.1-4.1,2.9-7.4c0.9-4-1-6.7-3.6-8.1c1.9-1.2,2.8-3.5,1.6-6.6
		c-0.8-2.3-3.7-4-5.9-3.5c2.2,2.1,1,4.7-1.3,4.6c-2.9-0.1-5.7-3.7-9.4-5.9c-4.2-2.3-7.4-2.7-11.5-5.7c2.8-0.2,5,0.7,6.5,2.7
		c0.5-4.3-3.2-5.9-5.7-7.6c-4.9-3.4,0.5-11.4,4.3-12.3c5.4-1.5,8.9,1.9,8.4,5.9c-0.6,4.5-4.9,3.3-6.9,2.4c0,2.5,2.3,4.2,3.2,4.6
		c1.1,0.5,3.1,0.8,5,0c-0.1,0.4-0.1,0.9-0.1,1.1c-0.4,3.8-2.4,4.2-1.7,5.8c1,1.2,7.6,0.9,9.4,1.3c3.1,0.4,5.8,1.6,8.8,2.2
		c3.4,0.7,7,0.7,10,1.9c1.9,0.8,4.1,2.4,6,3.4c2.9,0.5,2.4,1.6,4.3,1.6c1.6,0,2.3-1.4,4.4-2c1.5-0.4,3.1,0.2,4.6-0.2
		c1.1-0.2,1.6-1.4,2.6-1.9c1.2-0.7,2.8-0.7,4-1.7c0.6-0.5,0.7-1.5,0.6-2.2l0,0.2c2.3-1.6,4-3.9,4.9-6.6c0.6-0.1,1.1-0.6,1.1-1.2
		c0-0.1,0-0.2,0-0.2c0.6-0.5,0.9-1.2,0.9-1.9c0-0.9-0.4-1.6-0.9-2.2c0,0,0-0.1,0-0.2c0-0.5-0.2-0.8-0.5-1.1
		c-0.9-5.1-4.9-9.3-9.9-10.6c0-0.1,0-0.1,0-0.2h-0.1c0-0.2-0.1-0.4-0.3-0.4c-0.7-0.7-1.6-1.8-1.6-2.5c0.8,0.2,2.2,1.5,2.9,2.1v-6.8
		c-0.7,0.5-2.1,1.8-2.9,2.1c0.1-0.8,1.4-2.3,2.1-2.9h-6.9c0.6,0.6,1.9,2.1,2.1,2.9c-0.8-0.2-2.2-1.5-2.9-2.1v6.8
		c0.7-0.5,2.1-1.8,2.9-2.1c-0.1,0.8-1.4,2.3-2.1,2.9l0.2,0.1c-5.1,1.2-9.3,5.4-10.2,10.7c-0.4,0.3-0.6,0.7-0.6,1.1
		c0,0.1,0,0.2,0,0.2c-0.6,0.6-0.9,1.3-0.9,2.2c0,0.7,0.4,1.4,0.9,1.9c0,0,0,0.1,0,0.2c0,0.8,0.5,1.1,1.1,1.2
		c0.2,0.7,0.5,1.3,0.8,1.9c0-0.1,0-0.1,0.1-0.1c-0.4,1.9-2.8,3.1-3.3,3.1c-4.2,0.6-8.9-1.2-13.1-2.8c-1.9-0.7-4.4-1.5-5.7-3.4
		c-0.8-1.3-1.1-2.2-0.7-3.4c0.5,0.6,1.2,1.2,2.3,1.8c0.1-0.6,0.1-1.2,0.3-1.7c1.1,1.6,2.8,2.4,4.9,2.3c-1.2-1.1-1.8-3.8-1.2-6.3
		c1.7,2.9,8.2,3.5,9.4-1.7c-2.4,1.1-4-0.1-4.4-1.4c-0.7-2.1,1.6-7.1-0.5-11c-1.7-2.9-3.7-4.7-8.2-5.4c0.4-0.5,0.5-1,0.6-1.8
		c-4.2,1.5-7.8,0.4-9.5-3c0.8,0.4,2.1,0.5,3.2,0.5c-3.7-3-3.5-11.6-0.8-16c0.4-0.2,0.5-0.5,0.8-0.6c0.8,1.6,3.2,1.6,4.5,3
		c0.5-0.5,0.7-0.6,1.2-1c0,0,0.1,7,0.6,9.9c0.5,3.2,3.6,2.9,5.2,4.3c1.9-2.1,5.3-2,4.8-5.6c-0.5-3.6-1.2-6.8-1.3-9.3
		c1.1,2.2,3.1,10.4,4,12.8c1.4,3.5,4.7,2.4,6.6,3.8c1.2-2.4,4.4-3.1,3.1-6.8c-0.4-0.9-5.5-11.8-6.3-13.8c1.8,2.7,6.8,12.2,8.3,14.8
		c1.7,2.8,4.8,1.4,7.1,2.1c0.4-2,3.4-4.3,1.2-7.8c-2.8-4.6-9.3-12.6-9.6-13.8c1.3,1.2,11.4,13.8,12.2,14.5c2.4,2.1,5.8,0.5,7.8,0.5
		c0-2.3,1.8-4.9-0.8-7.6c-2.4-2.3-8-6.3-9.2-7.6c3.7,2.6,8.1,6.6,10.7,7.3c4.6,1.2,6.3-0.6,8-1.4c-1.4-4.2,0.5-6.1-9.3-10.2
		c8.4,3,12.2,1.5,15.2-0.8c-1.2-3-4.2-5.5-6.6-6.4c5.2,0.1,8.6-2.2,10.8-5.2c-1.9-2.5-5.7-4.4-10-4.8
		C242.7,107,247.8,103,248.4,98.4z M52.6,129.4c-0.1,0-0.1,0.1-0.2,0.2c-0.7-0.1-0.7-0.9-0.6-1.7c0.3,0,0.6-0.1,0.8-0.3l0.1,0.1
		l-0.3,0.2C52.5,128.4,52.5,128.9,52.6,129.4z M54.9,134.3l-1.2-0.7c0.5-0.5,0.9-0.5,1.4-0.2C55.1,133.7,55.1,134.1,54.9,134.3z
		 M58.4,126.9c-0.2,0-0.3,0-0.5,0c0,0,0-0.1-0.1-0.1c0.2-0.1,0.4-0.1,0.6-0.1C58.5,126.8,58.4,126.8,58.4,126.9z M125.5,213.3
		c-2.9,0-5-1.8-3.5-4.4c0.8,1.1,2.3,1.7,3.6,1.8C125.5,211.9,125.5,212.3,125.5,213.3z M169.6,208.9c1.5,2.6-0.6,4.4-3.5,4.4
		c0-1,0-1.4-0.2-2.5C167.2,210.6,168.8,210.1,169.6,208.9z M125.3,52.5c6.6-1.4,13.4-5.1,16.4-8.3c2.5,0.2,5.8,0.2,8.2,0
		c3,3.2,9.6,6.8,16.3,8.2c-3.9,0-10.6-0.3-11.4-1.3c0.2,2.4,5.4,5.2,8.8,5.9c-2.8,0.3-5.4,0-7.6-1c1.2,1.7,2.6,3,4.8,3.8
		c-2.4,2.9-7.2,4.8-12,4.3c1.2,1.4,3.4,2.3,5.3,2.1c-4.3,6.9-7.5,13.9-8.3,22.1l0,0l0,0c-0.7-8.2-3.9-15.2-8.2-22.1
		c1.9,0.2,4.1-0.6,5.2-2.1c-4.8,0.5-9.5-1.4-11.9-4.3c2.3-0.8,3.6-2.1,4.8-3.8c-2.1,1-4.8,1.3-7.6,1c3.4-0.8,8.6-3.5,8.8-5.9
		C135.9,52.1,129.2,52.5,125.3,52.5z M64.7,125.2c-0.6,0.2-1.3,0.6-1.9,0.8c0-0.1,0-0.1,0-0.2C63.3,125.6,64.1,125.4,64.7,125.2z
		 M107.2,156.1c0.1,0.8,0.2,1.3,0.6,1.8c-4.6,0.7-6.5,2.5-8.2,5.4c-2.3,3.9,0.1,8.9-0.6,11c-0.5,1.3-2,2.6-4.4,1.4
		c1.2,5.2,7.7,4.6,9.4,1.7c0.6,2.4,0,5.2-1.2,6.3c2,0.1,3.7-0.7,4.8-2.3c0.2,0.5,0.2,1.1,0.3,1.7c1.1-0.6,1.8-1.2,2.3-1.8
		c0.2,0.6,0.4,1.9,0.1,3.1c-0.9,0.6-1.8,1.1-3.4,1.9c-2.4,1.2-6.8,2.9-9.4,3.2c-2.1,0.4-5.7-0.8-6.6-3.7c-0.8-2.8-3.1-3.6-5-1.9
		c-0.5-0.4-1.8-0.6-2.3,0.2c0,0-0.6-1.3-1.3-1.9c0.5-1.4,0.1-3.1-1.2-3.7c-0.1-2.8-1.8-2.8-2.4-3.7c-0.3-0.6-0.3-1.3,0.5-1.4
		c-0.3-0.5-1.1-0.6-1.2-0.6c0.2-1.2-0.1-2.7-1.7-3.1l-14-28.9c0.9-0.9,0.4-2.3-0.6-2.8c0,0,0-0.1,0-0.2c0.1-0.2,0.1-0.4,0.1-0.6
		c0.4-0.1,0.8-0.1,1.2-0.2c2.8-0.6,7.1-4.7,10.8-7.3c-1.3,1.4-6.8,5.3-9.2,7.6c-2.3,2.2-1.3,4.5-1,6.5l0.5,1.1
		c2.1,0.1,5.1,1.4,7.4-0.5c0.7-0.7,10.8-13.2,12.2-14.5c-0.5,1.1-6.9,9.2-9.8,13.8c-2.1,3.5,1,5.8,1.4,7.8c2.3-0.7,5.4,0.7,7.1-2.1
		c1.6-2.7,6.5-12.2,8.3-14.8c-0.7,2.1-5.9,12.9-6.3,13.8c-1.2,3.7,1.9,4.4,3.1,6.8c1.9-1.4,5.3-0.3,6.6-3.8c0.8-2.4,2.9-10.6,4-12.8
		c-0.1,2.4-0.8,5.7-1.3,9.3c-0.5,3.6,2.9,3.5,4.7,5.6c1.7-1.4,4.9-1.1,5.3-4.3c0.5-2.9,0.6-9.9,0.6-9.9c0.5,0.4,0.7,0.5,1.2,1
		c1.2-1.4,3.6-1.4,4.4-3c0.4,0.1,0.5,0.4,0.8,0.6c2.7,4.4,2.9,13-0.8,16c1.1,0,2.4-0.1,3.2-0.5C115.1,156.5,111.4,157.7,107.2,156.1
		z M133.4,196.6c-2.2,3-3.9,5.2-5.3,8.9c-2.6-0.2-2.1-3.4-1.2-5c1.7-3.1,8.7-7.2,12.2-11.3C137.5,191.9,135.4,194.2,133.4,196.6z
		 M141,202.2c-1.4,5.5-2.4,13.7-1.9,17.4c-4.9-2.6-2.1-12.4-0.2-16.7c2.6-5.9,4.5-13.1,5.1-17.7C145.4,188.6,142,198.4,141,202.2z
		 M152.5,219.5c0.5-3.7-0.5-11.8-1.9-17.4c-1-3.7-4.4-13.5-2.9-17c0.6,4.6,2.4,11.8,5.1,17.7C154.6,207.1,157.4,217,152.5,219.5z
		 M164.7,200.6c0.8,1.6,1.3,4.7-1.2,5c-1.4-3.7-3.1-5.9-5.3-8.9c-2-2.3-4.1-4.7-5.7-7.3C156,193.4,162.9,197.4,164.7,200.6z
		 M164.1,158.3c-6.4,12.4-18.1,22.6-18.3,22.4c-0.1,0.1-11.9-10-18.3-22.4c-6.4-12.4-10.5-31.9-10.7-41.3
		c-0.2-9.3,1.6-13.3,1.6-13.3s8-0.4,14.4-2.7c5.4-1.9,11.4-6.6,13-8c1.6,1.4,7.6,6.2,13,8c6.4,2.2,14.4,2.7,14.4,2.7s1.8,4,1.6,13.3
		C174.6,126.3,170.5,145.9,164.1,158.3z"/>
</g>
<path class="st1" d="M66.7,241.4l0.4-4.5H67l-1.7,3.9l-7.9,12.6h-1.2l-8.3-12.6l-1.7-3.8H46l0.6,4.5v18.3h-3.8v-28.3h3l9.6,14.5
	l1.5,3.1h0.1l1.4-3.2l9.1-14.4h3.2v28.3h-4.1V241.4z"/>
<path class="st1" d="M90.7,247.5l0.6-4.2h-0.4l-2,4l-10,12.4H76v-21.3h3.7v12.6l-0.3,3.7h0.4l1.9-3.6l9.8-12.7h2.9v21.3h-3.7V247.5z
	"/>
<path class="st1" d="M114,250.4h-10.7v9.3h-3.7v-21.3h3.7v8.7H114v-8.7h3.7v21.3H114V250.4z"/>
<path class="st1" d="M144,265h-2.5l-0.7-5.3h-17.9v-21.3h3.7v18.1h10.2v-18.1h3.7v18.1h3.4V265z"/>
<path class="st1" d="M161.1,247.5l0.6-4.2h-0.4l-2,4l-10,12.4h-2.9v-21.3h3.7v12.6l-0.3,3.7h0.4l1.9-3.6l9.8-12.7h2.9v21.3h-3.7
	V247.5z"/>
<path class="st1" d="M180.7,259.8c-0.6,0.2-1.3,0.3-1.8,0.4c-0.6,0-1.1,0.1-1.6,0.1c-2.8,0-5-0.9-6.5-2.8c-1.5-1.8-2.3-4.7-2.3-8.4
	c0-3.5,0.8-6.3,2.5-8.2c1.7-1.9,4.1-2.9,7.3-2.9c0.4,0,0.8,0,1.2,0c0.4,0,0.8,0.1,1.2,0.2v-6.9h3.7v7c0.7-0.1,1.3-0.2,1.7-0.2
	c0.5,0,0.9,0,1.2,0c3.1,0,5.4,0.8,6.9,2.5c1.6,1.7,2.3,4.4,2.3,8.1c0,1.7-0.2,3.3-0.6,4.7c-0.4,1.4-1,2.7-1.8,3.7
	c-0.8,1-1.8,1.8-3,2.4c-1.2,0.6-2.5,0.9-4,0.9c-0.3,0-0.7,0-1.3-0.1c-0.6-0.1-1.1-0.2-1.5-0.3v7.9h-3.7V259.8z M178.4,257.2
	c0.4,0,0.7,0,1.1,0c0.4,0,0.8-0.1,1.4-0.2v-15.7c-0.5-0.1-0.9-0.2-1.2-0.2c-0.3,0-0.7-0.1-1.1-0.1c-1.9,0-3.4,0.7-4.5,2
	c-1.1,1.3-1.6,3.3-1.6,6.1c0,1.2,0.1,2.2,0.3,3.2c0.2,1,0.6,1.9,1.1,2.6c0.5,0.7,1.1,1.3,1.9,1.7C176.4,257,177.3,257.2,178.4,257.2
	z M186.6,241c-0.4,0-0.8,0-1.1,0c-0.3,0-0.7,0.1-1.1,0.2V257c0.4,0.1,0.8,0.1,1.2,0.1c0.4,0,0.8,0,1.3,0c2,0,3.5-0.7,4.5-2.2
	c1-1.5,1.5-3.6,1.5-6.4c0-1.2-0.1-2.2-0.3-3.2c-0.2-0.9-0.6-1.7-1.1-2.4c-0.5-0.7-1.1-1.2-1.9-1.5C188.8,241.1,187.8,241,186.6,241z
	"/>
<path class="st1" d="M200.3,238.4h2.5l0.7,2.7h0.4c0.7-1.1,1.7-1.9,2.8-2.4c1.2-0.6,2.5-0.9,3.9-0.9c3.1,0,5.4,0.9,6.9,2.6
	c1.5,1.7,2.3,4.4,2.3,8.2c0,1.8-0.2,3.4-0.7,4.8c-0.5,1.4-1.2,2.7-2.1,3.7c-0.9,1-2.1,1.8-3.4,2.3c-1.3,0.5-2.8,0.8-4.5,0.8
	c-0.5,0-1,0-1.5-0.1c-0.4,0-0.9-0.1-1.2-0.2c-0.4-0.1-0.8-0.2-1.1-0.3c-0.4-0.1-0.8-0.3-1.2-0.4v8.5h-3.7V238.4z M209.8,240.9
	c-1.6,0-2.9,0.4-3.8,1.2c-0.9,0.8-1.6,2.1-2,3.7v9.8c0.6,0.4,1.3,0.8,2,1c0.7,0.2,1.6,0.4,2.8,0.4c2.2,0,3.9-0.7,5.1-2.1
	c1.2-1.4,1.9-3.6,1.9-6.4c0-2.3-0.5-4.1-1.4-5.5C213.5,241.6,212,240.9,209.8,240.9z"/>
<path class="st1" d="M227.6,246.5c0.9-0.1,1.7-0.2,2.4-0.3c0.7,0,1.4-0.1,2-0.1c1.6,0,2.9,0.2,3.9,0.5c1.1,0.3,1.9,0.8,2.6,1.3
	c0.6,0.6,1.1,1.2,1.4,2c0.3,0.8,0.4,1.6,0.4,2.5c0,2.6-0.8,4.4-2.3,5.6c-1.6,1.2-4.1,1.8-7.7,1.8c-1.1,0-2.2,0-3.3,0
	c-1.1,0-2.1-0.1-3.2-0.2v-21.3h3.7V246.5z M227.6,256.5c1.1,0.2,2.3,0.2,3.5,0.2c1.9,0,3.3-0.3,4.1-1c0.8-0.7,1.2-1.6,1.2-2.9
	c0-1.1-0.4-2-1.1-2.7c-0.8-0.7-2.1-1.1-4-1.1c-0.5,0-1.1,0-1.7,0.1c-0.6,0-1.3,0.1-1.9,0.3V256.5z M244.2,238.4h3.7v21.3h-3.7V238.4
	z"/>
<path class="st1" d="M82.4,264.1c1.1-0.2,2.4-0.4,3.7-0.5c1.3-0.1,2.7-0.1,3.9-0.1c1.4,0,2.8,0.1,4.2,0.4c1.4,0.2,2.7,0.7,3.9,1.3
	c1.2,0.6,2.1,1.5,2.9,2.7c0.7,1.1,1.1,2.6,1.1,4.4c0,1.7-0.3,3.2-1,4.4c-0.7,1.2-1.6,2.2-2.7,2.9s-2.4,1.3-3.8,1.7
	c-1.4,0.4-2.9,0.5-4.5,0.5c-0.2,0-0.4,0-0.7,0c-0.3,0-0.7,0-1.1,0c-0.4,0-0.7,0-1.1-0.1c-0.3,0-0.6-0.1-0.7-0.1v10.6h-4V264.1z
	 M90.2,267c-0.7,0-1.4,0-2.1,0c-0.7,0-1.2,0.1-1.6,0.2V278c0.1,0.1,0.4,0.1,0.7,0.1c0.3,0,0.6,0,1,0.1c0.3,0,0.7,0,1,0
	c0.3,0,0.5,0,0.7,0c1,0,1.9-0.1,2.9-0.2c0.9-0.1,1.8-0.4,2.6-0.9c0.8-0.4,1.4-1,1.9-1.8c0.5-0.8,0.7-1.8,0.7-3
	c0-1.1-0.2-1.9-0.7-2.6c-0.5-0.7-1.1-1.2-1.8-1.6c-0.7-0.4-1.5-0.7-2.5-0.8C92,267.1,91.1,267,90.2,267z"/>
<path class="st1" d="M103,281.6c0-1.8,0.2-3.3,0.7-4.7c0.5-1.4,1.1-2.6,2-3.5c0.9-1,2-1.7,3.3-2.2c1.3-0.5,2.7-0.8,4.4-0.8
	c1.7,0,3.2,0.3,4.5,0.9c1.3,0.6,2.4,1.4,3.2,2.4c0.9,1,1.5,2.2,1.9,3.6c0.4,1.4,0.6,2.9,0.6,4.5c0,1.7-0.2,3.3-0.7,4.7
	c-0.5,1.4-1.1,2.6-2,3.5s-2,1.7-3.2,2.2c-1.3,0.5-2.7,0.8-4.4,0.8c-1.8,0-3.3-0.3-4.6-0.9c-1.3-0.6-2.4-1.3-3.2-2.3
	c-0.9-1-1.5-2.2-1.9-3.5C103.2,284.7,103,283.2,103,281.6z M107.1,281.6c0,1,0.1,2,0.3,2.9c0.2,1,0.6,1.8,1.1,2.6
	c0.5,0.8,1.2,1.4,2,1.8c0.8,0.5,1.8,0.7,3,0.7c4.2,0,6.2-2.7,6.2-8c0-1.1-0.1-2.1-0.3-3c-0.2-1-0.6-1.8-1.1-2.6
	c-0.5-0.7-1.1-1.3-1.9-1.8c-0.8-0.5-1.8-0.7-2.9-0.7c-2.1,0-3.7,0.7-4.7,2S107.1,278.9,107.1,281.6z"/>
<path class="st1" d="M144.1,290.7c-0.9,0.7-2.1,1.2-3.3,1.5c-1.3,0.3-2.6,0.5-4,0.5c-1.8,0-3.3-0.3-4.6-0.8
	c-1.3-0.5-2.3-1.3-3.1-2.3c-0.8-1-1.4-2.1-1.7-3.5s-0.5-2.9-0.5-4.6c0-3.6,0.9-6.4,2.6-8.3c1.7-2,4.2-2.9,7.5-2.9
	c1.4,0,2.7,0.1,3.7,0.4c1.1,0.3,2,0.6,2.8,1l-1,3c-0.7-0.4-1.5-0.7-2.4-0.9c-0.8-0.2-1.8-0.3-2.8-0.3c-4.4,0-6.6,2.7-6.6,8.1
	c0,1,0.1,2,0.4,3c0.2,1,0.6,1.8,1.2,2.6c0.5,0.7,1.2,1.3,2.1,1.8c0.9,0.5,1.9,0.7,3.2,0.7c1.1,0,2.1-0.2,3-0.5
	c0.8-0.3,1.5-0.7,2.1-1.1L144.1,290.7z"/>
<path class="st1" d="M163,290.7c-0.9,0.7-2.1,1.2-3.3,1.5c-1.3,0.3-2.6,0.5-4,0.5c-1.8,0-3.3-0.3-4.6-0.8c-1.3-0.5-2.3-1.3-3.1-2.3
	c-0.8-1-1.4-2.1-1.7-3.5s-0.5-2.9-0.5-4.6c0-3.6,0.9-6.4,2.6-8.3c1.7-2,4.2-2.9,7.5-2.9c1.4,0,2.7,0.1,3.7,0.4c1.1,0.3,2,0.6,2.8,1
	l-1,3c-0.7-0.4-1.5-0.7-2.4-0.9c-0.8-0.2-1.8-0.3-2.8-0.3c-4.4,0-6.6,2.7-6.6,8.1c0,1,0.1,2,0.4,3c0.2,1,0.6,1.8,1.2,2.6
	c0.5,0.7,1.2,1.3,2.1,1.8c0.9,0.5,1.9,0.7,3.2,0.7c1.1,0,2.1-0.2,3-0.5c0.8-0.3,1.5-0.7,2.1-1.1L163,290.7z"/>
<path class="st1" d="M181.5,280l0.6-4.2h-0.4l-2,4l-10,12.4h-2.9v-21.3h3.7v12.6l-0.3,3.7h0.4l1.9-3.6l9.8-12.7h2.9v21.3h-3.7V280z"
	/>
<path class="st1" d="M205.4,280l0.6-4.2h-0.4l-2,4l-10,12.4h-2.9v-21.3h3.7v12.6l-0.3,3.7h0.4l1.9-3.6l9.8-12.7h2.9v21.3h-3.7V280z"
	/>
</svg>
