<svg width="6" height="11" viewBox="0 0 6 11" fill="none" xmlns="http://www.w3.org/2000/svg">
  <path d="M0 1.029C0.158667 0.889 0.331333 0.756 0.518 0.63C0.709333 0.504 0.914667 0.394333 1.134 0.301C1.35333 0.207667 1.59133 0.135333 1.848 0.0839996C2.10467 0.0279998 2.38233 0 2.681 0C3.087 0 3.45567 0.0560001 3.787 0.168C4.123 0.28 4.41 0.441 4.648 0.651C4.886 0.856333 5.07033 1.106 5.201 1.4C5.33167 1.694 5.397 2.023 5.397 2.387C5.397 2.74167 5.34567 3.04967 5.243 3.311C5.14033 3.56767 5.012 3.79167 4.858 3.983C4.704 4.17433 4.53367 4.34 4.347 4.48C4.165 4.62 3.99233 4.753 3.829 4.879C3.66567 5.00033 3.52333 5.12167 3.402 5.243C3.28533 5.35967 3.21533 5.49267 3.192 5.642L3.031 6.664H1.848L1.729 5.523C1.701 5.30367 1.73133 5.11233 1.82 4.949C1.91333 4.781 2.03467 4.62933 2.184 4.494C2.338 4.354 2.50833 4.221 2.695 4.095C2.88167 3.96433 3.05667 3.82433 3.22 3.675C3.38333 3.521 3.51867 3.35067 3.626 3.164C3.738 2.97267 3.794 2.74633 3.794 2.485C3.794 2.317 3.76133 2.16767 3.696 2.037C3.63533 1.90167 3.549 1.78733 3.437 1.694C3.325 1.596 3.18967 1.52133 3.031 1.47C2.877 1.41867 2.709 1.393 2.527 1.393C2.261 1.393 2.03467 1.42333 1.848 1.484C1.666 1.54 1.50967 1.60533 1.379 1.68C1.253 1.75 1.14567 1.81533 1.057 1.876C0.968333 1.932 0.889 1.96 0.819 1.96C0.651 1.96 0.529667 1.89 0.455 1.75L0 1.029ZM1.323 9.282C1.323 9.13733 1.34867 8.99967 1.4 8.869C1.456 8.73833 1.53067 8.62633 1.624 8.533C1.71733 8.43967 1.82933 8.365 1.96 8.309C2.09067 8.253 2.23067 8.225 2.38 8.225C2.52933 8.225 2.667 8.253 2.793 8.309C2.92367 8.365 3.03567 8.43967 3.129 8.533C3.227 8.62633 3.304 8.73833 3.36 8.869C3.416 8.99967 3.444 9.13733 3.444 9.282C3.444 9.43133 3.416 9.57133 3.36 9.702C3.304 9.828 3.227 9.93767 3.129 10.031C3.03567 10.1243 2.92367 10.1967 2.793 10.248C2.667 10.304 2.52933 10.332 2.38 10.332C2.23067 10.332 2.09067 10.304 1.96 10.248C1.82933 10.1967 1.71733 10.1243 1.624 10.031C1.53067 9.93767 1.456 9.828 1.4 9.702C1.34867 9.57133 1.323 9.43133 1.323 9.282Z" fill="#0D4CD3"/>
</svg>
