<svg width="166" height="166" viewBox="0 0 166 166" fill="none" xmlns="http://www.w3.org/2000/svg">
  <rect x="53" y="41" width="82" height="119" rx="24" stroke="#66727F" stroke-width="4"/>
    <line x1="93" y1="41" x2="93" y2="57" stroke="#66727F" stroke-width="4" stroke-linecap="round" stroke-linejoin="round"/>
    <line x1="93" y1="82" x2="93" y2="91" stroke="#66727F" stroke-width="4" stroke-linecap="round" stroke-linejoin="round"/>
  <rect x="86" y="57" width="14" height="25" rx="7" stroke="#2DC36A" stroke-width="4"/>
  <path d="M93 37C93 9.31429 63.7083 15.1429 55 3" stroke="#66727F" stroke-width="4" stroke-linecap="square" stroke-linejoin="round"/>
  <path d="M27.7278 40V29H23.7278L23.7278 40H27.7278Z" fill="#2DC36A"/>
  <path d="M27.7278 42V53H23.7278L23.7278 42H27.7278Z" fill="#2DC36A"/>
  <path d="M27.7278 67V56H23.7278L23.7278 67H27.7278Z" fill="#2DC36A"/>
  <path d="M27.1421 123.742L39.8701 111.014C40.6511 110.233 40.6511 108.967 39.8701 108.186C39.089 107.405 37.8227 107.405 37.0416 108.186L27.7279 117.5L27.7279 70.552H23.7279L23.7279 117.5L14.4142 108.186C13.6332 107.405 12.3668 107.405 11.5858 108.186C10.8047 108.967 10.8047 110.233 11.5858 111.014L24.3137 123.742C25.0948 124.523 26.3611 124.523 27.1421 123.742Z" fill="#2DC36A"/>
</svg>
