<svg width="120" height="120" viewBox="0 0 120 120" fill="none" xmlns="http://www.w3.org/2000/svg">
  <g clip-path="url(#clip0)">
    <path d="M82.8577 25.256C78.4301 20.1034 63.6252 20.8284 51.7259 21.3985C49.2907 21.5174 47.0381 21.6254 45.1204 21.6752C43.4562 21.7556 41.8909 22.4891 40.7641 23.7164C39.6373 24.9437 39.0399 26.5659 39.1016 28.2308C39.0947 29.7375 39.5893 31.2037 40.5074 32.3984C39.4591 33.0587 38.6014 33.9812 38.019 35.0747C37.4366 36.1681 37.1497 37.3947 37.1867 38.633C37.176 40.1624 37.6253 41.6597 38.4762 42.9306C37.2731 43.5101 36.2621 44.4236 35.5638 45.5619C34.8656 46.7003 34.5096 48.0155 34.5384 49.3507C34.5337 50.6483 34.8757 51.9237 35.5291 53.045L26.0595 53.0616C24.4275 50.4669 21.9951 48.4742 19.1301 47.3845C16.2651 46.2949 13.1232 46.1676 10.1795 47.0219C7.23574 47.8763 4.65016 49.6657 2.81363 52.1199C0.977108 54.574 -0.0105119 57.5593 8.27445e-05 60.6245L8.37855e-05 84.4396C8.38047e-05 84.88 0.175014 85.3023 0.486393 85.6137C0.797771 85.9251 1.22009 86.1 1.66045 86.1C2.1008 86.1 2.52312 85.9251 2.8345 85.6137C3.14588 85.3023 3.32081 84.88 3.32081 84.4396L3.32081 60.6217C3.31583 58.4733 3.95223 56.3722 5.14852 54.5875C6.34481 52.8029 8.04654 51.4159 10.0358 50.6042C12.0251 49.7925 14.2113 49.593 16.3147 50.0313C18.418 50.4696 20.3426 51.5257 21.8421 53.0643L14.174 53.0643C13.2411 53.0511 12.3149 53.2247 11.4501 53.5751C10.5853 53.9254 9.79939 54.4454 9.13871 55.1043C8.47804 55.7632 7.95596 56.5476 7.60326 57.4115C7.25056 58.2753 7.07437 59.201 7.08509 60.134C7.0958 61.067 7.2932 61.9885 7.66565 62.844C8.0381 63.6995 8.57806 64.4718 9.25369 65.1153C9.92933 65.7588 10.727 66.2606 11.5996 66.591C12.4722 66.9214 13.4021 67.0737 14.3345 67.039L23.0597 67.039L23.0597 84.4396C23.0597 84.88 23.2347 85.3023 23.5461 85.6137C23.8574 85.9251 24.2798 86.1 24.7201 86.1C25.1605 86.1 25.5828 85.9251 25.8942 85.6137C26.2055 85.3023 26.3805 84.88 26.3805 84.4396L26.3805 67.0501L50.8182 67.0501C55.5807 67.0501 57.5898 67.8194 58.0297 68.276C58.4697 68.7326 59.9309 70.2352 57.9301 73.6334C57.0446 75.1333 56.1314 76.5059 55.2846 77.7844C53.1182 80.346 51.7162 83.4655 51.2389 86.7863C51.2389 95.7633 55.5586 97.3351 58.1321 97.4735C62.5598 97.7059 62.7535 93.8899 62.8614 91.8393C62.7897 90.8232 63.0034 89.8072 63.4785 88.906C64.764 87.6861 66.1275 86.551 67.5602 85.5078C71.8295 82.4597 75.6892 78.8753 79.0444 74.8427C81.8927 70.8919 85.1381 67.2431 88.7298 63.9535L94.5826 63.9535L94.5826 68.0629C94.5826 68.5033 94.7576 68.9256 95.0689 69.237C95.3803 69.5484 95.8026 69.7233 96.243 69.7233L118.34 69.7233C118.558 69.7233 118.774 69.6803 118.975 69.5969C119.176 69.5135 119.36 69.3912 119.514 69.237C119.668 69.0828 119.79 68.8998 119.874 68.6983C119.957 68.4969 120 68.281 120 68.0629C120 67.8449 119.957 67.629 119.874 67.4275C119.79 67.2261 119.668 67.0431 119.514 66.8889C119.36 66.7347 119.176 66.6124 118.975 66.529C118.774 66.4455 118.558 66.4026 118.34 66.4026L97.9172 66.4026L97.9172 26.208L118.34 26.208C118.78 26.208 119.202 26.033 119.514 25.7217C119.825 25.4103 120 24.988 120 24.5476C120 24.1072 119.825 23.6849 119.514 23.3736C119.202 23.0622 118.78 22.8872 118.34 22.8872L96.2596 22.8872C95.8192 22.8872 95.3969 23.0622 95.0855 23.3736C94.7742 23.6849 94.5992 24.1072 94.5992 24.5476L94.5992 28.9393C91.9205 29.0942 86.0456 28.9725 82.8577 25.256ZM94.5992 60.6411L88.4531 60.6411C85.553 60.6411 76.457 72.7673 76.3684 72.8891C73.1904 76.6618 69.5506 80.02 65.5346 82.8844C63.9418 84.0389 62.4351 85.3078 61.0267 86.6811C59.9719 88.1195 59.4539 89.8818 59.5628 91.6622C59.4272 94.2136 59.2861 94.2053 58.3258 94.1528C55.2265 93.9867 54.5762 90.0544 54.5762 86.7835C55.1298 84.1441 56.3297 81.6833 58.0685 79.6218C58.9457 78.3018 59.8893 76.8822 60.8081 75.3243C63.6667 70.4843 61.7988 67.3905 60.4373 65.9736C59.0038 64.4876 55.7717 63.7349 50.8348 63.7349L14.3456 63.7349C13.3378 63.7663 12.3587 63.3973 11.6223 62.7086C10.8859 62.0199 10.4522 61.0676 10.4161 60.06C10.4415 59.071 10.8552 58.1318 11.5679 57.4456C12.2805 56.7594 13.2346 56.3814 14.2239 56.3934L52.5173 56.3325C52.9577 56.3325 53.38 56.1575 53.6914 55.8462C54.0028 55.5348 54.1777 55.1125 54.1777 54.6721C54.1777 54.4541 54.1348 54.2382 54.0513 54.0367C53.9679 53.8353 53.8456 53.6522 53.6914 53.4981C53.5372 53.3439 53.3542 53.2216 53.1527 53.1381C52.9513 53.0547 52.7354 53.0118 52.5173 53.0118L41.1079 53.0118C40.2216 52.9005 39.4054 52.4726 38.8098 51.807C38.2141 51.1413 37.8792 50.2828 37.8667 49.3897C37.8543 48.4965 38.1651 47.629 38.7419 46.9469C39.3187 46.2649 40.1227 45.8144 41.0055 45.6785L53.0874 45.6176C53.5278 45.6176 53.9501 45.4427 54.2615 45.1313C54.5728 44.8199 54.7478 44.3976 54.7478 43.9572C54.7478 43.7392 54.7048 43.5233 54.6214 43.3218C54.5379 43.1204 54.4156 42.9374 54.2615 42.7832C54.1073 42.629 53.9242 42.5067 53.7228 42.4233C53.5213 42.3398 53.3054 42.2969 53.0874 42.2969L43.2913 42.2969C41.7886 42.2969 40.524 40.6171 40.524 38.6275C40.4295 37.7892 40.6549 36.9461 41.1551 36.2669C41.6553 35.5876 42.3935 35.1221 43.2221 34.9636L55.3151 34.7837C55.7511 34.7772 56.167 34.5994 56.473 34.2887C56.779 33.978 56.9506 33.5594 56.9505 33.1234C56.9505 32.683 56.7756 32.2607 56.4642 31.9493C56.1528 31.6379 55.7305 31.463 55.2901 31.463L45.2616 31.463C44.4812 31.3594 43.7645 30.9779 43.2427 30.3885C42.721 29.799 42.4294 29.0412 42.4213 28.2541C42.4132 27.467 42.6893 26.7034 43.1988 26.1033C43.7083 25.5033 44.4171 25.1072 45.1951 24.9876C47.1322 24.9461 49.418 24.8354 51.8892 24.7109C61.8762 24.2266 76.9745 23.496 80.3395 27.4145C84.4101 32.1604 91.2674 32.4482 94.5992 32.2711L94.5992 60.6411Z" fill="#66727F"/>
    <path d="M11.7428 89.1717L11.7428 75.5152C11.7428 75.0748 11.5679 74.6525 11.2565 74.3411C10.9452 74.0298 10.5228 73.8548 10.0825 73.8548C9.64212 73.8548 9.2198 74.0298 8.90843 74.3411C8.59705 74.6525 8.42212 75.0748 8.42212 75.5152L8.42212 89.1717C8.42212 89.612 8.59705 90.0343 8.90843 90.3457C9.21981 90.6571 9.64212 90.832 10.0825 90.832C10.5228 90.832 10.9452 90.6571 11.2565 90.3457C11.5679 90.0343 11.7428 89.612 11.7428 89.1717Z" fill="#2DC36A"/>
    <path d="M17.5773 97.5066L17.5773 75.515C17.5773 75.0746 17.4024 74.6523 17.091 74.3409C16.7796 74.0296 16.3573 73.8546 15.917 73.8546C15.4766 73.8546 15.0543 74.0296 14.7429 74.3409C14.4315 74.6523 14.2566 75.0746 14.2566 75.515L14.2566 97.5066C14.2566 97.947 14.4315 98.3693 14.7429 98.6807C15.0543 98.9921 15.4766 99.167 15.917 99.167C16.3573 99.167 16.7796 98.9921 17.091 98.6807C17.4024 98.3693 17.5773 97.947 17.5773 97.5066Z" fill="#2DC36A"/>
  </g>
  <defs>
    <clipPath id="clip0">
      <rect width="120" height="120" fill="white"/>
    </clipPath>
  </defs>
</svg>
