<svg width="305" height="166" viewBox="0 0 305 166" fill="none" xmlns="http://www.w3.org/2000/svg">
<path d="M179.803 40.2935C174.491 34.1117 156.729 34.9815 142.453 35.6654C139.532 35.8082 136.829 35.9377 134.529 35.9974C132.532 36.094 130.654 36.9739 129.302 38.4464C127.95 39.9188 127.234 41.865 127.308 43.8625C127.299 45.6702 127.893 47.4292 128.994 48.8624C127.736 49.6547 126.707 50.7614 126.009 52.0733C125.31 53.3852 124.966 54.8567 125.01 56.3424C124.997 58.1773 125.536 59.9736 126.557 61.4984C125.114 62.1937 123.901 63.2896 123.063 64.6553C122.225 66.021 121.798 67.599 121.833 69.2008C121.827 70.7577 122.238 72.2878 123.021 73.633L111.66 73.6529C109.702 70.54 106.784 68.1492 103.347 66.8419C99.9097 65.5346 96.1403 65.3819 92.6085 66.4069C89.0768 67.4319 85.9748 69.5788 83.7714 72.5231C81.5681 75.4674 80.3832 79.049 80.3959 82.7264L80.3959 111.298C80.3959 111.827 80.6058 112.333 80.9794 112.707C81.3529 113.081 81.8596 113.29 82.3879 113.29C82.9162 113.29 83.4229 113.081 83.7965 112.707C84.17 112.333 84.3799 111.827 84.3799 111.298L84.3799 82.7231C84.3739 80.1455 85.1375 77.6248 86.5727 75.4837C88.0079 73.3426 90.0496 71.6786 92.4362 70.7047C94.8228 69.7309 97.4457 69.4916 99.9691 70.0174C102.493 70.5432 104.802 71.8102 106.601 73.6562L97.401 73.6562C96.2816 73.6403 95.1704 73.8487 94.1329 74.269C93.0954 74.6893 92.1525 75.3131 91.3599 76.1036C90.5672 76.8941 89.9409 77.8353 89.5177 78.8716C89.0946 79.908 88.8832 81.0186 88.8961 82.138C88.9089 83.2574 89.1457 84.3628 89.5926 85.3892C90.0394 86.4156 90.6872 87.3421 91.4978 88.1142C92.3084 88.8863 93.2654 89.4883 94.3123 89.8846C95.3592 90.281 96.4748 90.4638 97.5935 90.4222L108.061 90.4222L108.061 111.298C108.061 111.827 108.271 112.333 108.645 112.707C109.018 113.081 109.525 113.29 110.053 113.29C110.582 113.29 111.088 113.081 111.462 112.707C111.836 112.333 112.045 111.827 112.045 111.298L112.045 90.4355L141.364 90.4355C147.078 90.4355 149.488 91.3584 150.016 91.9063C150.544 92.454 152.297 94.2568 149.897 98.3338C148.834 100.133 147.739 101.78 146.723 103.314C144.124 106.387 142.442 110.13 141.869 114.114C141.869 124.884 147.052 126.77 150.139 126.936C155.451 127.214 155.684 122.636 155.813 120.176C155.727 118.957 155.983 117.738 156.553 116.657C158.096 115.193 159.731 113.831 161.45 112.58C166.572 108.923 171.203 104.623 175.228 99.7846C178.646 95.0446 182.539 90.667 186.848 86.7204L193.87 86.7204L193.87 91.6506C193.87 92.1789 194.08 92.6856 194.454 93.0592C194.827 93.4327 195.334 93.6426 195.862 93.6426L222.372 93.6426C222.634 93.6426 222.893 93.5911 223.135 93.491C223.376 93.3909 223.596 93.2441 223.781 93.0592C223.966 92.8742 224.113 92.6546 224.213 92.4129C224.313 92.1712 224.364 91.9122 224.364 91.6506C224.364 91.389 224.313 91.13 224.213 90.8883C224.113 90.6466 223.966 90.427 223.781 90.242C223.596 90.0571 223.376 89.9103 223.135 89.8102C222.893 89.7101 222.634 89.6586 222.372 89.6586L197.871 89.6586L197.871 41.4356L222.372 41.4356C222.901 41.4356 223.407 41.2257 223.781 40.8522C224.155 40.4786 224.364 39.9719 224.364 39.4436C224.364 38.9153 224.155 38.4086 223.781 38.035C223.407 37.6615 222.901 37.4516 222.372 37.4516L195.882 37.4516C195.354 37.4516 194.847 37.6615 194.474 38.035C194.1 38.4086 193.89 38.9153 193.89 39.4436L193.89 44.7124C190.676 44.8984 183.628 44.7523 179.803 40.2935ZM193.89 82.7464L186.516 82.7464C183.037 82.7464 172.124 97.2946 172.018 97.4407C168.205 101.967 163.838 105.996 159.02 109.433C157.109 110.818 155.302 112.34 153.612 113.988C152.346 115.713 151.725 117.828 151.856 119.964C151.693 123.025 151.524 123.015 150.372 122.952C146.653 122.752 145.873 118.035 145.873 114.11C146.537 110.944 147.977 107.992 150.063 105.518C151.115 103.935 152.247 102.231 153.35 100.362C156.779 94.5556 154.538 90.8438 152.905 89.144C151.185 87.3612 147.307 86.4581 141.384 86.4581L97.6068 86.4581C96.3977 86.4958 95.223 86.0531 94.3395 85.2268C93.456 84.4006 92.9357 83.258 92.8924 82.0492C92.9229 80.8627 93.4193 79.7359 94.2742 78.9126C95.1292 78.0893 96.2739 77.6358 97.4607 77.6502L143.403 77.5771C143.931 77.5771 144.438 77.3673 144.811 76.9937C145.185 76.6201 145.395 76.1134 145.395 75.5851C145.395 75.3235 145.343 75.0645 145.243 74.8228C145.143 74.5811 144.996 74.3615 144.811 74.1766C144.626 73.9916 144.407 73.8449 144.165 73.7448C143.923 73.6447 143.664 73.5931 143.403 73.5931L129.715 73.5931C128.651 73.4597 127.672 72.9463 126.957 72.1477C126.243 71.3491 125.841 70.3191 125.826 69.2476C125.811 68.176 126.184 67.1352 126.876 66.3169C127.568 65.4987 128.533 64.9582 129.592 64.7951L144.087 64.7221C144.615 64.7221 145.122 64.5122 145.495 64.1386C145.869 63.7651 146.079 63.2584 146.079 62.7301C146.079 62.4685 146.027 62.2095 145.927 61.9678C145.827 61.7261 145.68 61.5065 145.495 61.3215C145.31 61.1366 145.091 60.9898 144.849 60.8897C144.607 60.7896 144.348 60.7381 144.087 60.7381L132.334 60.7381C130.531 60.7381 129.014 58.7228 129.014 56.3358C128.901 55.33 129.171 54.3186 129.771 53.5036C130.371 52.6887 131.257 52.1303 132.251 51.9401L146.759 51.7243C147.283 51.7164 147.782 51.5031 148.149 51.1304C148.516 50.7577 148.722 50.2555 148.722 49.7323C148.722 49.204 148.512 48.6973 148.138 48.3237C147.765 47.9502 147.258 47.7403 146.73 47.7403L134.698 47.7403C133.762 47.616 132.902 47.1583 132.276 46.4511C131.65 45.7439 131.3 44.8348 131.29 43.8904C131.281 42.9461 131.612 42.0299 132.223 41.3101C132.834 40.5902 133.685 40.1149 134.618 39.9715C136.942 39.9217 139.684 39.7889 142.649 39.6395C154.631 39.0585 172.745 38.182 176.782 42.8831C181.666 48.5769 189.893 48.9222 193.89 48.7097L193.89 82.7464Z" fill="#66727F"/>
<path d="M97.3412 116.975L97.3412 100.591C97.3412 100.063 97.1313 99.5561 96.7577 99.1825C96.3842 98.809 95.8775 98.5991 95.3492 98.5991C94.8209 98.5991 94.3142 98.809 93.9406 99.1825C93.567 99.5561 93.3572 100.063 93.3572 100.591L93.3572 116.975C93.3572 117.504 93.567 118.01 93.9406 118.384C94.3142 118.757 94.8209 118.967 95.3492 118.967C95.8775 118.967 96.3842 118.757 96.7577 118.384C97.1313 118.01 97.3412 117.504 97.3412 116.975Z" fill="#66727F"/>
</svg>
