<svg width="64" height="64" viewBox="0 0 64 64" fill="none" xmlns="http://www.w3.org/2000/svg">
    <circle cx="32" cy="32" r="31" stroke="#0B40B3" stroke-width="2"/>
    <path d="M32 40.4678C30.7593 40.4678 29.6561 40.9986 28.8856 41.8283L32 44.8561L35.1144 41.8283C34.3439 40.9986 33.2407 40.4678 32 40.4678ZM15.9846 29.2856C20.0618 25.2452 25.7319 22.729 32 22.729C38.2681 22.729 43.9382 25.2452 48.0154 29.2856L50 27.3561C45.4133 22.8218 39.0414 20 32 20C24.9586 20 18.5867 22.8218 14 27.3561L15.9846 29.2856Z" fill="#0B40B3" stroke="white" stroke-width="0.5"/>
    <path d="M32 26.8228C26.8926 26.8228 22.275 28.8791 18.96 32.1785L20.9445 34.1079C23.7515 31.3025 27.6673 29.5518 32 29.5518C36.3326 29.5518 40.2484 31.3025 43.0554 34.1066L45.04 32.1771C41.7249 28.8791 37.1073 26.8228 32 26.8228Z" fill="#0B40B3" stroke="white" stroke-width="0.5"/>
    <path d="M24.2054 36.9992C26.2021 35.0544 28.9566 33.8453 31.9999 33.8453C35.0432 33.8453 37.7977 35.0544 39.7931 36.9991L38.0973 38.6479C36.5368 37.1238 34.3816 36.1743 31.9999 36.1743C29.6182 36.1743 27.4629 37.1238 25.9012 38.6479L24.2054 36.9992Z" fill="#0B40B3" stroke="white" stroke-width="0.4"/>
</svg>
