<svg width="64" height="64" viewBox="0 0 64 64" fill="none" xmlns="http://www.w3.org/2000/svg">
    <circle cx="32" cy="32" r="31" stroke="#0B40B3" stroke-width="2"/>
    <path d="M16 20V16H20M44 16H48V20M48 44V48H44M20 48H16V44M20.6904 33.1008C20.3136 32.0432 20 29.9464 20 27.0056C20 23.5608 22.6456 16.8 32 16.8C42.312 16.8 44 23.9264 44 28.1864C44 31.652 43.4392 33.6 43.4392 33.6" stroke="#0B40B3" stroke-width="2" stroke-miterlimit="10" stroke-linecap="round"/>
    <path d="M43.1109 33.3335L41.6 30.4001C41.6 25.2873 29.6824 31.9401 28 22.4001C27.0248 28.9361 22.4 25.9401 22.4 29.6001L20.8887 32.8891M21.9135 36.6462C22.0282 36.913 21.4243 35.6669 23.1565 40.1113C24.8887 44.5557 27.8676 47.3113 32 47.3113C36.1319 47.3113 38.9162 44.3198 40.8435 40.1113C40.9652 39.8456 41.9723 36.912 42.0872 36.6446" stroke="#0B40B3" stroke-width="2" stroke-miterlimit="10" stroke-linecap="round" stroke-linejoin="round"/>
</svg>
