<svg viewBox="0 0 64 64" fill="none" xmlns="http://www.w3.org/2000/svg">
    <mask id="path-2-inside-1" fill="white">
        <path d="M63.9833 33.0346C64.2006 26.3173 62.2974 19.7022 58.5437 14.1273C54.79 8.55251 49.3763 4.30105 43.0706 1.97596C36.7648 -0.349124 29.887 -0.629805 23.4127 1.17373C16.9385 2.97727 11.1964 6.77347 7.0009 12.0239C2.80543 17.2743 0.369557 23.7124 0.0387805 30.4251C-0.291996 37.1377 1.49911 43.7841 5.15807 49.4216C8.81702 55.059 14.1581 59.4014 20.4237 61.8327C26.6892 64.264 33.5613 64.6609 40.0651 62.967L39.5397 60.9495C33.4596 62.533 27.0352 62.162 21.1778 59.8891C15.3204 57.6162 10.3274 53.5568 6.90678 48.2866C3.4862 43.0164 1.81178 36.803 2.12101 30.5277C2.43023 24.2523 4.70741 18.2337 8.62955 13.3253C12.5517 8.41694 17.9197 4.86806 23.9722 3.18202C30.0247 1.49598 36.4544 1.75837 42.3493 3.93199C48.2443 6.1056 53.3053 10.0801 56.8144 15.2917C60.3236 20.5034 62.1027 26.6876 61.8996 32.9672L63.9833 33.0346Z"/>
    </mask>
    <path d="M63.9833 33.0346C64.2006 26.3173 62.2974 19.7022 58.5437 14.1273C54.79 8.55251 49.3763 4.30105 43.0706 1.97596C36.7648 -0.349124 29.887 -0.629805 23.4127 1.17373C16.9385 2.97727 11.1964 6.77347 7.0009 12.0239C2.80543 17.2743 0.369557 23.7124 0.0387805 30.4251C-0.291996 37.1377 1.49911 43.7841 5.15807 49.4216C8.81702 55.059 14.1581 59.4014 20.4237 61.8327C26.6892 64.264 33.5613 64.6609 40.0651 62.967L39.5397 60.9495C33.4596 62.533 27.0352 62.162 21.1778 59.8891C15.3204 57.6162 10.3274 53.5568 6.90678 48.2866C3.4862 43.0164 1.81178 36.803 2.12101 30.5277C2.43023 24.2523 4.70741 18.2337 8.62955 13.3253C12.5517 8.41694 17.9197 4.86806 23.9722 3.18202C30.0247 1.49598 36.4544 1.75837 42.3493 3.93199C48.2443 6.1056 53.3053 10.0801 56.8144 15.2917C60.3236 20.5034 62.1027 26.6876 61.8996 32.9672L63.9833 33.0346Z" stroke="#0B40B3" stroke-width="4" mask="url(#path-2-inside-1)"/>
</svg>
