<svg width="64" height="64" viewBox="0 0 64 64" fill="none" xmlns="http://www.w3.org/2000/svg">
    <circle cx="32" cy="32" r="31" stroke="#F94110" stroke-width="2"/>
    <path d="M24.8399 36.68V18.92C24.9139 17.514 26.0239 16.7 27.0599 16.7C28.0959 16.7 29.2799 17.44 29.2799 18.92V30.02V15.96C29.2799 14.924 30.0939 13.74 31.4999 13.74C32.9059 13.74 33.7199 14.924 33.7199 15.96C33.7199 15.96 33.7199 29.65 33.7199 29.28V17.44C33.7199 16.404 34.2379 15.22 35.9399 15.22C37.4199 15.22 38.1599 16.108 38.1599 18.18V30.76V21.88C38.1599 20.844 38.3079 18.92 40.3799 18.92C42.4519 18.92 42.5999 20.844 42.5999 21.88V43.34C42.5999 46.596 39.9359 49.26 36.6799 49.26H30.7599C24.0999 49.26 20.3999 44.3109 20.3999 38.0986V30.02C20.3999 28.8404 20.616 27.8 21.8799 27.8C23.3599 27.8 24.8399 30.02 24.8399 31.5" stroke="#F94110" stroke-width="2" stroke-miterlimit="10" stroke-linecap="round" stroke-linejoin="round"/>
</svg>