<svg width="64" height="64" viewBox="0 0 64 64" fill="none" xmlns="http://www.w3.org/2000/svg">
    <circle cx="32" cy="32" r="31" stroke="#0B40B3" stroke-width="2"/>
    <path d="M23.2511 20.6001H18.7965C18.4465 20.6001 18.1602 20.7382 18.1602 21.1041V46.7177C18.1602 47.0836 18.3937 47.3274 18.7437 47.3274H45.5772C45.9266 47.3274 46.1602 47.0836 46.1602 46.7177V21.1041C46.1602 20.7382 45.8738 20.6001 45.5238 20.6001H41.0692" stroke="#0B40B3" stroke-width="2" stroke-miterlimit="10" stroke-linejoin="round"/>
    <path d="M37.7806 20.4615H27.3636M18.5 27H46M40.2273 22.9231H38.5C38.0233 22.9231 37.6364 22.6474 37.6364 22.3077V18.6154C37.6364 18.2757 38.0233 18 38.5 18H40.2273C40.704 18 41.0909 18.2757 41.0909 18.6154V22.3077C41.0909 22.6474 40.704 22.9231 40.2273 22.9231ZM26.5 22.9231H24.7727C24.296 22.9231 23.9091 22.6474 23.9091 22.3077V18.6154C23.9091 18.2757 24.296 18 24.7727 18H26.5C26.9767 18 27.3636 18.2757 27.3636 18.6154V22.3077C27.3636 22.6474 26.9767 22.9231 26.5 22.9231Z" stroke="#0B40B3" stroke-width="2" stroke-miterlimit="10" stroke-linejoin="round"/>
</svg>
