<svg width="64" height="64" viewBox="0 0 64 64" fill="none" xmlns="http://www.w3.org/2000/svg">
    <circle cx="32" cy="32" r="31" stroke="#0B40B3" stroke-width="2"/>
    <path d="M23.5 37C23.1022 37 22.7206 37.158 22.4393 37.4393C22.158 37.7206 22 38.1022 22 38.5C22 38.8978 22.158 39.2794 22.4393 39.5607C22.7206 39.842 23.1022 40 23.5 40C23.8978 40 24.2794 39.842 24.5607 39.5607C24.842 39.2794 25 38.8978 25 38.5C25 38.1022 24.842 37.7206 24.5607 37.4393C24.2794 37.158 23.8978 37 23.5 37ZM29.5 37C29.1022 37 28.7206 37.158 28.4393 37.4393C28.158 37.7206 28 38.1022 28 38.5C28 38.8978 28.158 39.2794 28.4393 39.5607C28.7206 39.842 29.1022 40 29.5 40C29.8978 40 30.2794 39.842 30.5607 39.5607C30.842 39.2794 31 38.8978 31 38.5C31 38.1022 30.842 37.7206 30.5607 37.4393C30.2794 37.158 29.8978 37 29.5 37ZM35.5 37C35.1022 37 34.7206 37.158 34.4393 37.4393C34.158 37.7206 34 38.1022 34 38.5C34 38.8978 34.158 39.2794 34.4393 39.5607C34.7206 39.842 35.1022 40 35.5 40C35.8978 40 36.2794 39.842 36.5607 39.5607C36.842 39.2794 37 38.8978 37 38.5C37 38.1022 36.842 37.7206 36.5607 37.4393C36.2794 37.158 35.8978 37 35.5 37ZM41.5 37C41.1022 37 40.7206 37.158 40.4393 37.4393C40.158 37.7206 40 38.1022 40 38.5C40 38.8978 40.158 39.2794 40.4393 39.5607C40.7206 39.842 41.1022 40 41.5 40C41.8978 40 42.2794 39.842 42.5607 39.5607C42.842 39.2794 43 38.8978 43 38.5C43 38.1022 42.842 37.7206 42.5607 37.4393C42.2794 37.158 41.8978 37 41.5 37Z" fill="#0B40B3"/>
    <path d="M23.3421 28.4565V23.1304C23.3421 18.0882 27.4426 14 32.5 14C37.5574 14 41.6579 18.0882 41.6579 23.1304V28.4565M45.4737 49H19.5263C18.683 49 18 48.319 18 47.4783V29.9783C18 29.1375 18.683 28.4565 19.5263 28.4565H45.4737C46.317 28.4565 47 29.1375 47 29.9783V47.4783C47 48.319 46.317 49 45.4737 49Z" stroke="#0B40B3" stroke-width="2" stroke-miterlimit="10"/>
</svg>
