<svg width="224" height="176" viewBox="0 0 224 176" fill="none" xmlns="http://www.w3.org/2000/svg">
    <path d="M43.3721 18.6188H51.6191V20.7418H45.9017V24.7645H50.9425V26.7975H45.9017V31.5434H51.7774V33.6665H43.3721V18.6188Z" fill="#467DBF"/>
    <path d="M53.4722 31.7948H54.3319C54.9869 31.3199 55.3935 30.1684 55.5735 28.2688L56.1601 22.7314H63.7988V31.7917H65.1552L64.7021 36.9442H63.1191L62.8925 33.6665H55.707L55.4121 36.9442H53.8291L53.4722 31.7948ZM61.4709 31.7948V24.6093H58.128L57.7431 28.6102C57.6066 30.1001 57.2465 31.1647 56.7033 31.7979H61.4709V31.7948Z" fill="#467DBF"/>
    <path d="M67.7993 22.7314H69.9689V28.6971C69.9689 29.5569 69.9007 30.4384 69.9007 30.4819H69.9224C69.9441 30.4602 70.4407 29.5569 71.1205 28.5606L75.3014 22.7314H77.6728V33.6696H75.4815V27.2073C75.4815 26.4623 75.5498 25.7174 75.5498 25.6926H75.5032C75.5032 25.7143 75.05 26.4841 74.4199 27.409L69.9224 33.6696H67.7993V22.7314Z" fill="#467DBF"/>
    <path d="M81.1523 22.7314H83.5703V27.0241H88.4527V22.7314H90.8707V33.6696H88.4527V28.9703H83.5703V33.6696H81.1523V22.7314Z" fill="#467DBF"/>
    <path d="M94.3506 22.7314H96.7468V26.5741H98.7116C101.22 26.5741 103.094 27.6573 103.094 30.0535C103.094 32.4715 101.31 33.6696 98.4384 33.6696H94.3506V22.7314ZM98.4415 31.8848C99.978 31.8848 100.701 31.3199 100.701 30.1001C100.701 28.9237 100.025 28.3588 98.5098 28.3588H96.7468V31.8848H98.4415ZM105.196 22.7314H107.614V33.6696H105.196V22.7314Z" fill="#467DBF"/>
    <path d="M111.118 22.7315H113.287V28.6972C113.287 29.557 113.219 30.4385 113.219 30.4819H113.241C113.262 30.4602 113.759 29.557 114.439 28.5606L118.62 22.7315H120.991V33.6697H118.8V27.2073C118.8 26.4624 118.868 25.7175 118.868 25.6926H118.822C118.822 25.7144 118.368 26.4841 117.738 27.4091L113.241 33.6697H111.118V22.7315ZM112.381 18.3022H114.414C114.482 19.3203 115.025 19.9752 115.95 19.9752C116.875 19.9752 117.397 19.3203 117.487 18.3022H119.498C119.293 20.6302 117.692 21.6234 115.95 21.6234C114.212 21.6265 112.608 20.6302 112.381 18.3022Z" fill="#467DBF"/>
    <path d="M127.838 31.7948H128.698C129.353 31.3199 129.76 30.1684 129.94 28.2688L130.526 22.7314H138.165V31.7917H139.521L139.068 36.9442H137.485L137.259 33.6665H130.076L129.781 36.9442H128.198L127.838 31.7948ZM135.837 31.7948V24.6093H132.494L132.109 28.6102C131.973 30.1001 131.613 31.1647 131.07 31.7979H135.837V31.7948Z" fill="#467DBF"/>
    <path d="M141.216 28.1324C141.216 24.7895 143.408 22.4615 146.391 22.4615C149.327 22.4615 150.956 24.4046 150.956 27.614C150.956 27.9089 150.935 28.2472 150.91 28.5638H143.768C143.879 30.5069 144.739 32.065 146.862 32.065C148.355 32.065 149.28 31.4784 149.777 31.2052L150.612 32.8534C149.979 33.2383 148.805 33.9367 146.679 33.9367C143.113 33.9398 141.216 31.5001 141.216 28.1324ZM148.582 26.8443C148.535 25.4661 147.949 24.2897 146.344 24.2897C144.876 24.2897 144.063 25.3078 143.789 26.8443H148.582Z" fill="#467DBF"/>
    <path d="M153.598 22.7314H156.016V27.0241H160.898V22.7314H163.316V33.6696H160.898V28.9703H156.016V33.6696H153.598V22.7314Z" fill="#467DBF"/>
    <path d="M166.795 22.7314H169.192V26.5741H171.156C173.664 26.5741 175.539 27.6573 175.539 30.0535C175.539 32.4715 173.754 33.6696 170.883 33.6696H166.795V22.7314ZM170.886 31.8848C172.423 31.8848 173.146 31.3199 173.146 30.1001C173.146 28.9237 172.469 28.3588 170.955 28.3588H169.192V31.8848H170.886Z" fill="#467DBF"/>
    <path d="M46.1841 41.3083H53.1213V43.1831H48.5803V52.2434H46.1841V41.3083Z" fill="#467DBF"/>
    <path d="M53.981 46.7991C53.981 44.1111 55.4491 41.0352 59.2234 41.0352C62.9761 41.0352 64.6242 44.0397 64.6242 46.7308C64.6242 49.3971 63.0195 52.5165 59.27 52.5165C55.4957 52.5165 53.981 49.4871 53.981 46.7991ZM62.0697 46.7991C62.0697 44.6295 61.1448 42.913 59.1769 42.913C57.2338 42.913 56.5106 44.5612 56.5106 46.7308C56.5106 48.9004 57.3456 50.6169 59.2886 50.6169C61.2565 50.6169 62.0697 48.9904 62.0697 46.7991Z" fill="#467DBF"/>
    <path d="M65.8662 50.6171C66.996 50.5271 67.6075 49.3507 67.831 46.8428L68.3276 41.3054H76.1681V52.2436H73.7718V43.1833H70.3607L70.0223 47.2742C69.7523 50.7754 68.4859 52.4267 66.2045 52.4267L65.8662 50.6171Z" fill="#467DBF"/>
    <path d="M78.7007 46.7991C78.7007 44.1111 80.1688 41.0352 83.9432 41.0352C87.6958 41.0352 89.344 44.0397 89.344 46.7308C89.344 49.3971 87.7392 52.5165 83.9897 52.5165C80.2154 52.5165 78.7007 49.4871 78.7007 46.7991ZM86.7926 46.7991C86.7926 44.6295 85.8676 42.913 83.8997 42.913C81.9567 42.913 81.2335 44.5612 81.2335 46.7308C81.2335 48.9004 82.0684 50.6169 84.0115 50.6169C85.9793 50.6169 86.7926 48.9904 86.7926 46.7991Z" fill="#467DBF"/>
    <path d="M90.9053 46.7774C90.9053 43.0714 93.2767 41.0383 96.3278 41.0383C98.1125 41.0383 99.1523 41.6498 99.6738 42.0098L98.7923 43.7046C98.2491 43.3445 97.5507 42.9348 96.3743 42.9348C94.3847 42.9348 93.4381 44.5178 93.4381 46.7092C93.4381 48.8788 94.3878 50.5952 96.4209 50.5952C97.7307 50.5952 98.5905 50.0303 98.9289 49.8286L99.7203 51.4767C99.2672 51.8368 98.2056 52.5165 96.2409 52.5165C92.87 52.5165 90.9053 50.0086 90.9053 46.7774Z" fill="#467DBF"/>
    <path d="M100.916 46.7991C100.916 44.1111 102.384 41.0352 106.158 41.0352C109.911 41.0352 111.559 44.0397 111.559 46.7308C111.559 49.3971 109.954 52.5165 106.205 52.5165C102.427 52.5165 100.916 49.4871 100.916 46.7991ZM109.004 46.7991C109.004 44.6295 108.079 42.913 106.111 42.913C104.168 42.913 103.445 44.5612 103.445 46.7308C103.445 48.9004 104.28 50.6169 106.223 50.6169C108.191 50.6169 109.004 48.9904 109.004 46.7991Z" fill="#467DBF"/>
    <path d="M114.067 41.3083H118.428C120.597 41.3083 122.404 41.985 122.404 44.0646C122.404 45.4893 121.59 46.2342 120.392 46.5291V46.5757C121.727 46.7557 122.879 47.6372 122.879 49.2202C122.879 51.4333 121.004 52.2496 118.381 52.2496H114.063V41.3083H114.067ZM118.154 45.8276C119.511 45.8276 120.076 45.3527 120.076 44.3812C120.076 43.478 119.443 43.0714 118.201 43.0714H116.438V45.8276H118.154ZM118.313 50.4369C119.827 50.4369 120.482 50.0738 120.482 49.0122C120.482 47.9724 119.849 47.4292 118.424 47.4292H116.435V50.4338H118.313V50.4369Z" fill="#467DBF"/>
    <path d="M124.62 49.4871C124.62 46.6409 127.671 45.6693 130.449 45.6693H130.877V44.8779C130.877 43.568 130.312 43.0031 128.912 43.0031C127.804 43.0031 126.901 43.4314 126.109 44.1112L124.98 42.5748C125.951 41.6933 127.329 41.0383 129.161 41.0383C131.873 41.0383 133.273 42.1899 133.273 44.9027V49.3537C133.273 50.6418 133.41 51.635 133.543 52.2465H131.172C131.104 51.9516 131.014 51.3433 130.992 51.005C130.359 51.8182 129.229 52.5196 127.829 52.5196C125.998 52.5165 124.62 51.3867 124.62 49.4871ZM130.877 49.4437V47.2523H130.449C128.437 47.2523 127.013 47.8172 127.013 49.3537C127.013 50.3035 127.783 50.6635 128.459 50.6635C129.521 50.6635 130.312 50.1452 130.877 49.4437Z" fill="#467DBF"/>
    <path d="M136.551 41.3083H138.969V45.601H143.852V41.3083H146.27V52.2465H143.852V47.5472H138.969V52.2465H136.551V41.3083Z" fill="#467DBF"/>
    <path d="M149.746 41.3083H151.915V47.274C151.915 48.1338 151.847 49.0153 151.847 49.0588H151.869C151.89 49.0371 152.387 48.1338 153.067 47.1375L157.248 41.3083H159.619V52.2465H157.428V45.7842C157.428 45.0392 157.496 44.2943 157.496 44.2695H157.449C157.449 44.2912 156.996 45.061 156.366 45.9859L151.869 52.2465H149.746V41.3083Z" fill="#467DBF"/>
    <path d="M162.015 50.4152H162.173C162.717 50.4152 163.192 49.9869 164.026 48.7205C164.455 48.0655 164.908 47.4789 165.405 47.2958V47.274C164.138 47.1375 162.785 46.2342 162.785 44.4961C162.785 42.4164 164.343 41.3083 167.056 41.3083H171.237V52.2465H168.841V47.7738H168.186C167.531 47.7738 166.988 48.3852 166.084 49.8317C164.886 51.6847 164.3 52.2496 162.965 52.2496H162.015V50.4152ZM168.841 46.0977V43.1148H167.214C165.836 43.1148 165.225 43.568 165.225 44.6047C165.225 45.5762 165.811 46.0977 167.099 46.0977H168.841Z" fill="#467DBF"/>
    <path d="M47.77 138.945L44.8462 139.87L44.2812 137.691L48.3349 136.536H50.4642V148.952H47.77V138.945Z" fill="#E32213"/>
    <path d="M53.6179 153.617L54.0276 151.41C54.2573 151.46 54.9774 151.59 55.7969 151.59C58.1838 151.59 60.1579 150.46 60.1579 148.408C60.1579 146.201 58.2583 145.432 55.5424 145.432V143.43C57.3643 143.405 59.6705 142.197 59.6705 140.326C59.6705 139.146 58.9008 138.479 57.4388 138.479C56.309 138.479 55.412 138.941 54.5926 139.683L53.2827 137.939C54.2822 136.989 55.8465 136.219 57.8734 136.219C60.8749 136.219 62.5168 137.911 62.5168 139.938C62.5168 142.067 60.6172 143.579 59.0808 143.992V144.016C61.1076 144.274 63.0569 145.81 63.0569 148.275C63.0569 151.711 59.9778 153.766 56.0297 153.766C54.7198 153.769 54.0028 153.694 53.6179 153.617Z" fill="#E32213"/>
    <path d="M70.1587 142.741C70.1587 138.535 72.8529 136.226 76.3137 136.226C78.3406 136.226 79.5201 136.918 80.1098 137.328L79.1103 139.252C78.4958 138.842 77.6981 138.38 76.3665 138.38C74.11 138.38 73.0329 140.174 73.0329 142.663C73.0329 145.125 74.11 147.074 76.4193 147.074C77.906 147.074 78.8807 146.431 79.2655 146.202L80.1626 148.073C79.6504 148.483 78.443 149.253 76.2113 149.253C72.3904 149.256 70.1587 146.41 70.1587 142.741Z" fill="#E32213"/>
    <path d="M81.7017 142.663C81.7017 138.867 84.191 136.226 87.5742 136.226C90.9078 136.226 92.7546 138.433 92.7546 142.073C92.7546 142.406 92.7298 142.79 92.705 143.151H84.6007C84.728 145.357 85.7026 147.127 88.1143 147.127C89.8059 147.127 90.8582 146.459 91.4231 146.152L92.3729 148.024C91.6559 148.461 90.3212 149.256 87.9095 149.256C83.8558 149.256 81.7017 146.484 81.7017 142.663ZM90.0636 141.201C90.0139 139.637 89.3466 138.302 87.5246 138.302C85.8578 138.302 84.9328 139.457 84.6255 141.201H90.0636Z" fill="#E32213"/>
    <path d="M95.7559 136.533H98.4997V141.406H104.04V136.533H106.784V148.949H104.04V143.613H98.4997V148.949H95.7559V136.533Z" fill="#E32213"/>
    <path d="M112.968 138.687H109.196V136.533H119.507V138.687H115.711V148.949H112.968V138.687Z" fill="#E32213"/>
    <path d="M120.228 146.869H120.408C121.022 146.869 121.562 146.382 122.512 144.945C122.999 144.2 123.511 143.532 124.076 143.327V143.303C122.639 143.147 121.1 142.123 121.1 140.149C121.1 137.79 122.869 136.533 125.948 136.533H130.694V148.949H127.975V143.871H127.23C126.485 143.871 125.87 144.563 124.843 146.205C123.484 148.309 122.816 148.949 121.305 148.949H120.228V146.869ZM127.972 141.971V138.585H126.125C124.561 138.585 123.868 139.097 123.868 140.276C123.868 141.378 124.536 141.968 125.998 141.968H127.972V141.971Z" fill="#E32213"/>
    <path d="M133.847 140.431C133.847 135.505 135.387 132.119 140.337 131.095L144.416 130.223L144.826 132.61L140.772 133.379C138.233 133.891 136.693 135.353 136.591 138.203C137.336 137.253 138.463 136.458 140.207 136.458C143.286 136.458 145.645 138.793 145.645 142.769C145.645 146.745 142.951 149.259 139.797 149.259C135.232 149.256 133.847 145.124 133.847 140.431ZM142.746 142.818C142.746 140.279 141.747 138.535 139.9 138.535C138.233 138.535 137.386 139.432 136.718 140.459C136.693 140.615 136.693 141.074 136.693 141.204C136.693 145.283 137.951 147.105 139.847 147.105C141.619 147.102 142.746 145.509 142.746 142.818Z" fill="#E32213"/>
    <path d="M148.491 136.533H151.185V137.84C151.853 137.045 152.955 136.223 154.699 136.223C157.778 136.223 159.727 138.581 159.727 142.713C159.727 146.636 157.443 149.253 154.212 149.253C152.57 149.253 151.673 148.663 151.21 148.278V154.563H148.491V136.533ZM156.828 142.741C156.828 140.202 155.903 138.482 153.929 138.482C152.467 138.482 151.518 139.559 151.21 139.969V146.099C151.698 146.534 152.442 147.074 153.724 147.074C155.751 147.077 156.828 145.332 156.828 142.741Z" fill="#E32213"/>
    <path d="M161.367 146.869H161.547C162.161 146.869 162.701 146.382 163.651 144.945C164.138 144.2 164.651 143.532 165.216 143.327V143.303C163.778 143.147 162.239 142.123 162.239 140.149C162.239 137.79 164.008 136.533 167.087 136.533H171.833V148.949H169.114V143.871H168.369C167.624 143.871 167.01 144.563 165.982 146.205C164.623 148.309 163.955 148.949 162.444 148.949H161.367V146.869ZM169.114 141.971V138.585H167.267C165.703 138.585 165.011 139.097 165.011 140.276C165.011 141.378 165.678 141.968 167.14 141.968H169.114V141.971Z" fill="#E32213"/>
    <path d="M194.212 61.673H188.88V8.3325H35.8201C31.8068 8.3325 28.5415 11.5978 28.5415 15.6111V61.673H23.209V15.6111C23.209 8.65841 28.8674 3 35.8201 3H194.209V61.673H194.212Z" fill="#E1E1E6"/>
    <path d="M180.552 174H23.209V106.689H28.5415V168.667H180.552C185.143 168.667 188.876 164.934 188.876 160.34V106.689H194.209V160.343C194.212 167.873 188.085 174 180.552 174Z" fill="#E32213"/>
    <path d="M8 105.23C16.6971 98.5318 35.7954 84.8343 35.7954 75.9354C35.7954 71.6365 32.9957 68.9361 27.2969 68.9361C22.998 68.9361 18.2987 71.1368 15.1979 74.3338L9.70094 67.6387C14.0992 63.3398 21.3995 60.1396 28.5975 60.1396C39.1942 60.1396 47.1929 64.5379 47.1929 74.2376C47.1929 84.9367 33.3961 95.3348 25.0963 101.533C25.4967 101.533 28.6968 101.232 31.0961 101.232H51.5912V109.83H8V105.23Z" fill="#153C87"/>
    <path d="M58.6895 85.7344C58.6895 73.9365 66.5889 60.239 84.1849 60.239C101.781 60.239 109.581 73.4368 109.581 85.4334C109.581 97.3306 101.582 111.028 83.9862 111.028C66.3902 111.028 58.6895 97.6317 58.6895 85.7344ZM98.1804 85.7344C98.1804 76.0348 93.2824 68.9361 83.9831 68.9361C74.7863 68.9361 70.087 75.6343 70.087 85.4334C70.087 95.2324 74.8856 102.331 84.1849 102.331C93.4842 102.331 98.1804 95.5334 98.1804 85.7344Z" fill="#153C87"/>
    <path d="M115.079 105.23C123.776 98.5317 142.874 84.8342 142.874 75.9353C142.874 71.6364 140.074 68.936 134.376 68.936C130.077 68.936 125.377 71.1367 122.277 74.3337L116.776 67.6355C121.175 63.3366 128.475 60.1365 135.673 60.1365C146.273 60.1365 154.268 64.5347 154.268 74.2344C154.268 84.9335 140.472 95.3316 132.172 101.53C132.572 101.53 135.772 101.229 138.172 101.229H158.667V109.827H115.079V105.23Z" fill="#153C87"/>
    <path d="M165.769 85.7344C165.769 73.9365 173.668 60.239 191.264 60.239C208.86 60.239 216.66 73.4368 216.66 85.4334C216.66 97.3306 208.661 111.028 191.065 111.028C173.469 111.028 165.769 97.6317 165.769 85.7344ZM205.259 85.7344C205.259 76.0348 200.362 68.9361 191.062 68.9361C181.865 68.9361 177.166 75.6343 177.166 85.4334C177.166 95.2324 181.965 102.331 191.264 102.331C200.56 102.331 205.259 95.5334 205.259 85.7344Z" fill="#153C87"/>
</svg>
