<svg width="80" height="80" viewBox="0 0 80 80" fill="none" xmlns="http://www.w3.org/2000/svg">
<path fill-rule="evenodd" clip-rule="evenodd" d="M78 40C78 60.9868 60.9868 78 40 78C19.0132 78 2 60.9868 2 40C2 19.0132 19.0132 2 40 2C60.9868 2 78 19.0132 78 40ZM80 40C80 62.0914 62.0914 80 40 80C17.9086 80 0 62.0914 0 40C0 17.9086 17.9086 0 40 0C62.0914 0 80 17.9086 80 40ZM36.7311 55.6823L64.7311 25.6823L63.2689 24.3177L36.0019 53.5324L23.7328 40.3195L22.2672 41.6805L35.2672 55.6805L35.9981 56.4676L36.7311 55.6823Z" fill="#6293FF"/>
</svg>
